<svg width="50" height="39" viewBox="0 0 50 39" fill="none" xmlns="http://www.w3.org/2000/svg">
<path d="M45.9975 0.793213H3.70356C1.9092 0.793213 0.449219 2.25329 0.449219 4.04755V30.8882C0.449219 31.3371 0.813618 31.7015 1.26256 31.7015H48.4384C48.8874 31.7015 49.2518 31.3371 49.2518 30.8882V4.04755C49.2519 2.25329 47.7919 0.793213 45.9975 0.793213ZM47.6251 30.0748H2.07601V4.04755C2.07601 3.14956 2.80643 2.42 3.70356 2.42H45.9975C46.8947 2.42 47.6251 3.14956 47.6251 4.04755V30.0748Z" fill="#333333"/>
<path d="M48.4385 30.0735H1.26256C0.813618 30.0735 0.449219 30.4379 0.449219 30.8868V34.9529C0.449219 36.7473 1.9092 38.2072 3.70356 38.2072H45.9975C47.7919 38.2072 49.2519 36.7473 49.2519 34.9529V30.8868C49.2519 30.4379 48.8875 30.0735 48.4385 30.0735ZM47.6251 34.953C47.6251 35.851 46.8947 36.5805 45.9975 36.5805H3.70356C2.80643 36.5805 2.07601 35.851 2.07601 34.953V31.7003H47.6252V34.953H47.6251Z" fill="#333333"/>
<path d="M27.2874 33.3284H22.4071C21.9581 33.3284 21.5938 33.6928 21.5938 34.1417C21.5938 34.5907 21.9581 34.9551 22.4071 34.9551H27.2874C27.7363 34.9551 28.1007 34.5907 28.1007 34.1417C28.1007 33.6928 27.7363 33.3284 27.2874 33.3284Z" fill="#333333"/>
<path d="M45.1775 4.04541H4.50866C4.05971 4.04541 3.69531 4.40981 3.69531 4.85876V30.8869C3.69531 31.3358 4.05971 31.7002 4.50866 31.7002H45.1776C45.6265 31.7002 45.9909 31.3358 45.9909 30.8869V4.85876C45.9909 4.40981 45.6265 4.04541 45.1775 4.04541ZM44.3641 30.0734H5.322V5.6721H44.3641V30.0734Z" fill="#333333"/>
<path d="M39.3147 24.7591L37.3513 22.7956L38.4436 21.7033C38.6462 21.5008 38.7275 21.2063 38.6575 20.9289C38.5875 20.6516 38.3769 20.432 38.1027 20.349L29.969 17.9089C29.6819 17.8226 29.372 17.9016 29.1605 18.1131C28.9482 18.3246 28.8702 18.6352 28.9563 18.9216L31.3965 27.0553C31.4786 27.3302 31.699 27.5409 31.9764 27.6108C32.2529 27.6792 32.5482 27.5994 32.7508 27.3969L33.9009 26.246L35.8643 28.2103C36.0164 28.3632 36.2238 28.4486 36.4394 28.4486C36.6549 28.4486 36.8623 28.3632 37.0144 28.2103L39.3146 25.9092C39.6327 25.5912 39.6327 25.0772 39.3147 24.7591ZM36.4394 26.4851L34.6516 24.6965C34.4442 24.4891 34.1725 24.3857 33.9009 24.3857C33.6283 24.3857 33.3567 24.4898 33.1501 24.6956L32.5629 25.2829L30.9483 19.9008L36.3304 21.5153L35.7008 22.1449C35.5275 22.319 35.4324 22.55 35.4324 22.7956C35.4324 23.0421 35.5284 23.2747 35.7025 23.4471L37.5895 25.3342L36.4394 26.4851Z" fill="#333333"/>
<path d="M34.6133 7.30127H11.8387C11.3898 7.30127 11.0254 7.66567 11.0254 8.11462V12.1815C11.0254 12.6305 11.3898 12.9949 11.8387 12.9949H34.6133C35.0622 12.9949 35.4266 12.6305 35.4266 12.1815V8.11462C35.4266 7.66567 35.0622 7.30127 34.6133 7.30127ZM33.7999 11.3682H12.6521V8.92806H33.7999V11.3682Z" fill="#333333"/>
<path d="M31.0049 14.5116H16.0387C15.0061 14.5116 14.168 14.9772 14.168 15.5509V19.7082C14.168 20.2819 15.0061 20.7475 16.0387 20.7475H31.0049C32.0375 20.7475 32.8756 20.2819 32.8756 19.7082V15.5509C32.8756 14.9772 32.0375 14.5116 31.0049 14.5116Z" fill="#333333"/>
<path d="M34.6133 7.30127H11.8387C11.3898 7.30127 11.0254 7.66567 11.0254 8.11462V23.5688C11.0254 24.0177 11.3898 24.3821 11.8387 24.3821H31.202C31.4599 24.3821 31.7014 24.261 31.8544 24.0543C32.0082 23.8478 32.0553 23.581 31.9813 23.3345L30.9516 19.9012L34.3799 20.9302C34.6264 21.0042 34.8932 20.9571 35.0989 20.8033C35.3055 20.6504 35.4267 20.408 35.4267 20.151V8.11462C35.4266 7.66567 35.0622 7.30127 34.6133 7.30127ZM33.7999 19.0578L29.9713 17.9094C29.6842 17.8231 29.3743 17.902 29.1628 18.1135C28.9506 18.3258 28.8725 18.6357 28.9587 18.9229L30.1088 22.7555H12.6521V8.92806H33.7999V19.0578Z" fill="#333333"/>
</svg>
