<svg width="41" height="35" viewBox="0 0 41 35" fill="none" xmlns="http://www.w3.org/2000/svg">
<path d="M29.8239 29.938H22.3904L21.6126 29.1602L23.5644 27.2085C23.7788 26.994 23.8683 26.689 23.8037 26.3926C23.7391 26.0964 23.5308 25.8564 23.2467 25.7507L13.0591 21.9592C12.7016 21.826 12.3115 21.9109 12.0416 22.181C11.7717 22.4509 11.6867 22.8408 11.8199 23.1985L14.3281 29.938H4.11407C3.11643 29.938 2.3049 29.1264 2.3049 28.1289V15.6551C2.3049 15.3357 2.04608 15.0769 1.72667 15.0769C1.40725 15.0769 1.14844 15.3357 1.14844 15.6551V28.1289C1.14844 29.7641 2.47883 31.0945 4.11407 31.0945H14.7585L15.6113 33.3859C15.717 33.6703 15.9571 33.8785 16.2534 33.9431C16.5497 34.0078 16.8549 33.9182 17.0691 33.7038L19.0209 31.7522L21.0077 33.739C21.1955 33.9268 21.4423 34.0205 21.689 34.0205C21.9358 34.0205 22.1825 33.9266 22.3704 33.7389L23.5994 32.5099C23.9751 32.1342 23.975 31.5228 23.5994 31.1471C23.5994 31.1471 23.5994 31.1471 23.5993 31.1471L23.5469 31.0947H29.8238C30.1432 31.0947 30.4021 30.8359 30.4021 30.5164C30.4021 30.197 30.1432 29.938 29.8239 29.938ZM21.689 32.7846L19.4298 30.5253C19.3168 30.4124 19.1689 30.356 19.0209 30.356C18.8729 30.356 18.7249 30.4124 18.6119 30.5253L16.5485 32.5887L13.0506 23.1899L22.4493 26.6879L20.3859 28.7514C20.1601 28.9773 20.1601 29.3433 20.3859 29.5691L22.6452 31.8283L21.689 32.7846Z" fill="#333333" stroke="black" stroke-width="0.3"/>
<path d="M37.6567 0.980957H35.6351C35.3156 0.980957 35.0568 1.23977 35.0568 1.55919C35.0568 1.8786 35.3156 2.13742 35.6351 2.13742H37.6567C38.6543 2.13742 39.4659 2.94895 39.4659 3.94659V7.56947H2.3049V3.94659C2.3049 2.94902 3.11643 2.13742 4.11407 2.13742H32.9608C33.2802 2.13742 33.539 1.8786 33.539 1.55919C33.539 1.23977 33.2802 0.980957 32.9608 0.980957H4.11407C2.47883 0.980957 1.14844 2.31135 1.14844 3.94659V13.0527C1.14844 13.3721 1.40725 13.631 1.72667 13.631C2.04608 13.631 2.3049 13.3721 2.3049 13.0527V8.72601H39.4659V28.1285C39.4659 29.1261 38.6543 29.9377 37.6567 29.9377H32.5946C32.2751 29.9377 32.0163 30.1965 32.0163 30.5159C32.0163 30.8353 32.2751 31.0941 32.5946 31.0941H37.6567C39.2919 31.0941 40.6223 29.7637 40.6223 28.1285V3.94659C40.6223 2.31135 39.2919 0.980957 37.6567 0.980957Z" fill="#333333" stroke="black" stroke-width="0.3"/>
<path d="M4.97852 4.85375C4.97852 5.44532 5.45806 5.92487 6.04955 5.92487C6.64104 5.92487 7.12059 5.44532 7.12059 4.85375C7.12059 4.26218 6.64104 3.78271 6.04955 3.78271C5.45806 3.78271 4.97852 4.26218 4.97852 4.85375Z" fill="#333333" stroke="black" stroke-width="0.3"/>
<path d="M8.27539 4.85375C8.27539 5.44532 8.75494 5.92487 9.34643 5.92487C9.93792 5.92487 10.4175 5.44532 10.4175 4.85375C10.4175 4.26218 9.93792 3.78271 9.34643 3.78271C8.75494 3.78271 8.27539 4.26218 8.27539 4.85375Z" fill="#333333" stroke="black" stroke-width="0.3"/>
<path d="M11.5703 4.85375C11.5703 5.44532 12.0499 5.92487 12.6414 5.92487C13.2328 5.92487 13.7124 5.44532 13.7124 4.85375C13.7124 4.26218 13.2328 3.78271 12.6414 3.78271C12.0499 3.78271 11.5703 4.26218 11.5703 4.85375Z" fill="#333333" stroke="black" stroke-width="0.3"/>
<path d="M8.22438 21.4562H8.22769C8.47209 21.4562 8.69028 21.3024 8.77231 21.0721L10.2046 17.0528L11.5733 21.0648C11.6528 21.298 11.8716 21.4552 12.1181 21.4563H12.1205C12.3661 21.4563 12.5849 21.3011 12.6662 21.0692L14.6078 15.5301C14.7134 15.2288 14.5548 14.8988 14.2533 14.7931C13.9522 14.6875 13.622 14.8462 13.5163 15.1476L12.1278 19.1088L10.7638 15.1101C10.6092 14.602 9.8331 14.5973 9.67188 15.1027L8.23756 19.1276L6.87325 15.1573C6.76947 14.8552 6.44058 14.6943 6.13851 14.7984C5.83652 14.9022 5.67577 15.2312 5.77962 15.5332L7.68084 21.0658C7.76064 21.2982 7.97867 21.4547 8.22438 21.4562Z" fill="#333333" stroke="black" stroke-width="0.3"/>
<path d="M18.9256 21.4562H18.9289C19.1733 21.4562 19.3915 21.3025 19.4735 21.0721L20.9058 17.0529L22.2744 21.0648C22.354 21.298 22.5728 21.4552 22.8193 21.4563H22.8217C23.0672 21.4563 23.286 21.3012 23.3674 21.0693L25.309 15.5301C25.4146 15.2288 25.2559 14.8988 24.9545 14.7931C24.6534 14.6875 24.3232 14.8462 24.2175 15.1476L22.829 19.1088L21.465 15.1102C21.3103 14.6019 20.5343 14.5973 20.3731 15.1028L18.9387 19.1276L17.5744 15.1574C17.4706 14.8554 17.1416 14.6945 16.8397 14.7985C16.5377 14.9023 16.3769 15.2313 16.4808 15.5333L18.382 21.0659C18.4619 21.2982 18.6799 21.4547 18.9256 21.4562Z" fill="#333333" stroke="black" stroke-width="0.3"/>
<path d="M29.4472 21.4562H29.4504C29.6948 21.4562 29.913 21.3024 29.995 21.0721L31.4274 17.0528L32.796 21.0648C32.8756 21.298 33.0944 21.4552 33.3408 21.4563H33.3432C33.5888 21.4563 33.8076 21.3011 33.8889 21.0692L35.8305 15.5301C35.9361 15.2288 35.7774 14.8988 35.476 14.7931C35.1748 14.6875 34.8447 14.8462 34.739 15.1476L33.3506 19.1088L31.9865 15.1101C31.832 14.602 31.0558 14.5973 30.8946 15.1027L29.4603 19.1276L28.0959 15.1574C27.9921 14.8554 27.6636 14.6946 27.3612 14.7985C27.0592 14.9023 26.8984 15.2313 27.0023 15.5332L28.9036 21.0659C28.9834 21.2982 29.2014 21.4547 29.4472 21.4562Z" fill="#333333" stroke="black" stroke-width="0.3"/>
</svg>
