<svg width="51" height="39" viewBox="0 0 51 39" fill="none" xmlns="http://www.w3.org/2000/svg">
<path d="M43.3022 0.461426H3.4616C2.11716 0.461426 1.02344 1.55515 1.02344 2.89959V29.46C1.02344 30.8044 2.11716 31.8982 3.4616 31.8982H17.5203L16.8848 36.982H15.9118C15.4821 36.982 15.1336 37.3304 15.1336 37.7602C15.1336 38.1899 15.482 38.5383 15.9118 38.5383H20.0618C20.4916 38.5383 20.84 38.19 20.84 37.7602C20.84 37.3305 20.4917 36.982 20.0618 36.982H18.4533L19.0888 31.8982H20.0618C20.4916 31.8982 20.84 31.5498 20.84 31.12C20.84 30.6903 20.4917 30.3418 20.0618 30.3418H3.4616C2.97531 30.3418 2.57967 29.9462 2.57967 29.4599V26.918H20.0618C20.4916 26.918 20.84 26.5696 20.84 26.1398C20.84 25.71 20.4917 25.3617 20.0618 25.3617H2.57967V2.89959C2.57967 2.41329 2.97531 2.01766 3.4616 2.01766H43.3022C43.7885 2.01766 44.1841 2.41329 44.1841 2.89959V19.4998C44.1841 19.9295 44.5325 20.278 44.9623 20.278C45.392 20.278 45.7404 19.9296 45.7404 19.4998V2.89959C45.7403 1.55515 44.6466 0.461426 43.3022 0.461426Z" fill="#333333" stroke="black" stroke-width="0.3"/>
<path d="M36.6599 15.4014H25.0397C23.6953 15.4014 22.6016 16.4951 22.6016 17.8395V36.0998C22.6016 37.4442 23.6953 38.5379 25.0397 38.5379H36.6599C38.0043 38.5379 39.0981 37.4442 39.0981 36.0998V17.8395C39.0981 16.4951 38.0043 15.4014 36.6599 15.4014ZM37.5418 36.0998C37.5418 36.5861 37.1462 36.9817 36.6599 36.9817H25.0397C24.5534 36.9817 24.1578 36.5861 24.1578 36.0998V35.2179H37.5417V36.0998H37.5418ZM37.5418 33.6616H24.1578V20.2777H37.5417V33.6616H37.5418ZM37.5418 18.7214H24.1578V17.8394C24.1578 17.3531 24.5534 16.9575 25.0397 16.9575H36.6599C37.1462 16.9575 37.5418 17.3531 37.5418 17.8394V18.7214Z" fill="#333333" stroke="black" stroke-width="0.3"/>
<path d="M48.2796 22.0396H43.2995C41.9551 22.0396 40.8613 23.1333 40.8613 24.4777V36.0979C40.8613 37.4423 41.9551 38.536 43.2995 38.536H48.2796C49.624 38.536 50.7177 37.4423 50.7177 36.0979V24.4777C50.7177 23.1333 49.624 22.0396 48.2796 22.0396ZM49.1615 36.0979C49.1615 36.5842 48.7659 36.9798 48.2796 36.9798H43.2995C42.8132 36.9798 42.4176 36.5842 42.4176 36.0979V35.216H49.1614V36.0979H49.1615ZM49.1615 33.6597H42.4177V26.9159H49.1615V33.6597ZM49.1615 25.3596H42.4177V24.4777C42.4177 23.9914 42.8133 23.5958 43.2996 23.5958H48.2797C48.766 23.5958 49.1616 23.9914 49.1616 24.4777V25.3596H49.1615Z" fill="#333333" stroke="black" stroke-width="0.3"/>
</svg>
