<svg width="43" height="39" viewBox="0 0 43 39" fill="none" xmlns="http://www.w3.org/2000/svg">
<path d="M11.6081 13.9458C11.0794 13.9458 10.6504 14.3743 10.6504 14.9035V18.9893C10.6504 19.5185 11.0794 19.947 11.6081 19.947H23.8657C24.3943 19.947 24.8234 19.5185 24.8234 18.9893V14.9035C24.8234 14.3743 24.3943 13.9458 23.8657 13.9458H11.6081ZM22.908 18.0317H12.5658V15.8612H22.908V18.0317Z" fill="#333333"/>
<path d="M27.7958 38.3205C27.8482 38.3289 27.9005 38.3334 27.9533 38.3334C28.042 38.3334 28.1307 38.321 28.2164 38.2965L35.3666 36.2536C35.4234 36.2372 35.4788 36.2157 35.5321 36.1893L41.6609 33.1249C41.9852 32.9625 42.19 32.6311 42.19 32.2684C42.19 31.5354 41.8941 30.5857 41.1686 29.9529V12.3075C41.1686 11.7783 40.74 11.3498 40.2109 11.3498C39.6822 11.3498 39.2532 11.7783 39.2532 12.3075V29.2693C39.2318 29.2693 39.2113 29.2678 39.1894 29.2678C37.2073 29.2678 34.6397 30.7801 33.7996 31.3107H29.3106L26.5975 29.1402H31.0177C31.5464 29.1402 31.9754 28.7117 31.9754 28.1825V26.1396C31.9754 24.4848 30.629 23.139 28.9748 23.139H19.7816C19.5274 23.139 19.2838 23.2396 19.1044 23.4195L15.2991 27.2249H13.589V27.1611C13.589 26.6319 13.16 26.2034 12.6313 26.2034H8.48167V2.58212H19.8453V9.79616C19.8453 10.4384 20.4956 10.9078 21.106 10.7045L23.8674 9.7842L26.6289 10.7045C27.2393 10.9078 27.8895 10.4384 27.8895 9.79616V2.58212H39.2532V7.71087C39.2532 8.23955 39.6817 8.66806 40.2109 8.66806C40.74 8.66806 41.1686 8.23955 41.1686 7.71087V1.62443C41.1686 1.09527 40.74 0.666748 40.2109 0.666748H7.52398C6.99531 0.666748 6.56629 1.09527 6.56629 1.62443V26.2034H1.39519C0.866017 26.2034 0.4375 26.6319 0.4375 27.1611C0.4375 27.6902 0.866017 28.1188 1.39519 28.1188H11.6736V36.418H1.39519C0.866017 36.418 0.4375 36.8466 0.4375 37.3757C0.4375 37.9049 0.866017 38.3334 1.39519 38.3334H12.6313C13.16 38.3334 13.589 37.9049 13.589 37.3757V36.2905H15.616L27.7958 38.3205ZM25.9741 2.58212V8.46776L24.1704 7.86634C23.9751 7.80106 23.7598 7.80106 23.5645 7.86634L21.7607 8.46776V2.58212H25.9741ZM13.589 29.1402H15.6957C15.9473 29.1402 16.194 29.0366 16.3729 28.8597L20.1782 25.0544H28.9748C29.5732 25.0544 30.06 25.5412 30.06 26.1396V27.2249H23.8674C23.4728 27.2249 23.113 27.477 22.9725 27.8437C22.8275 28.2229 22.9481 28.6783 23.269 28.9305L28.3763 33.0163C28.5462 33.1518 28.7575 33.2261 28.9748 33.2261H34.0821C34.2709 33.2261 34.4558 33.1703 34.6132 33.0651C35.3985 32.5415 37.7514 31.1832 39.1894 31.1832C39.7545 31.1832 40.031 31.4413 40.1625 31.7328L34.7548 34.4364L27.898 36.3956L15.8532 34.3881C15.8437 34.3866 15.8347 34.3861 15.8258 34.3851C15.8083 34.3826 15.7914 34.3806 15.7744 34.3791C15.7575 34.3776 15.7406 34.3771 15.7241 34.3766C15.7146 34.3761 15.7052 34.3751 15.6957 34.3751H13.589V29.1402Z" fill="#333333"/>
</svg>
