<svg width="328" height="125" viewBox="0 0 328 125" fill="none" xmlns="http://www.w3.org/2000/svg">
<path d="M-2.62268e-06 60L-8.74228e-07 20L34.9988 1.52985e-06L70 20L70 60L34.9988 80L-2.62268e-06 60Z" fill="#E31F23"/>
<path d="M21.7578 26.7578H23.235V25H20V28.235H21.7578V26.7578Z" fill="white"/>
<path d="M20 30.3529H21.7578V33.5879H20V30.3529Z" fill="white"/>
<path d="M20 35.7061H21.7578V38.9411H20V35.7061Z" fill="white"/>
<path d="M41.412 25H44.6469V26.7578H41.412V25Z" fill="white"/>
<path d="M36.0586 25H39.2936V26.7578H36.0586V25Z" fill="white"/>
<path d="M30.7051 25H33.94V26.7578H30.7051V25Z" fill="white"/>
<path d="M25.3535 25H28.5885V26.7578H25.3535V25Z" fill="white"/>
<path d="M46.7656 25V26.7578H48.2428V28.235H50.0006V25H46.7656Z" fill="white"/>
<path d="M48.2422 30.3529H50V33.5879H48.2422V30.3529Z" fill="white"/>
<path d="M48.2422 35.7061H50V38.9411H48.2422V35.7061Z" fill="white"/>
<path d="M48.2422 41.0591H50V44.2941H48.2422V41.0591Z" fill="white"/>
<path d="M48.2422 46.412H50V49.647H48.2422V46.412Z" fill="white"/>
<path d="M48.2428 53.2423H46.7656V55.0002H50.0006V51.7651H48.2428V53.2423Z" fill="white"/>
<path d="M41.412 53.2422H44.6469V55H41.412V53.2422Z" fill="white"/>
<path d="M36.0586 53.2422H39.2936V55H36.0586V53.2422Z" fill="white"/>
<path d="M20 41.0591H33.941V55.0001H20V41.0591Z" fill="white"/>
<path d="M41.0921 31.793H41.9645L37.2461 36.5114V35.6389H35.4883V39.5122H39.3615V37.7544H38.489L43.2075 33.0359V33.9084H44.9653V30.0352H41.0921V31.793Z" fill="white"/>
<path d="M103.836 32.946V30.57C104.292 30.762 104.742 30.858 105.186 30.858C105.594 30.858 105.912 30.756 106.14 30.552C106.368 30.336 106.482 30.072 106.482 29.76C106.482 29.652 106.47 29.544 106.446 29.436C106.422 29.328 106.386 29.208 106.338 29.076C106.29 28.944 106.248 28.842 106.212 28.77C106.176 28.686 106.116 28.566 106.032 28.41C105.96 28.254 105.912 28.152 105.888 28.104L102.126 20.184H105.24L108.138 26.934L110.982 20.184H113.988L109.668 29.616C109.056 30.96 108.444 31.902 107.832 32.442C107.22 32.97 106.41 33.234 105.402 33.234C104.838 33.234 104.316 33.138 103.836 32.946ZM122.811 33H120.273V29.094H116.691V33H114.153V23.712H116.691V27.078H120.273V23.712H122.811V33ZM133.48 33H131.032V26.718L127.72 33H124.822V23.712H127.27V29.994L130.582 23.712H133.48V33ZM135.42 23.712H140.766C141.642 23.712 142.356 23.91 142.908 24.306C143.46 24.69 143.736 25.272 143.736 26.052C143.736 26.94 143.316 27.576 142.476 27.96C143.604 28.284 144.168 29.04 144.168 30.228C144.168 31.104 143.868 31.788 143.268 32.28C142.68 32.76 141.93 33 141.018 33H135.42V23.712ZM137.94 27.438H139.632C140.64 27.438 141.144 27.084 141.144 26.376C141.144 25.968 141.006 25.692 140.73 25.548C140.466 25.404 140.1 25.332 139.632 25.332H137.94V27.438ZM137.94 31.344H139.83C140.358 31.344 140.772 31.26 141.072 31.092C141.372 30.924 141.522 30.6 141.522 30.12C141.522 29.628 141.36 29.298 141.036 29.13C140.712 28.962 140.274 28.878 139.722 28.878H137.94V31.344ZM154.522 30.12C154.234 31.116 153.7 31.89 152.92 32.442C152.152 32.994 151.234 33.27 150.166 33.27C148.738 33.27 147.586 32.826 146.71 31.938C145.846 31.05 145.414 29.874 145.414 28.41C145.414 26.97 145.852 25.782 146.728 24.846C147.604 23.91 148.72 23.442 150.076 23.442C151.48 23.442 152.596 23.922 153.424 24.882C154.252 25.83 154.666 27.12 154.666 28.752V29.004H148.006C148.018 29.808 148.21 30.42 148.582 30.84C148.966 31.26 149.5 31.47 150.184 31.47C151.084 31.47 151.714 31.02 152.074 30.12H154.522ZM152.074 27.384C152.014 26.772 151.816 26.274 151.48 25.89C151.144 25.494 150.676 25.296 150.076 25.296C149.512 25.296 149.044 25.482 148.672 25.854C148.3 26.226 148.078 26.736 148.006 27.384H152.074ZM158.54 23.712V24.864C159.212 23.928 160.172 23.46 161.42 23.46C162.668 23.46 163.67 23.91 164.426 24.81C165.182 25.71 165.56 26.91 165.56 28.41C165.56 29.862 165.188 31.032 164.444 31.92C163.712 32.796 162.74 33.234 161.528 33.234C160.28 33.234 159.326 32.772 158.666 31.848V36.294H156.128V23.712H158.54ZM160.79 25.512C160.094 25.512 159.548 25.764 159.152 26.268C158.768 26.772 158.576 27.474 158.576 28.374C158.576 29.274 158.774 29.976 159.17 30.48C159.566 30.984 160.112 31.236 160.808 31.236C161.492 31.236 162.026 30.984 162.41 30.48C162.806 29.976 163.004 29.286 163.004 28.41C163.004 27.51 162.806 26.802 162.41 26.286C162.014 25.77 161.474 25.512 160.79 25.512ZM175.988 29.418C175.832 30.618 175.358 31.554 174.566 32.226C173.786 32.898 172.778 33.234 171.542 33.234C170.114 33.234 168.968 32.796 168.104 31.92C167.24 31.044 166.808 29.88 166.808 28.428C166.808 26.928 167.24 25.722 168.104 24.81C168.98 23.898 170.138 23.442 171.578 23.442C172.814 23.442 173.822 23.76 174.602 24.396C175.382 25.02 175.826 25.872 175.934 26.952H173.432C173.24 25.884 172.628 25.35 171.596 25.35C170.9 25.35 170.354 25.62 169.958 26.16C169.574 26.688 169.382 27.426 169.382 28.374C169.382 29.298 169.568 30.018 169.94 30.534C170.324 31.038 170.858 31.29 171.542 31.29C172.658 31.29 173.318 30.666 173.522 29.418H175.988ZM186.108 33H183.516C183.432 32.76 183.372 32.46 183.336 32.1C182.556 32.88 181.554 33.27 180.33 33.27C179.298 33.27 178.488 33.024 177.9 32.532C177.312 32.028 177.018 31.338 177.018 30.462C177.018 30.066 177.066 29.718 177.162 29.418C177.27 29.118 177.438 28.866 177.666 28.662C177.906 28.458 178.128 28.29 178.332 28.158C178.548 28.026 178.842 27.918 179.214 27.834C179.586 27.75 179.886 27.69 180.114 27.654C180.342 27.606 180.66 27.558 181.068 27.51C181.968 27.39 182.568 27.264 182.868 27.132C183.18 27 183.336 26.754 183.336 26.394C183.336 25.566 182.778 25.152 181.662 25.152C181.074 25.152 180.642 25.26 180.366 25.476C180.09 25.68 179.91 26.046 179.826 26.574H177.432C177.576 24.486 179.01 23.442 181.734 23.442C184.434 23.442 185.784 24.45 185.784 26.466V30.48C185.784 31.656 185.892 32.496 186.108 33ZM183.318 28.482C183.018 28.662 182.418 28.824 181.518 28.968C180.762 29.088 180.27 29.238 180.042 29.418C179.778 29.634 179.646 29.946 179.646 30.354C179.646 30.738 179.766 31.044 180.006 31.272C180.258 31.488 180.606 31.596 181.05 31.596C181.734 31.596 182.28 31.416 182.688 31.056C183.108 30.684 183.318 30.174 183.318 29.526V28.482ZM196.444 33H193.906V25.674H191.458L191.35 28.95C191.338 29.31 191.326 29.598 191.314 29.814C191.302 30.018 191.266 30.294 191.206 30.642C191.158 30.99 191.098 31.272 191.026 31.488C190.954 31.692 190.84 31.926 190.684 32.19C190.54 32.442 190.366 32.64 190.162 32.784C189.97 32.916 189.718 33.03 189.406 33.126C189.094 33.234 188.746 33.288 188.362 33.288C187.738 33.288 187.276 33.228 186.976 33.108V31.074C187.276 31.134 187.516 31.164 187.696 31.164C188.428 31.164 188.812 30.522 188.848 29.238L188.992 23.712H196.444V33ZM206.808 29.94C206.808 30.936 206.484 31.698 205.836 32.226C205.2 32.742 204.354 33 203.298 33H198.42V23.712H200.94V26.898H203.406C204.39 26.898 205.2 27.162 205.836 27.69C206.484 28.218 206.808 28.968 206.808 29.94ZM200.94 28.626V31.236H202.686C203.718 31.236 204.234 30.804 204.234 29.94C204.234 29.508 204.09 29.184 203.802 28.968C203.514 28.74 203.136 28.626 202.668 28.626H200.94ZM216.836 33H214.298V29.094H210.716V33H208.178V23.712H210.716V27.078H214.298V23.712H216.836V33ZM227.794 23.712H230.332V33H227.794V23.712ZM226.624 29.94C226.624 30.936 226.3 31.698 225.652 32.226C225.016 32.742 224.17 33 223.114 33H218.686V23.712H221.206V26.898H223.222C224.206 26.898 225.016 27.162 225.652 27.69C226.3 28.218 226.624 28.968 226.624 29.94ZM221.206 28.626V31.236H222.502C223.534 31.236 224.05 30.804 224.05 29.94C224.05 29.508 223.906 29.184 223.618 28.968C223.33 28.74 222.952 28.626 222.484 28.626H221.206ZM238.436 20.184H239.444C239.444 21.912 238.466 22.776 236.51 22.776C234.554 22.776 233.576 21.912 233.576 20.184H234.584C234.74 20.976 235.382 21.372 236.51 21.372C237.638 21.372 238.28 20.976 238.436 20.184ZM240.848 33H238.4V26.718L235.088 33H232.19V23.712H234.638V29.994L237.95 23.712H240.848V33ZM111.666 56H109.218V49.718L105.906 56H103.008V46.712H105.456V52.994L108.768 46.712H111.666V56ZM122.336 56H119.798V52.094H116.216V56H113.678V46.712H116.216V50.078H119.798V46.712H122.336V56ZM133.168 52.418C133.012 53.618 132.538 54.554 131.746 55.226C130.966 55.898 129.958 56.234 128.722 56.234C127.294 56.234 126.148 55.796 125.284 54.92C124.42 54.044 123.988 52.88 123.988 51.428C123.988 49.928 124.42 48.722 125.284 47.81C126.16 46.898 127.318 46.442 128.758 46.442C129.994 46.442 131.002 46.76 131.782 47.396C132.562 48.02 133.006 48.872 133.114 49.952H130.612C130.42 48.884 129.808 48.35 128.776 48.35C128.08 48.35 127.534 48.62 127.138 49.16C126.754 49.688 126.562 50.426 126.562 51.374C126.562 52.298 126.748 53.018 127.12 53.534C127.504 54.038 128.038 54.29 128.722 54.29C129.838 54.29 130.498 53.666 130.702 52.418H133.168ZM142.197 48.674H139.137V56H136.599V48.674H133.539V46.712H142.197V48.674ZM145.743 46.712V47.864C146.415 46.928 147.375 46.46 148.623 46.46C149.871 46.46 150.873 46.91 151.629 47.81C152.385 48.71 152.763 49.91 152.763 51.41C152.763 52.862 152.391 54.032 151.647 54.92C150.915 55.796 149.943 56.234 148.731 56.234C147.483 56.234 146.529 55.772 145.869 54.848V59.294H143.331V46.712H145.743ZM147.993 48.512C147.297 48.512 146.751 48.764 146.355 49.268C145.971 49.772 145.779 50.474 145.779 51.374C145.779 52.274 145.977 52.976 146.373 53.48C146.769 53.984 147.315 54.236 148.011 54.236C148.695 54.236 149.229 53.984 149.613 53.48C150.009 52.976 150.207 52.286 150.207 51.41C150.207 50.51 150.009 49.802 149.613 49.286C149.217 48.77 148.677 48.512 147.993 48.512ZM162.566 46.712L159.146 55.964C158.978 56.432 158.852 56.756 158.768 56.936C158.696 57.128 158.576 57.392 158.408 57.728C158.252 58.064 158.102 58.298 157.958 58.43C157.826 58.562 157.64 58.712 157.4 58.88C157.172 59.048 156.908 59.162 156.608 59.222C156.32 59.282 155.984 59.312 155.6 59.312C155.288 59.312 154.718 59.306 153.89 59.294V57.188H155.132C155.552 57.188 155.87 57.08 156.086 56.864C156.314 56.648 156.428 56.342 156.428 55.946C156.428 55.85 156.404 55.73 156.356 55.586L152.99 46.712H155.744L157.868 53.03L159.92 46.712H162.566ZM174.474 56H172.062V48.944H172.008L170.19 56H167.778L165.96 48.944H165.906V56H163.494V46.712H167.202L168.948 53.462H169.02L170.766 46.712H174.474V56ZM185.179 53.12C184.891 54.116 184.357 54.89 183.577 55.442C182.809 55.994 181.891 56.27 180.823 56.27C179.395 56.27 178.243 55.826 177.367 54.938C176.503 54.05 176.071 52.874 176.071 51.41C176.071 49.97 176.509 48.782 177.385 47.846C178.261 46.91 179.377 46.442 180.733 46.442C182.137 46.442 183.253 46.922 184.081 47.882C184.909 48.83 185.323 50.12 185.323 51.752V52.004H178.663C178.675 52.808 178.867 53.42 179.239 53.84C179.623 54.26 180.157 54.47 180.841 54.47C181.741 54.47 182.371 54.02 182.731 53.12H185.179ZM182.731 50.384C182.671 49.772 182.473 49.274 182.137 48.89C181.801 48.494 181.333 48.296 180.733 48.296C180.169 48.296 179.701 48.482 179.329 48.854C178.957 49.226 178.735 49.736 178.663 50.384H182.731ZM195.479 56H192.941V52.094H189.359V56H186.821V46.712H189.359V50.078H192.941V46.712H195.479V56ZM205.32 48.674H202.26V56H199.722V48.674H196.662V46.712H205.32V48.674Z" fill="#222222"/>
<path d="M112.288 77.608V89H110.784V78.92H104.768V89H103.264V77.608H112.288ZM115.227 81.688C115.952 80.8987 116.939 80.504 118.187 80.504C119.435 80.504 120.406 80.8827 121.099 81.64C121.792 82.3973 122.139 83.4587 122.139 84.824C122.139 86.2213 121.792 87.3093 121.099 88.088C120.406 88.8667 119.43 89.256 118.171 89.256C116.912 89.256 115.926 88.872 115.211 88.104C114.496 87.336 114.139 86.2693 114.139 84.904C114.139 83.5493 114.502 82.4773 115.227 81.688ZM120.043 82.52C119.584 81.9333 118.955 81.64 118.155 81.64C117.355 81.64 116.72 81.9333 116.251 82.52C115.782 83.1067 115.547 83.8907 115.547 84.872C115.547 85.8853 115.776 86.68 116.235 87.256C116.704 87.8213 117.355 88.104 118.187 88.104C118.987 88.104 119.611 87.816 120.059 87.24C120.518 86.664 120.747 85.8693 120.747 84.856C120.747 83.8747 120.512 83.096 120.043 82.52ZM131.477 91.624H130.181V89H123.877V91.624H122.581V87.8H123.477C123.733 87.3093 123.968 86.552 124.181 85.528C124.405 84.4933 124.517 83.4853 124.517 82.504V80.744H130.405V87.8H131.477V91.624ZM129.045 87.8V81.944H125.845V82.632C125.845 83.6027 125.744 84.5893 125.541 85.592C125.349 86.584 125.13 87.32 124.885 87.8H129.045ZM139.449 80.744L136.569 84.552L139.785 89H138.041L135.721 85.608L133.433 89H131.785L134.889 84.648L132.025 80.744H133.753L135.753 83.576L137.801 80.744H139.449ZM141.321 81.688C142.046 80.8987 143.033 80.504 144.281 80.504C145.529 80.504 146.499 80.8827 147.193 81.64C147.886 82.3973 148.233 83.4587 148.233 84.824C148.233 86.2213 147.886 87.3093 147.193 88.088C146.499 88.8667 145.523 89.256 144.265 89.256C143.006 89.256 142.019 88.872 141.305 88.104C140.59 87.336 140.233 86.2693 140.233 84.904C140.233 83.5493 140.595 82.4773 141.321 81.688ZM146.137 82.52C145.678 81.9333 145.049 81.64 144.249 81.64C143.449 81.64 142.814 81.9333 142.345 82.52C141.875 83.1067 141.641 83.8907 141.641 84.872C141.641 85.8853 141.87 86.68 142.329 87.256C142.798 87.8213 143.449 88.104 144.281 88.104C145.081 88.104 145.705 87.816 146.153 87.24C146.611 86.664 146.841 85.8693 146.841 84.856C146.841 83.8747 146.606 83.096 146.137 82.52ZM157.571 91.624H156.275V89H149.971V91.624H148.675V87.8H149.571C149.827 87.3093 150.062 86.552 150.275 85.528C150.499 84.4933 150.611 83.4853 150.611 82.504V80.744H156.499V87.8H157.571V91.624ZM155.139 87.8V81.944H151.939V82.632C151.939 83.6027 151.838 84.5893 151.635 85.592C151.443 86.584 151.224 87.32 150.979 87.8H155.139ZM160.502 89H158.758V80.744H160.118V87.48H160.15L163.862 80.744H165.606V89H164.246V82.264H164.214L160.502 89ZM173.969 81.944H171.009V89H169.649V81.944H166.689V80.744H173.969V81.944ZM187.508 91.624H186.212V89H179.908V91.624H178.612V87.8H179.508C179.764 87.3093 179.999 86.552 180.212 85.528C180.436 84.4933 180.548 83.4853 180.548 82.504V80.744H186.436V87.8H187.508V91.624ZM185.076 87.8V81.944H181.876V82.632C181.876 83.6027 181.775 84.5893 181.572 85.592C181.38 86.584 181.162 87.32 180.916 87.8H185.076ZM195.576 80.744V89H194.216V81.944H191.272L191.16 85.592C191.128 86.8507 190.899 87.7627 190.472 88.328C190.045 88.8933 189.512 89.176 188.872 89.176C188.477 89.176 188.152 89.1173 187.896 89V87.896C188.035 87.9707 188.275 88.008 188.616 88.008C188.936 88.008 189.208 87.8373 189.432 87.496C189.667 87.144 189.795 86.5573 189.816 85.736L189.96 80.744H195.576ZM204.115 89H202.755V85.624H200.947L198.339 89H196.53L199.379 85.576C198.771 85.48 198.275 85.224 197.891 84.808C197.517 84.3813 197.331 83.8373 197.331 83.176C197.331 82.408 197.56 81.8107 198.019 81.384C198.477 80.9573 199.112 80.744 199.923 80.744H204.115V89ZM202.755 81.944H200.355C199.267 81.944 198.723 82.3547 198.723 83.176C198.723 84.008 199.267 84.424 200.355 84.424H202.755V81.944ZM218.633 91.624H217.337V89H211.033V91.624H209.737V87.8H210.633C210.889 87.3093 211.124 86.552 211.337 85.528C211.561 84.4933 211.673 83.4853 211.673 82.504V80.744H217.561V87.8H218.633V91.624ZM216.201 87.8V81.944H213.001V82.632C213.001 83.6027 212.9 84.5893 212.697 85.592C212.505 86.584 212.287 87.32 212.041 87.8H216.201ZM226.877 86.392C226.461 88.312 225.261 89.272 223.277 89.272C222.061 89.272 221.106 88.8933 220.413 88.136C219.73 87.3787 219.389 86.328 219.389 84.984C219.389 83.6507 219.741 82.5733 220.445 81.752C221.16 80.92 222.088 80.504 223.229 80.504C224.498 80.504 225.437 80.936 226.045 81.8C226.664 82.6533 226.973 83.736 226.973 85.048V85.24H220.765L220.749 85.336C220.749 86.2107 220.978 86.8987 221.437 87.4C221.896 87.9013 222.525 88.152 223.325 88.152C223.922 88.152 224.392 88.0133 224.733 87.736C225.085 87.4587 225.357 87.0107 225.549 86.392H226.877ZM225.565 84.136C225.501 83.3467 225.261 82.7333 224.845 82.296C224.429 81.848 223.88 81.624 223.197 81.624C222.536 81.624 221.986 81.848 221.549 82.296C221.112 82.744 220.85 83.3573 220.765 84.136H225.565ZM229.695 80.744V81.912C230.292 80.9627 231.22 80.488 232.479 80.488C233.631 80.488 234.543 80.8773 235.215 81.656C235.897 82.4347 236.239 83.4907 236.239 84.824C236.239 86.1573 235.903 87.224 235.231 88.024C234.569 88.8133 233.673 89.208 232.543 89.208C231.359 89.208 230.436 88.7547 229.775 87.848V92.184H228.415V80.744H229.695ZM232.271 81.624C231.481 81.624 230.857 81.912 230.399 82.488C229.951 83.0533 229.727 83.8373 229.727 84.84C229.727 85.8427 229.956 86.632 230.415 87.208C230.884 87.7733 231.519 88.056 232.319 88.056C233.097 88.056 233.711 87.768 234.159 87.192C234.607 86.616 234.831 85.832 234.831 84.84C234.831 83.8373 234.601 83.0533 234.143 82.488C233.695 81.912 233.071 81.624 232.271 81.624ZM244.955 86.392C244.539 88.312 243.339 89.272 241.355 89.272C240.139 89.272 239.184 88.8933 238.491 88.136C237.808 87.3787 237.467 86.328 237.467 84.984C237.467 83.6507 237.819 82.5733 238.523 81.752C239.238 80.92 240.166 80.504 241.307 80.504C242.576 80.504 243.515 80.936 244.123 81.8C244.742 82.6533 245.051 83.736 245.051 85.048V85.24H238.843L238.827 85.336C238.827 86.2107 239.056 86.8987 239.515 87.4C239.974 87.9013 240.603 88.152 241.403 88.152C242 88.152 242.47 88.0133 242.811 87.736C243.163 87.4587 243.435 87.0107 243.627 86.392H244.955ZM243.643 84.136C243.579 83.3467 243.339 82.7333 242.923 82.296C242.507 81.848 241.958 81.624 241.275 81.624C240.614 81.624 240.064 81.848 239.627 82.296C239.19 82.744 238.928 83.3573 238.843 84.136H243.643ZM246.461 89V80.744H250.285C250.829 80.744 251.293 80.792 251.677 80.888C252.061 80.9733 252.397 81.1707 252.685 81.48C252.973 81.7893 253.117 82.2107 253.117 82.744C253.117 83.5547 252.711 84.1467 251.901 84.52V84.536C252.391 84.632 252.775 84.8613 253.053 85.224C253.33 85.576 253.469 86.024 253.469 86.568C253.469 87.272 253.234 87.8533 252.765 88.312C252.295 88.7707 251.693 89 250.957 89H246.461ZM250.141 84.072C250.706 84.072 251.106 83.9813 251.341 83.8C251.586 83.608 251.709 83.3307 251.709 82.968C251.709 82.6053 251.591 82.3387 251.357 82.168C251.122 81.9973 250.717 81.912 250.141 81.912H247.789V84.072H250.141ZM247.789 85.224V87.832H250.701C251.127 87.832 251.458 87.704 251.693 87.448C251.938 87.192 252.061 86.8613 252.061 86.456C252.061 85.6347 251.527 85.224 250.461 85.224H247.789ZM262.399 87.912V88.968C262.121 89.0747 261.812 89.128 261.471 89.128C260.692 89.128 260.292 88.7227 260.271 87.912C259.492 88.7867 258.495 89.224 257.279 89.224C256.468 89.224 255.823 89.016 255.343 88.6C254.873 88.184 254.639 87.6133 254.639 86.888C254.639 85.416 255.615 84.5573 257.567 84.312C258.719 84.1733 259.385 84.072 259.567 84.008C259.951 83.88 260.159 83.6133 260.191 83.208C260.201 83.144 260.207 83.0747 260.207 83C260.207 82.0933 259.583 81.64 258.335 81.64C257.695 81.64 257.209 81.7733 256.879 82.04C256.548 82.296 256.351 82.7227 256.287 83.32H254.959C254.98 82.4347 255.295 81.7467 255.903 81.256C256.511 80.7653 257.348 80.52 258.415 80.52C259.577 80.52 260.441 80.7867 261.007 81.32C261.188 81.4907 261.321 81.7147 261.407 81.992C261.492 82.2693 261.54 82.4987 261.551 82.68C261.561 82.8507 261.567 83.112 261.567 83.464C261.567 83.88 261.556 84.4987 261.535 85.32C261.513 86.1307 261.503 86.7387 261.503 87.144C261.503 87.4427 261.54 87.656 261.615 87.784C261.7 87.9013 261.849 87.96 262.062 87.96C262.148 87.96 262.26 87.944 262.399 87.912ZM260.207 84.712C260.111 84.7867 260.009 84.8507 259.903 84.904C259.796 84.9573 259.657 85 259.487 85.032C259.327 85.064 259.215 85.0907 259.151 85.112C259.097 85.1227 258.959 85.144 258.735 85.176C258.511 85.1973 258.393 85.208 258.383 85.208C258.052 85.2507 257.833 85.2827 257.727 85.304C257.631 85.3147 257.439 85.3573 257.151 85.432C256.873 85.5067 256.676 85.592 256.559 85.688C256.441 85.784 256.324 85.928 256.207 86.12C256.1 86.3013 256.047 86.52 256.047 86.776C256.047 87.2027 256.191 87.5387 256.479 87.784C256.777 88.0293 257.183 88.152 257.695 88.152C258.345 88.152 258.927 87.96 259.439 87.576C259.951 87.192 260.207 86.7387 260.207 86.216V84.712ZM268.101 89V80.744H271.925C272.469 80.744 272.933 80.792 273.317 80.888C273.701 80.9733 274.037 81.1707 274.325 81.48C274.613 81.7893 274.757 82.2107 274.757 82.744C274.757 83.5547 274.352 84.1467 273.541 84.52V84.536C274.032 84.632 274.416 84.8613 274.693 85.224C274.971 85.576 275.109 86.024 275.109 86.568C275.109 87.272 274.875 87.8533 274.405 88.312C273.936 88.7707 273.333 89 272.597 89H268.101ZM271.781 84.072C272.347 84.072 272.747 83.9813 272.981 83.8C273.227 83.608 273.349 83.3307 273.349 82.968C273.349 82.6053 273.232 82.3387 272.997 82.168C272.763 81.9973 272.357 81.912 271.781 81.912H269.429V84.072H271.781ZM269.429 85.224V87.832H272.341C272.768 87.832 273.099 87.704 273.333 87.448C273.579 87.192 273.701 86.8613 273.701 86.456C273.701 85.6347 273.168 85.224 272.101 85.224H269.429ZM283.831 85.992C283.714 86.984 283.335 87.7733 282.695 88.36C282.066 88.9467 281.244 89.24 280.231 89.24C278.983 89.24 278.018 88.856 277.335 88.088C276.652 87.3093 276.311 86.2747 276.311 84.984C276.311 83.608 276.668 82.52 277.383 81.72C278.098 80.9093 279.063 80.504 280.279 80.504C281.292 80.504 282.103 80.76 282.711 81.272C283.319 81.7733 283.676 82.4933 283.783 83.432H282.375C282.13 82.2373 281.436 81.64 280.295 81.64C279.506 81.64 278.882 81.9333 278.423 82.52C277.964 83.096 277.735 83.88 277.735 84.872C277.735 85.8747 277.954 86.664 278.391 87.24C278.828 87.816 279.431 88.104 280.199 88.104C280.818 88.104 281.319 87.9227 281.703 87.56C282.098 87.1973 282.348 86.6747 282.455 85.992H283.831ZM292.377 86.392C291.961 88.312 290.761 89.272 288.777 89.272C287.561 89.272 286.606 88.8933 285.913 88.136C285.23 87.3787 284.889 86.328 284.889 84.984C284.889 83.6507 285.241 82.5733 285.945 81.752C286.66 80.92 287.588 80.504 288.729 80.504C289.998 80.504 290.937 80.936 291.545 81.8C292.164 82.6533 292.473 83.736 292.473 85.048V85.24H286.265L286.249 85.336C286.249 86.2107 286.478 86.8987 286.937 87.4C287.396 87.9013 288.025 88.152 288.825 88.152C289.422 88.152 289.892 88.0133 290.233 87.736C290.585 87.4587 290.857 87.0107 291.049 86.392H292.377ZM291.065 84.136C291.001 83.3467 290.761 82.7333 290.345 82.296C289.929 81.848 289.38 81.624 288.697 81.624C288.036 81.624 287.486 81.848 287.049 82.296C286.612 82.744 286.35 83.3573 286.265 84.136H291.065ZM300.417 80.744L297.537 84.552L300.753 89H299.009L296.689 85.608L294.401 89H292.753L295.857 84.648L292.993 80.744H294.721L296.721 83.576L298.769 80.744H300.417ZM102.992 110V101.744H106.816C107.36 101.744 107.824 101.792 108.208 101.888C108.592 101.973 108.928 102.171 109.216 102.48C109.504 102.789 109.648 103.211 109.648 103.744C109.648 104.555 109.243 105.147 108.432 105.52V105.536C108.923 105.632 109.307 105.861 109.584 106.224C109.861 106.576 110 107.024 110 107.568C110 108.272 109.765 108.853 109.296 109.312C108.827 109.771 108.224 110 107.488 110H102.992ZM106.672 105.072C107.237 105.072 107.637 104.981 107.872 104.8C108.117 104.608 108.24 104.331 108.24 103.968C108.24 103.605 108.123 103.339 107.888 103.168C107.653 102.997 107.248 102.912 106.672 102.912H104.32V105.072H106.672ZM104.32 106.224V108.832H107.232C107.659 108.832 107.989 108.704 108.224 108.448C108.469 108.192 108.592 107.861 108.592 107.456C108.592 106.635 108.059 106.224 106.992 106.224H104.32ZM113.362 110H111.618V101.744H112.978V108.48H113.01L116.722 101.744H118.466V110H117.106V103.264H117.074L113.362 110ZM128.508 112.624H127.212V110H120.908V112.624H119.612V108.8H120.508C120.764 108.309 120.999 107.552 121.212 106.528C121.436 105.493 121.548 104.485 121.548 103.504V101.744H127.436V108.8H128.508V112.624ZM126.076 108.8V102.944H122.876V103.632C122.876 104.603 122.775 105.589 122.572 106.592C122.38 107.584 122.162 108.32 121.916 108.8H126.076ZM130.352 102.688C131.077 101.899 132.064 101.504 133.312 101.504C134.56 101.504 135.531 101.883 136.224 102.64C136.917 103.397 137.264 104.459 137.264 105.824C137.264 107.221 136.917 108.309 136.224 109.088C135.531 109.867 134.555 110.256 133.296 110.256C132.037 110.256 131.051 109.872 130.336 109.104C129.621 108.336 129.264 107.269 129.264 105.904C129.264 104.549 129.627 103.477 130.352 102.688ZM135.168 103.52C134.709 102.933 134.08 102.64 133.28 102.64C132.48 102.64 131.845 102.933 131.376 103.52C130.907 104.107 130.672 104.891 130.672 105.872C130.672 106.885 130.901 107.68 131.36 108.256C131.829 108.821 132.48 109.104 133.312 109.104C134.112 109.104 134.736 108.816 135.184 108.24C135.643 107.664 135.872 106.869 135.872 105.856C135.872 104.875 135.637 104.096 135.168 103.52ZM138.851 110V101.744H142.675C143.219 101.744 143.683 101.792 144.067 101.888C144.451 101.973 144.787 102.171 145.075 102.48C145.363 102.789 145.507 103.211 145.507 103.744C145.507 104.555 145.102 105.147 144.291 105.52V105.536C144.782 105.632 145.166 105.861 145.443 106.224C145.721 106.576 145.859 107.024 145.859 107.568C145.859 108.272 145.625 108.853 145.155 109.312C144.686 109.771 144.083 110 143.347 110H138.851ZM142.531 105.072C143.097 105.072 143.497 104.981 143.731 104.8C143.977 104.608 144.099 104.331 144.099 103.968C144.099 103.605 143.982 103.339 143.747 103.168C143.513 102.997 143.107 102.912 142.531 102.912H140.179V105.072H142.531ZM140.179 106.224V108.832H143.091C143.518 108.832 143.849 108.704 144.083 108.448C144.329 108.192 144.451 107.861 144.451 107.456C144.451 106.635 143.918 106.224 142.851 106.224H140.179ZM149.557 108.224V109.312C149.557 109.717 149.536 110.059 149.493 110.336C149.461 110.624 149.386 110.912 149.269 111.2C149.152 111.488 148.97 111.728 148.725 111.92C148.48 112.123 148.165 112.272 147.781 112.368V111.568C148.357 111.376 148.65 110.853 148.661 110H147.781V108.224H149.557ZM167.519 105.744C167.519 106.565 167.418 107.296 167.215 107.936C167.013 108.576 166.65 109.115 166.127 109.552C165.615 109.979 164.97 110.192 164.191 110.192C163.893 110.192 163.573 110.107 163.231 109.936C162.89 109.765 162.634 109.579 162.463 109.376H162.431V113.184H161.087V109.376H161.055C160.885 109.579 160.629 109.765 160.287 109.936C159.946 110.107 159.626 110.192 159.327 110.192C158.549 110.192 157.898 109.979 157.375 109.552C156.863 109.115 156.506 108.576 156.303 107.936C156.101 107.296 155.999 106.565 155.999 105.744C155.999 104.443 156.287 103.419 156.863 102.672C157.439 101.915 158.223 101.536 159.215 101.536C159.557 101.536 159.903 101.632 160.255 101.824C160.618 102.005 160.879 102.208 161.039 102.432H161.087V98.608H162.431V102.432H162.479C162.639 102.208 162.895 102.005 163.247 101.824C163.61 101.632 163.962 101.536 164.303 101.536C165.295 101.536 166.079 101.915 166.655 102.672C167.231 103.419 167.519 104.443 167.519 105.744ZM166.111 105.776C166.111 104.827 165.946 104.075 165.615 103.52C165.285 102.955 164.783 102.672 164.111 102.672C163.759 102.672 163.418 102.763 163.087 102.944C162.767 103.125 162.549 103.419 162.431 103.824V107.984C162.485 108.283 162.661 108.539 162.959 108.752C163.269 108.955 163.626 109.056 164.031 109.056C164.426 109.056 164.762 108.96 165.039 108.768C165.327 108.576 165.546 108.315 165.695 107.984C165.845 107.643 165.951 107.296 166.015 106.944C166.079 106.581 166.111 106.192 166.111 105.776ZM161.087 107.984V103.824C160.97 103.419 160.746 103.125 160.415 102.944C160.095 102.763 159.759 102.672 159.407 102.672C158.735 102.672 158.234 102.955 157.903 103.52C157.573 104.075 157.407 104.827 157.407 105.776C157.407 106.192 157.439 106.581 157.503 106.944C157.567 107.296 157.674 107.643 157.823 107.984C157.973 108.315 158.186 108.576 158.463 108.768C158.751 108.96 159.093 109.056 159.487 109.056C159.893 109.056 160.245 108.955 160.543 108.752C160.853 108.539 161.034 108.283 161.087 107.984ZM169.836 102.688C170.562 101.899 171.548 101.504 172.796 101.504C174.044 101.504 175.015 101.883 175.708 102.64C176.402 103.397 176.748 104.459 176.748 105.824C176.748 107.221 176.402 108.309 175.708 109.088C175.015 109.867 174.039 110.256 172.78 110.256C171.522 110.256 170.535 109.872 169.82 109.104C169.106 108.336 168.748 107.269 168.748 105.904C168.748 104.549 169.111 103.477 169.836 102.688ZM174.652 103.52C174.194 102.933 173.564 102.64 172.764 102.64C171.964 102.64 171.33 102.933 170.86 103.52C170.391 104.107 170.156 104.891 170.156 105.872C170.156 106.885 170.386 107.68 170.844 108.256C171.314 108.821 171.964 109.104 172.796 109.104C173.596 109.104 174.22 108.816 174.668 108.24C175.127 107.664 175.356 106.869 175.356 105.856C175.356 104.875 175.122 104.096 174.652 103.52ZM179.648 101.744V102.912C180.245 101.963 181.173 101.488 182.432 101.488C183.584 101.488 184.496 101.877 185.168 102.656C185.85 103.435 186.192 104.491 186.192 105.824C186.192 107.157 185.856 108.224 185.184 109.024C184.522 109.813 183.626 110.208 182.496 110.208C181.312 110.208 180.389 109.755 179.728 108.848V113.184H178.368V101.744H179.648ZM182.224 102.624C181.434 102.624 180.81 102.912 180.352 103.488C179.904 104.053 179.68 104.837 179.68 105.84C179.68 106.843 179.909 107.632 180.368 108.208C180.837 108.773 181.472 109.056 182.272 109.056C183.05 109.056 183.664 108.768 184.112 108.192C184.56 107.616 184.784 106.832 184.784 105.84C184.784 104.837 184.554 104.053 184.096 103.488C183.648 102.912 183.024 102.624 182.224 102.624ZM196.796 110H195.436V103.488H195.388L192.94 110H191.692L189.244 103.488H189.196V110H187.836V101.744H189.788L192.3 108.432H192.332L194.844 101.744H196.796V110ZM205.002 110H203.258V101.744H204.618V108.48H204.65L208.362 101.744H210.106V110H208.746V103.264H208.714L205.002 110ZM224.602 112.624H223.306V110H217.002V112.624H215.706V108.8H216.602C216.858 108.309 217.093 107.552 217.306 106.528C217.53 105.493 217.642 104.485 217.642 103.504V101.744H223.53V108.8H224.602V112.624ZM222.17 108.8V102.944H218.97V103.632C218.97 104.603 218.869 105.589 218.666 106.592C218.474 107.584 218.255 108.32 218.01 108.8H222.17ZM232.67 101.744V110H231.31V102.944H228.366L228.254 106.592C228.222 107.851 227.992 108.763 227.566 109.328C227.139 109.893 226.606 110.176 225.966 110.176C225.571 110.176 225.246 110.117 224.99 110V108.896C225.128 108.971 225.368 109.008 225.71 109.008C226.03 109.008 226.302 108.837 226.526 108.496C226.76 108.144 226.888 107.557 226.91 106.736L227.054 101.744H232.67ZM236.424 110H234.68V101.744H236.04V108.48H236.072L239.784 101.744H241.528V110H240.168V103.264H240.136L236.424 110ZM244.931 110H243.571V101.744H244.931V105.024H249.059V101.744H250.419V110H249.059V106.224H244.931V110ZM260.334 101.744H261.694V110H260.334V101.744ZM258.286 105.584C258.776 106.032 259.022 106.645 259.022 107.424C259.022 108.203 258.782 108.827 258.302 109.296C257.832 109.765 257.198 110 256.398 110H252.414V101.744H253.774V104.896H256.334C257.144 104.896 257.795 105.125 258.286 105.584ZM255.902 106.064H253.774V108.8H255.902C256.456 108.8 256.878 108.683 257.166 108.448C257.464 108.203 257.614 107.861 257.614 107.424C257.614 106.517 257.043 106.064 255.902 106.064Z" fill="#777777"/>
</svg>
