<svg width="345" height="140" viewBox="0 0 345 140" fill="none" xmlns="http://www.w3.org/2000/svg">
<path d="M-2.62268e-06 60L-8.74228e-07 20L34.9988 1.52985e-06L70 20L70 60L34.9988 80L-2.62268e-06 60Z" fill="#E31F23"/>
<path d="M26.3747 35.8367C26.2533 36.2106 26.3546 36.621 26.6362 36.8954L29.882 40.0596L29.1158 44.5272C29.0493 44.9146 29.2087 45.3062 29.5268 45.5373C29.7067 45.668 29.9197 45.7345 30.1339 45.7345C30.2982 45.7345 30.4632 45.6953 30.6143 45.6159L34.6267 43.5066L38.6391 45.6159C38.7901 45.6953 38.9551 45.7345 39.1196 45.7345H39.1231C39.6925 45.7334 40.1539 45.2714 40.1539 44.7018C40.1539 44.6225 40.1448 44.5453 40.1279 44.471L39.3712 40.0596L42.6173 36.8954C42.8988 36.621 43.0002 36.2106 42.8786 35.8367C42.7571 35.4628 42.434 35.1903 42.045 35.1338L37.5591 34.4821L35.553 30.4171C35.379 30.0646 35.0199 29.8414 34.6269 29.8414C34.2338 29.8414 33.8747 30.0646 33.7007 30.4171L31.6945 34.4821L27.2087 35.1338C26.8194 35.1904 26.4963 35.4629 26.3747 35.8367Z" fill="white"/>
<path d="M51.5386 37.8359C51.4339 37.8018 50.4847 37.5032 49.4007 37.5032C48.7222 37.5032 48.1271 37.6224 47.6261 37.8566C47.6161 37.6834 47.6036 37.5106 47.5868 37.3382C48.4373 37.0977 49.5962 36.6131 50.255 35.6726C51.3185 34.1539 50.8186 31.8151 50.7582 31.5534C50.6392 31.0386 50.1505 30.6967 49.6264 30.7609C49.3726 30.7919 47.2161 31.0931 46.0916 32.4312C46.0145 32.2886 45.9354 32.1468 45.8529 32.0068C45.8473 31.9974 45.8414 31.9883 45.8359 31.979C46.5048 31.4015 47.3496 30.473 47.5489 29.3429C47.8708 27.5167 46.4294 25.6085 46.264 25.3969C45.9385 24.9807 45.3515 24.8773 44.9033 25.1571C44.6866 25.2926 42.8578 26.478 42.405 28.1674C42.0003 27.8653 41.5784 27.585 41.1396 27.3311C40.6458 27.0455 40.0142 27.214 39.7284 27.7077C39.4428 28.2014 39.6115 28.8333 40.1051 29.1189C41.0326 29.6556 41.863 30.3196 42.5805 31.0806C44.4713 33.0571 45.6329 35.7369 45.6329 38.6881C45.6329 44.7671 40.7049 49.695 34.626 49.695C28.5471 49.695 23.6191 44.7671 23.6191 38.6882C23.6191 35.7392 24.779 33.0612 26.6672 31.0852C27.3857 30.3222 28.2175 29.6567 29.147 29.1189C29.6408 28.8333 29.8095 28.2015 29.5239 27.7077C29.2383 27.214 28.6065 27.0455 28.1128 27.3309C27.6739 27.5848 27.2519 27.8652 26.847 28.1673C26.3945 26.4779 24.5654 25.2924 24.3486 25.157C23.9005 24.8771 23.3134 24.9806 22.9881 25.3969C22.8227 25.6084 21.3811 27.5166 21.703 29.343C21.9024 30.4731 22.7471 31.4014 23.4161 31.9789C23.4106 31.9882 23.4047 31.9973 23.3992 32.0066C23.3166 32.1466 23.2375 32.2884 23.1605 32.4312C22.0357 31.093 19.8793 30.7919 19.6255 30.7608C19.1012 30.6967 18.6127 31.0386 18.4938 31.5534C18.4333 31.8151 17.9336 34.1539 18.9971 35.6724C19.6557 36.6131 20.8148 37.0976 21.6652 37.3382C21.6484 37.5105 21.6359 37.6834 21.6258 37.8565C21.1251 37.6224 20.5298 37.5031 19.8513 37.5031C18.7674 37.5031 17.8181 37.8017 17.7134 37.8357C17.211 37.9992 16.9129 38.5155 17.0226 39.0324C17.0784 39.2951 17.6139 41.6257 19.2198 42.553C19.7655 42.868 20.4418 43.0278 21.2298 43.0278C21.6308 43.0278 22.0131 42.9869 22.3413 42.9337C22.399 43.0975 22.4595 43.2599 22.5234 43.4206C22.5229 43.4206 22.5223 43.4205 22.5219 43.4205C20.7739 43.4205 19.15 44.8884 18.9705 45.0559C18.5842 45.4163 18.5323 46.0102 18.8501 46.4323C19.0117 46.6468 20.482 48.5332 22.3291 48.6947C22.4168 48.7023 22.5068 48.7062 22.5968 48.7062H22.597C23.6469 48.7062 24.6516 48.1767 25.3258 47.7174C25.4474 47.8416 25.5712 47.9634 25.6976 48.0827C24.109 48.8195 23.2571 50.8311 23.1611 51.0686C22.9633 51.5586 23.1673 52.1188 23.634 52.367C23.7836 52.4465 25.1375 53.145 26.5458 53.1451H26.546C26.9788 53.1451 27.3815 53.0784 27.7432 52.9469C28.8221 52.554 29.5899 51.5598 30.0425 50.8006C30.4135 50.9406 30.7926 51.064 31.1788 51.1701C30.5777 51.7812 30.0271 52.5593 29.5441 53.4925C29.2819 53.9989 29.4799 54.6222 29.9865 54.8844C30.4931 55.1464 31.1163 54.9485 31.3785 54.4419C32.3021 52.6575 33.4859 51.6342 34.6263 51.6342C35.7668 51.6342 36.9505 52.6575 37.8741 54.4419C38.0578 54.7967 38.4185 55.0001 38.7922 55.0001C38.9521 55.0001 39.1144 54.9629 39.2661 54.8843C39.7726 54.6221 39.9707 53.9989 39.7085 53.4923C39.2255 52.5591 38.6749 51.781 38.0739 51.17C38.4601 51.0639 38.839 50.9404 39.2101 50.8004C39.6625 51.5597 40.4306 52.554 41.5097 52.9469C41.871 53.0783 42.2738 53.145 42.7067 53.145C44.1149 53.145 45.4688 52.4464 45.6186 52.3667C46.0851 52.1186 46.2891 51.5584 46.0913 51.0683C45.9954 50.8309 45.1433 48.8194 43.5548 48.0825C43.6812 47.9633 43.8051 47.8415 43.9266 47.7173C44.6009 48.1766 45.6057 48.706 46.6555 48.706C46.7455 48.706 46.8354 48.7022 46.9233 48.6945C48.7703 48.533 50.2407 46.6467 50.4023 46.4321C50.72 46.0101 50.6681 45.4162 50.2818 45.0557C50.1024 44.8883 48.4785 43.4204 46.7306 43.4204C46.73 43.4204 46.7295 43.4204 46.7289 43.4204C46.793 43.2597 46.8535 43.0973 46.9112 42.9336C47.2393 42.9867 47.6217 43.0276 48.0226 43.0276C48.8105 43.0276 49.4868 42.8679 50.0329 42.5528C51.6384 41.6255 52.1741 39.295 52.2297 39.0322C52.339 38.5156 52.041 37.9993 51.5386 37.8359Z" fill="white"/>
<path d="M112.764 20.184V22.578H108.912V33H106.086V22.578H102.234V20.184H112.764ZM121.296 28.356C121.296 29.844 120.858 31.038 119.982 31.938C119.118 32.838 117.96 33.288 116.508 33.288C115.056 33.288 113.892 32.838 113.016 31.938C112.14 31.038 111.702 29.844 111.702 28.356C111.702 26.88 112.146 25.692 113.034 24.792C113.922 23.892 115.092 23.442 116.544 23.442C117.972 23.442 119.118 23.892 119.982 24.792C120.858 25.692 121.296 26.88 121.296 28.356ZM118.74 28.338C118.74 27.414 118.536 26.694 118.128 26.178C117.732 25.65 117.18 25.386 116.472 25.386C115.788 25.386 115.248 25.65 114.852 26.178C114.456 26.706 114.258 27.432 114.258 28.356C114.258 29.304 114.456 30.042 114.852 30.57C115.248 31.098 115.8 31.362 116.508 31.362C117.216 31.362 117.762 31.098 118.146 30.57C118.542 30.03 118.74 29.286 118.74 28.338ZM122.94 23.712H128.286C129.162 23.712 129.876 23.91 130.428 24.306C130.98 24.69 131.256 25.272 131.256 26.052C131.256 26.94 130.836 27.576 129.996 27.96C131.124 28.284 131.688 29.04 131.688 30.228C131.688 31.104 131.388 31.788 130.788 32.28C130.2 32.76 129.45 33 128.538 33H122.94V23.712ZM125.46 27.438H127.152C128.16 27.438 128.664 27.084 128.664 26.376C128.664 25.968 128.526 25.692 128.25 25.548C127.986 25.404 127.62 25.332 127.152 25.332H125.46V27.438ZM125.46 31.344H127.35C127.878 31.344 128.292 31.26 128.592 31.092C128.892 30.924 129.042 30.6 129.042 30.12C129.042 29.628 128.88 29.298 128.556 29.13C128.232 28.962 127.794 28.878 127.242 28.878H125.46V31.344ZM141.952 33H139.36C139.276 32.76 139.216 32.46 139.18 32.1C138.4 32.88 137.398 33.27 136.174 33.27C135.142 33.27 134.332 33.024 133.744 32.532C133.156 32.028 132.862 31.338 132.862 30.462C132.862 30.066 132.91 29.718 133.006 29.418C133.114 29.118 133.282 28.866 133.51 28.662C133.75 28.458 133.972 28.29 134.176 28.158C134.392 28.026 134.686 27.918 135.058 27.834C135.43 27.75 135.73 27.69 135.958 27.654C136.186 27.606 136.504 27.558 136.912 27.51C137.812 27.39 138.412 27.264 138.712 27.132C139.024 27 139.18 26.754 139.18 26.394C139.18 25.566 138.622 25.152 137.506 25.152C136.918 25.152 136.486 25.26 136.21 25.476C135.934 25.68 135.754 26.046 135.67 26.574H133.276C133.42 24.486 134.854 23.442 137.578 23.442C140.278 23.442 141.628 24.45 141.628 26.466V30.48C141.628 31.656 141.736 32.496 141.952 33ZM139.162 28.482C138.862 28.662 138.262 28.824 137.362 28.968C136.606 29.088 136.114 29.238 135.886 29.418C135.622 29.634 135.49 29.946 135.49 30.354C135.49 30.738 135.61 31.044 135.85 31.272C136.102 31.488 136.45 31.596 136.894 31.596C137.578 31.596 138.124 31.416 138.532 31.056C138.952 30.684 139.162 30.174 139.162 29.526V28.482ZM146.06 23.712V24.864C146.732 23.928 147.692 23.46 148.94 23.46C150.188 23.46 151.19 23.91 151.946 24.81C152.702 25.71 153.08 26.91 153.08 28.41C153.08 29.862 152.708 31.032 151.964 31.92C151.232 32.796 150.26 33.234 149.048 33.234C147.8 33.234 146.846 32.772 146.186 31.848V36.294H143.648V23.712H146.06ZM148.31 25.512C147.614 25.512 147.068 25.764 146.672 26.268C146.288 26.772 146.096 27.474 146.096 28.374C146.096 29.274 146.294 29.976 146.69 30.48C147.086 30.984 147.632 31.236 148.328 31.236C149.012 31.236 149.546 30.984 149.93 30.48C150.326 29.976 150.524 29.286 150.524 28.41C150.524 27.51 150.326 26.802 149.93 26.286C149.534 25.77 148.994 25.512 148.31 25.512ZM159.625 23.712H164.971C165.847 23.712 166.561 23.91 167.113 24.306C167.665 24.69 167.941 25.272 167.941 26.052C167.941 26.94 167.521 27.576 166.681 27.96C167.809 28.284 168.373 29.04 168.373 30.228C168.373 31.104 168.073 31.788 167.473 32.28C166.885 32.76 166.135 33 165.223 33H159.625V23.712ZM162.145 27.438H163.837C164.845 27.438 165.349 27.084 165.349 26.376C165.349 25.968 165.211 25.692 164.935 25.548C164.671 25.404 164.305 25.332 163.837 25.332H162.145V27.438ZM162.145 31.344H164.035C164.563 31.344 164.977 31.26 165.277 31.092C165.577 30.924 165.727 30.6 165.727 30.12C165.727 29.628 165.565 29.298 165.241 29.13C164.917 28.962 164.479 28.878 163.927 28.878H162.145V31.344ZM178.979 23.712H181.517V33H178.979V23.712ZM177.809 29.94C177.809 30.936 177.485 31.698 176.837 32.226C176.201 32.742 175.355 33 174.299 33H169.871V23.712H172.391V26.898H174.407C175.391 26.898 176.201 27.162 176.837 27.69C177.485 28.218 177.809 28.968 177.809 29.94ZM172.391 28.626V31.236H173.687C174.719 31.236 175.235 30.804 175.235 29.94C175.235 29.508 175.091 29.184 174.803 28.968C174.515 28.74 174.137 28.626 173.669 28.626H172.391ZM192.195 29.418C192.039 30.618 191.565 31.554 190.773 32.226C189.993 32.898 188.985 33.234 187.749 33.234C186.321 33.234 185.175 32.796 184.311 31.92C183.447 31.044 183.015 29.88 183.015 28.428C183.015 26.928 183.447 25.722 184.311 24.81C185.187 23.898 186.345 23.442 187.785 23.442C189.021 23.442 190.029 23.76 190.809 24.396C191.589 25.02 192.033 25.872 192.141 26.952H189.639C189.447 25.884 188.835 25.35 187.803 25.35C187.107 25.35 186.561 25.62 186.165 26.16C185.781 26.688 185.589 27.426 185.589 28.374C185.589 29.298 185.775 30.018 186.147 30.534C186.531 31.038 187.065 31.29 187.749 31.29C188.865 31.29 189.525 30.666 189.729 29.418H192.195ZM202.999 28.356C202.999 29.844 202.561 31.038 201.685 31.938C200.821 32.838 199.663 33.288 198.211 33.288C196.759 33.288 195.595 32.838 194.719 31.938C193.843 31.038 193.405 29.844 193.405 28.356C193.405 26.88 193.849 25.692 194.737 24.792C195.625 23.892 196.795 23.442 198.247 23.442C199.675 23.442 200.821 23.892 201.685 24.792C202.561 25.692 202.999 26.88 202.999 28.356ZM200.443 28.338C200.443 27.414 200.239 26.694 199.831 26.178C199.435 25.65 198.883 25.386 198.175 25.386C197.491 25.386 196.951 25.65 196.555 26.178C196.159 26.706 195.961 27.432 195.961 28.356C195.961 29.304 196.159 30.042 196.555 30.57C196.951 31.098 197.503 31.362 198.211 31.362C198.919 31.362 199.465 31.098 199.849 30.57C200.245 30.03 200.443 29.286 200.443 28.338ZM214.165 33H211.069L208.387 29.004L207.253 30.156V33H204.751V23.712H207.253V27.384L210.655 23.712H213.661L210.061 27.312L214.165 33ZM224.023 28.356C224.023 29.844 223.585 31.038 222.709 31.938C221.845 32.838 220.687 33.288 219.235 33.288C217.783 33.288 216.619 32.838 215.743 31.938C214.867 31.038 214.429 29.844 214.429 28.356C214.429 26.88 214.873 25.692 215.761 24.792C216.649 23.892 217.819 23.442 219.271 23.442C220.699 23.442 221.845 23.892 222.709 24.792C223.585 25.692 224.023 26.88 224.023 28.356ZM221.467 28.338C221.467 27.414 221.263 26.694 220.855 26.178C220.459 25.65 219.907 25.386 219.199 25.386C218.515 25.386 217.975 25.65 217.579 26.178C217.183 26.706 216.985 27.432 216.985 28.356C216.985 29.304 217.183 30.042 217.579 30.57C217.975 31.098 218.527 31.362 219.235 31.362C219.943 31.362 220.489 31.098 220.873 30.57C221.269 30.03 221.467 29.286 221.467 28.338ZM232.758 25.674H228.276V33H225.738V23.712H232.758V25.674ZM242.708 28.356C242.708 29.844 242.27 31.038 241.394 31.938C240.53 32.838 239.372 33.288 237.92 33.288C236.468 33.288 235.304 32.838 234.428 31.938C233.552 31.038 233.114 29.844 233.114 28.356C233.114 26.88 233.558 25.692 234.446 24.792C235.334 23.892 236.504 23.442 237.956 23.442C239.384 23.442 240.53 23.892 241.394 24.792C242.27 25.692 242.708 26.88 242.708 28.356ZM240.152 28.338C240.152 27.414 239.948 26.694 239.54 26.178C239.144 25.65 238.592 25.386 237.884 25.386C237.2 25.386 236.66 25.65 236.264 26.178C235.868 26.706 235.67 27.432 235.67 28.356C235.67 29.304 235.868 30.042 236.264 30.57C236.66 31.098 237.212 31.362 237.92 31.362C238.628 31.362 239.174 31.098 239.558 30.57C239.954 30.03 240.152 29.286 240.152 28.338ZM258.884 33H255.788L253.106 29.004L251.972 30.156V33H249.47V23.712H251.972V27.384L255.374 23.712H258.38L254.78 27.312L258.884 33ZM268.374 33H265.782C265.698 32.76 265.638 32.46 265.602 32.1C264.822 32.88 263.82 33.27 262.596 33.27C261.564 33.27 260.754 33.024 260.166 32.532C259.578 32.028 259.284 31.338 259.284 30.462C259.284 30.066 259.332 29.718 259.428 29.418C259.536 29.118 259.704 28.866 259.932 28.662C260.172 28.458 260.394 28.29 260.598 28.158C260.814 28.026 261.108 27.918 261.48 27.834C261.852 27.75 262.152 27.69 262.38 27.654C262.608 27.606 262.926 27.558 263.334 27.51C264.234 27.39 264.834 27.264 265.134 27.132C265.446 27 265.602 26.754 265.602 26.394C265.602 25.566 265.044 25.152 263.928 25.152C263.34 25.152 262.908 25.26 262.632 25.476C262.356 25.68 262.176 26.046 262.092 26.574H259.698C259.842 24.486 261.276 23.442 264 23.442C266.7 23.442 268.05 24.45 268.05 26.466V30.48C268.05 31.656 268.158 32.496 268.374 33ZM265.584 28.482C265.284 28.662 264.684 28.824 263.784 28.968C263.028 29.088 262.536 29.238 262.308 29.418C262.044 29.634 261.912 29.946 261.912 30.354C261.912 30.738 262.032 31.044 262.272 31.272C262.524 31.488 262.872 31.596 263.316 31.596C264 31.596 264.546 31.416 264.954 31.056C265.374 30.684 265.584 30.174 265.584 29.526V28.482ZM275.902 27.564V23.712H278.44V33H275.902V29.346C274.798 29.622 273.808 29.76 272.932 29.76C271.924 29.76 271.15 29.478 270.61 28.914C270.082 28.338 269.818 27.546 269.818 26.538V23.712H272.356V26.016C272.356 26.7 272.452 27.174 272.644 27.438C272.848 27.702 273.226 27.834 273.778 27.834C274.534 27.834 275.242 27.744 275.902 27.564ZM289.136 30.12C288.848 31.116 288.314 31.89 287.534 32.442C286.766 32.994 285.848 33.27 284.78 33.27C283.352 33.27 282.2 32.826 281.324 31.938C280.46 31.05 280.028 29.874 280.028 28.41C280.028 26.97 280.466 25.782 281.342 24.846C282.218 23.91 283.334 23.442 284.69 23.442C286.094 23.442 287.21 23.922 288.038 24.882C288.866 25.83 289.28 27.12 289.28 28.752V29.004H282.62C282.632 29.808 282.824 30.42 283.196 30.84C283.58 31.26 284.114 31.47 284.798 31.47C285.698 31.47 286.328 31.02 286.688 30.12H289.136ZM286.688 27.384C286.628 26.772 286.43 26.274 286.094 25.89C285.758 25.494 285.29 25.296 284.69 25.296C284.126 25.296 283.658 25.482 283.286 25.854C282.914 26.226 282.692 26.736 282.62 27.384H286.688ZM299.598 29.418C299.442 30.618 298.968 31.554 298.176 32.226C297.396 32.898 296.388 33.234 295.152 33.234C293.724 33.234 292.578 32.796 291.714 31.92C290.85 31.044 290.418 29.88 290.418 28.428C290.418 26.928 290.85 25.722 291.714 24.81C292.59 23.898 293.748 23.442 295.188 23.442C296.424 23.442 297.432 23.76 298.212 24.396C298.992 25.02 299.436 25.872 299.544 26.952H297.042C296.85 25.884 296.238 25.35 295.206 25.35C294.51 25.35 293.964 25.62 293.568 26.16C293.184 26.688 292.992 27.426 292.992 28.374C292.992 29.298 293.178 30.018 293.55 30.534C293.934 31.038 294.468 31.29 295.152 31.29C296.268 31.29 296.928 30.666 297.132 29.418H299.598ZM308.627 25.674H305.567V33H303.029V25.674H299.969V23.712H308.627V25.674ZM309.725 23.712H315.071C315.947 23.712 316.661 23.91 317.213 24.306C317.765 24.69 318.041 25.272 318.041 26.052C318.041 26.94 317.621 27.576 316.781 27.96C317.909 28.284 318.473 29.04 318.473 30.228C318.473 31.104 318.173 31.788 317.573 32.28C316.985 32.76 316.235 33 315.323 33H309.725V23.712ZM312.245 27.438H313.937C314.945 27.438 315.449 27.084 315.449 26.376C315.449 25.968 315.311 25.692 315.035 25.548C314.771 25.404 314.405 25.332 313.937 25.332H312.245V27.438ZM312.245 31.344H314.135C314.663 31.344 315.077 31.26 315.377 31.092C315.677 30.924 315.827 30.6 315.827 30.12C315.827 29.628 315.665 29.298 315.341 29.13C315.017 28.962 314.579 28.878 314.027 28.878H312.245V31.344ZM328.737 33H326.145C326.061 32.76 326.001 32.46 325.965 32.1C325.185 32.88 324.183 33.27 322.959 33.27C321.927 33.27 321.117 33.024 320.529 32.532C319.941 32.028 319.647 31.338 319.647 30.462C319.647 30.066 319.695 29.718 319.791 29.418C319.899 29.118 320.067 28.866 320.295 28.662C320.535 28.458 320.757 28.29 320.961 28.158C321.177 28.026 321.471 27.918 321.843 27.834C322.215 27.75 322.515 27.69 322.743 27.654C322.971 27.606 323.289 27.558 323.697 27.51C324.597 27.39 325.197 27.264 325.497 27.132C325.809 27 325.965 26.754 325.965 26.394C325.965 25.566 325.407 25.152 324.291 25.152C323.703 25.152 323.271 25.26 322.995 25.476C322.719 25.68 322.539 26.046 322.455 26.574H320.061C320.205 24.486 321.639 23.442 324.363 23.442C327.063 23.442 328.413 24.45 328.413 26.466V30.48C328.413 31.656 328.521 32.496 328.737 33ZM325.947 28.482C325.647 28.662 325.047 28.824 324.147 28.968C323.391 29.088 322.899 29.238 322.671 29.418C322.407 29.634 322.275 29.946 322.275 30.354C322.275 30.738 322.395 31.044 322.635 31.272C322.887 31.488 323.235 31.596 323.679 31.596C324.363 31.596 324.909 31.416 325.317 31.056C325.737 30.684 325.947 30.174 325.947 29.526V28.482ZM111.666 56H109.128V48.674H105.546V56H103.008V46.712H111.666V56ZM122.966 51.356C122.966 52.844 122.528 54.038 121.652 54.938C120.788 55.838 119.63 56.288 118.178 56.288C116.726 56.288 115.562 55.838 114.686 54.938C113.81 54.038 113.372 52.844 113.372 51.356C113.372 49.88 113.816 48.692 114.704 47.792C115.592 46.892 116.762 46.442 118.214 46.442C119.642 46.442 120.788 46.892 121.652 47.792C122.528 48.692 122.966 49.88 122.966 51.356ZM120.41 51.338C120.41 50.414 120.206 49.694 119.798 49.178C119.402 48.65 118.85 48.386 118.142 48.386C117.458 48.386 116.918 48.65 116.522 49.178C116.126 49.706 115.928 50.432 115.928 51.356C115.928 52.304 116.126 53.042 116.522 53.57C116.918 54.098 117.47 54.362 118.178 54.362C118.886 54.362 119.432 54.098 119.816 53.57C120.212 53.03 120.41 52.286 120.41 51.338ZM139.718 58.736H137.324V56H131.204V58.736H128.81V54.038H129.926C130.226 53.462 130.496 52.622 130.736 51.518C130.976 50.414 131.096 49.352 131.096 48.332V46.712H138.512V54.038H139.718V58.736ZM135.974 54.038V48.602H133.472V48.836C133.472 49.736 133.358 50.69 133.13 51.698C132.914 52.694 132.68 53.474 132.428 54.038H135.974ZM150.282 51.356C150.282 52.844 149.844 54.038 148.968 54.938C148.104 55.838 146.946 56.288 145.494 56.288C144.042 56.288 142.878 55.838 142.002 54.938C141.126 54.038 140.688 52.844 140.688 51.356C140.688 49.88 141.132 48.692 142.02 47.792C142.908 46.892 144.078 46.442 145.53 46.442C146.958 46.442 148.104 46.892 148.968 47.792C149.844 48.692 150.282 49.88 150.282 51.356ZM147.726 51.338C147.726 50.414 147.522 49.694 147.114 49.178C146.718 48.65 146.166 48.386 145.458 48.386C144.774 48.386 144.234 48.65 143.838 49.178C143.442 49.706 143.244 50.432 143.244 51.356C143.244 52.304 143.442 53.042 143.838 53.57C144.234 54.098 144.786 54.362 145.494 54.362C146.202 54.362 146.748 54.098 147.132 53.57C147.528 53.03 147.726 52.286 147.726 51.338ZM160.818 52.418C160.662 53.618 160.188 54.554 159.396 55.226C158.616 55.898 157.608 56.234 156.372 56.234C154.944 56.234 153.798 55.796 152.934 54.92C152.07 54.044 151.638 52.88 151.638 51.428C151.638 49.928 152.07 48.722 152.934 47.81C153.81 46.898 154.968 46.442 156.408 46.442C157.644 46.442 158.652 46.76 159.432 47.396C160.212 48.02 160.656 48.872 160.764 49.952H158.262C158.07 48.884 157.458 48.35 156.426 48.35C155.73 48.35 155.184 48.62 154.788 49.16C154.404 49.688 154.212 50.426 154.212 51.374C154.212 52.298 154.398 53.018 154.77 53.534C155.154 54.038 155.688 54.29 156.372 54.29C157.488 54.29 158.148 53.666 158.352 52.418H160.818ZM169.848 48.674H166.788V56H164.25V48.674H161.19V46.712H169.848V48.674ZM179.424 46.712L176.004 55.964C175.836 56.432 175.71 56.756 175.626 56.936C175.554 57.128 175.434 57.392 175.266 57.728C175.11 58.064 174.96 58.298 174.816 58.43C174.684 58.562 174.498 58.712 174.258 58.88C174.03 59.048 173.766 59.162 173.466 59.222C173.178 59.282 172.842 59.312 172.458 59.312C172.146 59.312 171.576 59.306 170.748 59.294V57.188H171.99C172.41 57.188 172.728 57.08 172.944 56.864C173.172 56.648 173.286 56.342 173.286 55.946C173.286 55.85 173.262 55.73 173.214 55.586L169.848 46.712H172.602L174.726 53.03L176.778 46.712H179.424ZM189.01 56H186.472V48.674H182.89V56H180.352V46.712H189.01V56ZM199.68 56H197.142V52.094H193.56V56H191.022V46.712H193.56V50.078H197.142V46.712H199.68V56ZM210.98 51.356C210.98 52.844 210.542 54.038 209.666 54.938C208.802 55.838 207.644 56.288 206.192 56.288C204.74 56.288 203.576 55.838 202.7 54.938C201.824 54.038 201.386 52.844 201.386 51.356C201.386 49.88 201.83 48.692 202.718 47.792C203.606 46.892 204.776 46.442 206.228 46.442C207.656 46.442 208.802 46.892 209.666 47.792C210.542 48.692 210.98 49.88 210.98 51.356ZM208.424 51.338C208.424 50.414 208.22 49.694 207.812 49.178C207.416 48.65 206.864 48.386 206.156 48.386C205.472 48.386 204.932 48.65 204.536 49.178C204.14 49.706 203.942 50.432 203.942 51.356C203.942 52.304 204.14 53.042 204.536 53.57C204.932 54.098 205.484 54.362 206.192 54.362C206.9 54.362 207.446 54.098 207.83 53.57C208.226 53.03 208.424 52.286 208.424 51.338ZM218.942 43.184H219.95C219.95 44.912 218.972 45.776 217.016 45.776C215.06 45.776 214.082 44.912 214.082 43.184H215.09C215.246 43.976 215.888 44.372 217.016 44.372C218.144 44.372 218.786 43.976 218.942 43.184ZM221.354 56H218.906V49.718L215.594 56H212.696V46.712H215.144V52.994L218.456 46.712H221.354V56ZM238.005 58.736H235.611V56H228.321V46.712H230.859V54.038H234.297V46.712H236.835V54.038H238.005V58.736ZM247.915 53.12C247.627 54.116 247.093 54.89 246.313 55.442C245.545 55.994 244.627 56.27 243.559 56.27C242.131 56.27 240.979 55.826 240.103 54.938C239.239 54.05 238.807 52.874 238.807 51.41C238.807 49.97 239.245 48.782 240.121 47.846C240.997 46.91 242.113 46.442 243.469 46.442C244.873 46.442 245.989 46.922 246.817 47.882C247.645 48.83 248.059 50.12 248.059 51.752V52.004H241.399C241.411 52.808 241.603 53.42 241.975 53.84C242.359 54.26 242.893 54.47 243.577 54.47C244.477 54.47 245.107 54.02 245.467 53.12H247.915ZM245.467 50.384C245.407 49.772 245.209 49.274 244.873 48.89C244.537 48.494 244.069 48.296 243.469 48.296C242.905 48.296 242.437 48.482 242.065 48.854C241.693 49.226 241.471 49.736 241.399 50.384H245.467ZM258.215 56H255.677V52.094H252.095V56H249.557V46.712H252.095V50.078H255.677V46.712H258.215V56ZM268.921 53.12C268.633 54.116 268.099 54.89 267.319 55.442C266.551 55.994 265.633 56.27 264.565 56.27C263.137 56.27 261.985 55.826 261.109 54.938C260.245 54.05 259.813 52.874 259.813 51.41C259.813 49.97 260.251 48.782 261.127 47.846C262.003 46.91 263.119 46.442 264.475 46.442C265.879 46.442 266.995 46.922 267.823 47.882C268.651 48.83 269.065 50.12 269.065 51.752V52.004H262.405C262.417 52.808 262.609 53.42 262.981 53.84C263.365 54.26 263.899 54.47 264.583 54.47C265.483 54.47 266.113 54.02 266.473 53.12H268.921ZM266.473 50.384C266.413 49.772 266.215 49.274 265.879 48.89C265.543 48.494 265.075 48.296 264.475 48.296C263.911 48.296 263.443 48.482 263.071 48.854C262.699 49.226 262.477 49.736 262.405 50.384H266.473Z" fill="#222222"/>
<path d="M108.064 77.336C109.792 77.336 111.136 77.88 112.096 78.968C113.056 80.0453 113.536 81.4587 113.536 83.208C113.536 84.968 113.061 86.4187 112.112 87.56C111.163 88.7013 109.819 89.272 108.08 89.272C107.195 89.272 106.4 89.112 105.696 88.792C104.992 88.472 104.416 88.0293 103.968 87.464C103.531 86.8987 103.195 86.2533 102.96 85.528C102.736 84.8027 102.624 84.0187 102.624 83.176C102.624 81.3947 103.115 79.976 104.096 78.92C105.088 77.864 106.411 77.336 108.064 77.336ZM108.064 78.648C106.795 78.648 105.819 79.096 105.136 79.992C104.464 80.8773 104.128 81.976 104.128 83.288C104.128 84.7173 104.485 85.8587 105.2 86.712C105.925 87.5547 106.891 87.976 108.096 87.976C109.291 87.976 110.245 87.5493 110.96 86.696C111.675 85.8427 112.032 84.7067 112.032 83.288C112.032 81.88 111.669 80.7547 110.944 79.912C110.229 79.0693 109.269 78.648 108.064 78.648ZM115.948 79.592C116.311 79.0267 116.748 78.6107 117.26 78.344C117.772 78.0667 118.423 77.9013 119.212 77.848C120.098 77.784 120.636 77.6987 120.828 77.592C120.956 77.528 121.052 77.4427 121.116 77.336H122.476C122.444 77.5067 122.396 77.6613 122.332 77.8C122.279 77.9387 122.215 78.0613 122.14 78.168C122.076 78.264 121.98 78.3547 121.852 78.44C121.735 78.5253 121.634 78.6 121.548 78.664C121.463 78.7173 121.335 78.7707 121.164 78.824C121.004 78.8667 120.876 78.904 120.78 78.936C120.684 78.9573 120.535 78.9787 120.332 79C120.14 79.0213 120.002 79.0373 119.916 79.048C119.831 79.0587 119.676 79.0693 119.452 79.08C119.228 79.0907 119.084 79.1013 119.02 79.112C118.146 79.176 117.463 79.5173 116.972 80.136C116.482 80.744 116.172 81.56 116.044 82.584H116.092C116.327 82.0187 116.7 81.5653 117.212 81.224C117.724 80.8827 118.316 80.712 118.988 80.712C120.162 80.712 121.079 81.0853 121.74 81.832C122.412 82.568 122.748 83.6027 122.748 84.936C122.748 86.312 122.407 87.3787 121.724 88.136C121.052 88.8933 120.103 89.272 118.876 89.272C117.874 89.272 117.026 88.9787 116.332 88.392C115.639 87.7947 115.212 86.9413 115.052 85.832C114.988 85.384 114.956 84.8827 114.956 84.328C114.956 82.184 115.287 80.6053 115.948 79.592ZM116.348 84.984C116.348 85.9227 116.572 86.68 117.02 87.256C117.479 87.832 118.103 88.12 118.892 88.12C119.66 88.12 120.263 87.8427 120.7 87.288C121.138 86.7333 121.356 85.96 121.356 84.968C121.356 83.9973 121.132 83.2347 120.684 82.68C120.236 82.1253 119.628 81.848 118.86 81.848C118.092 81.848 117.479 82.1307 117.02 82.696C116.572 83.2507 116.348 84.0133 116.348 84.984ZM125.024 81.688C125.749 80.8987 126.736 80.504 127.984 80.504C129.232 80.504 130.202 80.8827 130.896 81.64C131.589 82.3973 131.936 83.4587 131.936 84.824C131.936 86.2213 131.589 87.3093 130.896 88.088C130.202 88.8667 129.226 89.256 127.968 89.256C126.709 89.256 125.722 88.872 125.008 88.104C124.293 87.336 123.936 86.2693 123.936 84.904C123.936 83.5493 124.298 82.4773 125.024 81.688ZM129.84 82.52C129.381 81.9333 128.752 81.64 127.952 81.64C127.152 81.64 126.517 81.9333 126.048 82.52C125.578 83.1067 125.344 83.8907 125.344 84.872C125.344 85.8853 125.573 86.68 126.032 87.256C126.501 87.8213 127.152 88.104 127.984 88.104C128.784 88.104 129.408 87.816 129.856 87.24C130.314 86.664 130.544 85.8693 130.544 84.856C130.544 83.8747 130.309 83.096 129.84 82.52ZM134.835 80.744V81.912C135.433 80.9627 136.361 80.488 137.619 80.488C138.771 80.488 139.683 80.8773 140.355 81.656C141.038 82.4347 141.379 83.4907 141.379 84.824C141.379 86.1573 141.043 87.224 140.371 88.024C139.71 88.8133 138.814 89.208 137.683 89.208C136.499 89.208 135.577 88.7547 134.915 87.848V92.184H133.555V80.744H134.835ZM137.411 81.624C136.622 81.624 135.998 81.912 135.539 82.488C135.091 83.0533 134.867 83.8373 134.867 84.84C134.867 85.8427 135.097 86.632 135.555 87.208C136.025 87.7733 136.659 88.056 137.459 88.056C138.238 88.056 138.851 87.768 139.299 87.192C139.747 86.616 139.971 85.832 139.971 84.84C139.971 83.8373 139.742 83.0533 139.283 82.488C138.835 81.912 138.211 81.624 137.411 81.624ZM149.684 80.744L146.148 90.056C146.009 90.4293 145.887 90.7173 145.78 90.92C145.684 91.1333 145.54 91.3627 145.348 91.608C145.167 91.864 144.943 92.0453 144.676 92.152C144.42 92.2693 144.116 92.328 143.764 92.328C143.497 92.328 143.161 92.28 142.756 92.184V90.968C143.151 91.0853 143.444 91.144 143.636 91.144C144.084 91.144 144.404 90.9147 144.596 90.456L145.236 88.952L141.956 80.744H143.492L145.94 87.32L148.26 80.744H149.684ZM158.571 91.624H157.275V89H150.971V91.624H149.675V87.8H150.571C150.827 87.3093 151.062 86.552 151.275 85.528C151.499 84.4933 151.611 83.4853 151.611 82.504V80.744H157.499V87.8H158.571V91.624ZM156.139 87.8V81.944H152.939V82.632C152.939 83.6027 152.838 84.5893 152.635 85.592C152.443 86.584 152.224 87.32 151.979 87.8H156.139ZM160.414 81.688C161.14 80.8987 162.126 80.504 163.374 80.504C164.622 80.504 165.593 80.8827 166.286 81.64C166.98 82.3973 167.326 83.4587 167.326 84.824C167.326 86.2213 166.98 87.3093 166.286 88.088C165.593 88.8667 164.617 89.256 163.358 89.256C162.1 89.256 161.113 88.872 160.398 88.104C159.684 87.336 159.326 86.2693 159.326 84.904C159.326 83.5493 159.689 82.4773 160.414 81.688ZM165.23 82.52C164.772 81.9333 164.142 81.64 163.342 81.64C162.542 81.64 161.908 81.9333 161.438 82.52C160.969 83.1067 160.734 83.8907 160.734 84.872C160.734 85.8853 160.964 86.68 161.422 87.256C161.892 87.8213 162.542 88.104 163.374 88.104C164.174 88.104 164.798 87.816 165.246 87.24C165.705 86.664 165.934 85.8693 165.934 84.856C165.934 83.8747 165.7 83.096 165.23 82.52ZM168.914 89V80.744H172.738C173.282 80.744 173.746 80.792 174.13 80.888C174.514 80.9733 174.85 81.1707 175.138 81.48C175.426 81.7893 175.57 82.2107 175.57 82.744C175.57 83.5547 175.165 84.1467 174.354 84.52V84.536C174.845 84.632 175.229 84.8613 175.506 85.224C175.783 85.576 175.922 86.024 175.922 86.568C175.922 87.272 175.687 87.8533 175.218 88.312C174.749 88.7707 174.146 89 173.41 89H168.914ZM172.594 84.072C173.159 84.072 173.559 83.9813 173.794 83.8C174.039 83.608 174.162 83.3307 174.162 82.968C174.162 82.6053 174.045 82.3387 173.81 82.168C173.575 81.9973 173.17 81.912 172.594 81.912H170.242V84.072H172.594ZM170.242 85.224V87.832H173.154C173.581 87.832 173.911 87.704 174.146 87.448C174.391 87.192 174.514 86.8613 174.514 86.456C174.514 85.6347 173.981 85.224 172.914 85.224H170.242ZM184.852 87.912V88.968C184.574 89.0747 184.265 89.128 183.924 89.128C183.145 89.128 182.745 88.7227 182.724 87.912C181.945 88.7867 180.948 89.224 179.732 89.224C178.921 89.224 178.276 89.016 177.796 88.6C177.326 88.184 177.092 87.6133 177.092 86.888C177.092 85.416 178.068 84.5573 180.02 84.312C181.172 84.1733 181.838 84.072 182.02 84.008C182.404 83.88 182.612 83.6133 182.644 83.208C182.654 83.144 182.66 83.0747 182.66 83C182.66 82.0933 182.036 81.64 180.788 81.64C180.148 81.64 179.662 81.7733 179.332 82.04C179.001 82.296 178.804 82.7227 178.74 83.32H177.412C177.433 82.4347 177.748 81.7467 178.356 81.256C178.964 80.7653 179.801 80.52 180.868 80.52C182.03 80.52 182.894 80.7867 183.46 81.32C183.641 81.4907 183.774 81.7147 183.86 81.992C183.945 82.2693 183.993 82.4987 184.004 82.68C184.014 82.8507 184.02 83.112 184.02 83.464C184.02 83.88 184.009 84.4987 183.988 85.32C183.966 86.1307 183.956 86.7387 183.956 87.144C183.956 87.4427 183.993 87.656 184.068 87.784C184.153 87.9013 184.302 87.96 184.516 87.96C184.601 87.96 184.713 87.944 184.852 87.912ZM182.66 84.712C182.564 84.7867 182.462 84.8507 182.356 84.904C182.249 84.9573 182.11 85 181.94 85.032C181.78 85.064 181.668 85.0907 181.604 85.112C181.55 85.1227 181.412 85.144 181.188 85.176C180.964 85.1973 180.846 85.208 180.836 85.208C180.505 85.2507 180.286 85.2827 180.18 85.304C180.084 85.3147 179.892 85.3573 179.604 85.432C179.326 85.5067 179.129 85.592 179.012 85.688C178.894 85.784 178.777 85.928 178.66 86.12C178.553 86.3013 178.5 86.52 178.5 86.776C178.5 87.2027 178.644 87.5387 178.932 87.784C179.23 88.0293 179.636 88.152 180.148 88.152C180.798 88.152 181.38 87.96 181.892 87.576C182.404 87.192 182.66 86.7387 182.66 86.216V84.712ZM187.493 89H186.133V80.744H187.493V84.024H191.621V80.744H192.981V89H191.621V85.224H187.493V89ZM196.768 89H195.024V80.744H196.384V87.48H196.416L200.128 80.744H201.872V89H200.512V82.264H200.48L196.768 89ZM210.971 86.392C210.555 88.312 209.355 89.272 207.371 89.272C206.155 89.272 205.2 88.8933 204.507 88.136C203.824 87.3787 203.483 86.328 203.483 84.984C203.483 83.6507 203.835 82.5733 204.539 81.752C205.253 80.92 206.181 80.504 207.323 80.504C208.592 80.504 209.531 80.936 210.139 81.8C210.757 82.6533 211.067 83.736 211.067 85.048V85.24H204.859L204.843 85.336C204.843 86.2107 205.072 86.8987 205.531 87.4C205.989 87.9013 206.619 88.152 207.419 88.152C208.016 88.152 208.485 88.0133 208.827 87.736C209.179 87.4587 209.451 87.0107 209.643 86.392H210.971ZM209.659 84.136C209.595 83.3467 209.355 82.7333 208.939 82.296C208.523 81.848 207.973 81.624 207.291 81.624C206.629 81.624 206.08 81.848 205.643 82.296C205.205 82.744 204.944 83.3573 204.859 84.136H209.659ZM225.09 77.608V78.92H218.706V82.488H224.674V83.752H218.706V87.688H225.17V89H217.202V77.608H225.09ZM228.183 77.608V89H226.807V77.608H228.183ZM231.73 77.608V79.272H230.354V77.608H231.73ZM231.73 80.744V89H230.354V80.744H231.73ZM237.373 80.744V81.864H235.725V86.68C235.725 86.9467 235.725 87.1227 235.725 87.208C235.735 87.2933 235.767 87.4107 235.821 87.56C235.874 87.6987 235.965 87.7893 236.093 87.832C236.221 87.8747 236.402 87.896 236.637 87.896C236.839 87.896 237.085 87.88 237.373 87.848V89.016C236.989 89.0587 236.642 89.08 236.333 89.08C235.949 89.08 235.629 89.0373 235.373 88.952C235.117 88.8667 234.919 88.7707 234.781 88.664C234.653 88.5573 234.557 88.3707 234.493 88.104C234.429 87.8267 234.391 87.5973 234.381 87.416C234.37 87.224 234.365 86.9093 234.365 86.472C234.365 86.376 234.365 86.3013 234.365 86.248V81.864H232.973V80.744H234.365V78.296H235.725V80.744H237.373ZM245.939 86.392C245.523 88.312 244.323 89.272 242.339 89.272C241.123 89.272 240.169 88.8933 239.475 88.136C238.793 87.3787 238.451 86.328 238.451 84.984C238.451 83.6507 238.803 82.5733 239.507 81.752C240.222 80.92 241.15 80.504 242.291 80.504C243.561 80.504 244.499 80.936 245.107 81.8C245.726 82.6533 246.035 83.736 246.035 85.048V85.24H239.827L239.811 85.336C239.811 86.2107 240.041 86.8987 240.499 87.4C240.958 87.9013 241.587 88.152 242.387 88.152C242.985 88.152 243.454 88.0133 243.795 87.736C244.147 87.4587 244.419 87.0107 244.611 86.392H245.939ZM244.627 84.136C244.563 83.3467 244.323 82.7333 243.907 82.296C243.491 81.848 242.942 81.624 242.259 81.624C241.598 81.624 241.049 81.848 240.611 82.296C240.174 82.744 239.913 83.3573 239.827 84.136H244.627ZM254.581 85.992C254.464 86.984 254.085 87.7733 253.445 88.36C252.816 88.9467 251.994 89.24 250.981 89.24C249.733 89.24 248.768 88.856 248.085 88.088C247.402 87.3093 247.061 86.2747 247.061 84.984C247.061 83.608 247.418 82.52 248.133 81.72C248.848 80.9093 249.813 80.504 251.029 80.504C252.042 80.504 252.853 80.76 253.461 81.272C254.069 81.7733 254.426 82.4933 254.533 83.432H253.125C252.88 82.2373 252.186 81.64 251.045 81.64C250.256 81.64 249.632 81.9333 249.173 82.52C248.714 83.096 248.485 83.88 248.485 84.872C248.485 85.8747 248.704 86.664 249.141 87.24C249.578 87.816 250.181 88.104 250.949 88.104C251.568 88.104 252.069 87.9227 252.453 87.56C252.848 87.1973 253.098 86.6747 253.205 85.992H254.581ZM257.431 77.608V81.912C258.039 80.9947 258.94 80.536 260.135 80.536C261.991 80.536 262.919 81.4747 262.919 83.352V89H261.559V83.672C261.559 83.0427 261.426 82.5627 261.159 82.232C260.903 81.8907 260.434 81.72 259.751 81.72C258.919 81.72 258.322 81.9867 257.959 82.52C257.607 83.0533 257.431 83.816 257.431 84.808V89H256.071V77.608H257.431ZM104.384 110H103.024V101.744H109.872V110H108.512V102.944H104.384V110ZM113.195 101.744V102.912C113.792 101.963 114.72 101.488 115.979 101.488C117.131 101.488 118.043 101.877 118.715 102.656C119.397 103.435 119.739 104.491 119.739 105.824C119.739 107.157 119.403 108.224 118.731 109.024C118.069 109.813 117.173 110.208 116.043 110.208C114.859 110.208 113.936 109.755 113.275 108.848V113.184H111.915V101.744H113.195ZM115.771 102.624C114.981 102.624 114.357 102.912 113.899 103.488C113.451 104.053 113.227 104.837 113.227 105.84C113.227 106.843 113.456 107.632 113.915 108.208C114.384 108.773 115.019 109.056 115.819 109.056C116.597 109.056 117.211 108.768 117.659 108.192C118.107 107.616 118.331 106.832 118.331 105.84C118.331 104.837 118.101 104.053 117.643 103.488C117.195 102.912 116.571 102.624 115.771 102.624ZM122.055 102.688C122.78 101.899 123.767 101.504 125.015 101.504C126.263 101.504 127.234 101.883 127.927 102.64C128.62 103.397 128.967 104.459 128.967 105.824C128.967 107.221 128.62 108.309 127.927 109.088C127.234 109.867 126.258 110.256 124.999 110.256C123.74 110.256 122.754 109.872 122.039 109.104C121.324 108.336 120.967 107.269 120.967 105.904C120.967 104.549 121.33 103.477 122.055 102.688ZM126.871 103.52C126.412 102.933 125.783 102.64 124.983 102.64C124.183 102.64 123.548 102.933 123.079 103.52C122.61 104.107 122.375 104.891 122.375 105.872C122.375 106.885 122.604 107.68 123.063 108.256C123.532 108.821 124.183 109.104 125.015 109.104C125.815 109.104 126.439 108.816 126.887 108.24C127.346 107.664 127.575 106.869 127.575 105.856C127.575 104.875 127.34 104.096 126.871 103.52ZM132.331 110H130.587V101.744H131.947V108.48H131.979L135.691 101.744H137.435V110H136.075V103.264H136.043L132.331 110ZM139.013 104.128C139.077 103.189 139.434 102.517 140.085 102.112C140.736 101.707 141.541 101.504 142.501 101.504C143.408 101.504 144.149 101.691 144.725 102.064C145.312 102.437 145.605 102.992 145.605 103.728C145.605 104.176 145.472 104.56 145.205 104.88C144.949 105.2 144.64 105.397 144.277 105.472V105.504C144.714 105.589 145.088 105.808 145.397 106.16C145.717 106.501 145.877 106.965 145.877 107.552C145.877 108.405 145.541 109.072 144.869 109.552C144.197 110.021 143.392 110.256 142.453 110.256C141.376 110.256 140.517 110.011 139.877 109.52C139.248 109.019 138.912 108.32 138.869 107.424H140.245C140.288 108 140.506 108.432 140.901 108.72C141.296 109.008 141.808 109.152 142.437 109.152C143.066 109.152 143.562 109.003 143.925 108.704C144.288 108.395 144.469 108.021 144.469 107.584C144.469 106.688 143.882 106.24 142.709 106.24H141.573V105.136H142.485C143.008 105.136 143.429 105.029 143.749 104.816C144.069 104.592 144.229 104.251 144.229 103.792C144.229 103.472 144.069 103.195 143.749 102.96C143.44 102.725 143.018 102.608 142.485 102.608C141.941 102.608 141.466 102.731 141.061 102.976C140.666 103.221 140.442 103.605 140.389 104.128H139.013ZM147.445 110V101.744H151.269C151.813 101.744 152.277 101.792 152.661 101.888C153.045 101.973 153.381 102.171 153.669 102.48C153.957 102.789 154.101 103.211 154.101 103.744C154.101 104.555 153.696 105.147 152.885 105.52V105.536C153.376 105.632 153.76 105.861 154.037 106.224C154.314 106.576 154.453 107.024 154.453 107.568C154.453 108.272 154.218 108.853 153.749 109.312C153.28 109.771 152.677 110 151.941 110H147.445ZM151.125 105.072C151.69 105.072 152.09 104.981 152.325 104.8C152.57 104.608 152.693 104.331 152.693 103.968C152.693 103.605 152.576 103.339 152.341 103.168C152.106 102.997 151.701 102.912 151.125 102.912H148.773V105.072H151.125ZM148.773 106.224V108.832H151.685C152.112 108.832 152.442 108.704 152.677 108.448C152.922 108.192 153.045 107.861 153.045 107.456C153.045 106.635 152.512 106.224 151.445 106.224H148.773ZM156.727 102.688C157.452 101.899 158.439 101.504 159.687 101.504C160.935 101.504 161.906 101.883 162.599 102.64C163.292 103.397 163.639 104.459 163.639 105.824C163.639 107.221 163.292 108.309 162.599 109.088C161.906 109.867 160.93 110.256 159.671 110.256C158.412 110.256 157.426 109.872 156.711 109.104C155.996 108.336 155.639 107.269 155.639 105.904C155.639 104.549 156.002 103.477 156.727 102.688ZM161.543 103.52C161.084 102.933 160.455 102.64 159.655 102.64C158.855 102.64 158.22 102.933 157.751 103.52C157.282 104.107 157.047 104.891 157.047 105.872C157.047 106.885 157.276 107.68 157.735 108.256C158.204 108.821 158.855 109.104 159.687 109.104C160.487 109.104 161.111 108.816 161.559 108.24C162.018 107.664 162.247 106.869 162.247 105.856C162.247 104.875 162.012 104.096 161.543 103.52ZM172.977 112.624H171.681V110H165.377V112.624H164.081V108.8H164.977C165.233 108.309 165.468 107.552 165.681 106.528C165.905 105.493 166.017 104.485 166.017 103.504V101.744H171.905V108.8H172.977V112.624ZM170.545 108.8V102.944H167.345V103.632C167.345 104.603 167.244 105.589 167.041 106.592C166.849 107.584 166.63 108.32 166.385 108.8H170.545ZM175.909 110H174.165V101.744H175.525V108.48H175.557L179.269 101.744H181.013V110H179.653V103.264H179.621L175.909 110ZM189.375 102.944H186.415V110H185.055V102.944H182.095V101.744H189.375V102.944ZM197.284 106.992C197.167 107.984 196.788 108.773 196.148 109.36C195.519 109.947 194.698 110.24 193.684 110.24C192.436 110.24 191.471 109.856 190.788 109.088C190.106 108.309 189.764 107.275 189.764 105.984C189.764 104.608 190.122 103.52 190.836 102.72C191.551 101.909 192.516 101.504 193.732 101.504C194.746 101.504 195.556 101.76 196.164 102.272C196.772 102.773 197.13 103.493 197.236 104.432H195.828C195.583 103.237 194.89 102.64 193.748 102.64C192.959 102.64 192.335 102.933 191.876 103.52C191.418 104.096 191.188 104.88 191.188 105.872C191.188 106.875 191.407 107.664 191.844 108.24C192.282 108.816 192.884 109.104 193.652 109.104C194.271 109.104 194.772 108.923 195.156 108.56C195.551 108.197 195.802 107.675 195.908 106.992H197.284ZM205.302 110H203.942V106.624H202.134L199.526 110H197.718L200.566 106.576C199.958 106.48 199.462 106.224 199.078 105.808C198.705 105.381 198.518 104.837 198.518 104.176C198.518 103.408 198.747 102.811 199.206 102.384C199.665 101.957 200.299 101.744 201.11 101.744H205.302V110ZM203.942 102.944H201.542C200.454 102.944 199.91 103.355 199.91 104.176C199.91 105.008 200.454 105.424 201.542 105.424H203.942V102.944ZM213.181 110H211.821V101.744H213.181V105.024H217.309V101.744H218.669V110H217.309V106.224H213.181V110ZM228.024 108.912V109.968C227.746 110.075 227.437 110.128 227.096 110.128C226.317 110.128 225.917 109.723 225.896 108.912C225.117 109.787 224.12 110.224 222.904 110.224C222.093 110.224 221.448 110.016 220.968 109.6C220.498 109.184 220.264 108.613 220.264 107.888C220.264 106.416 221.24 105.557 223.192 105.312C224.344 105.173 225.01 105.072 225.192 105.008C225.576 104.88 225.784 104.613 225.816 104.208C225.826 104.144 225.832 104.075 225.832 104C225.832 103.093 225.208 102.64 223.96 102.64C223.32 102.64 222.834 102.773 222.504 103.04C222.173 103.296 221.976 103.723 221.912 104.32H220.584C220.605 103.435 220.92 102.747 221.528 102.256C222.136 101.765 222.973 101.52 224.04 101.52C225.202 101.52 226.066 101.787 226.632 102.32C226.813 102.491 226.946 102.715 227.032 102.992C227.117 103.269 227.165 103.499 227.176 103.68C227.186 103.851 227.192 104.112 227.192 104.464C227.192 104.88 227.181 105.499 227.16 106.32C227.138 107.131 227.128 107.739 227.128 108.144C227.128 108.443 227.165 108.656 227.24 108.784C227.325 108.901 227.474 108.96 227.688 108.96C227.773 108.96 227.885 108.944 228.024 108.912ZM225.832 105.712C225.736 105.787 225.634 105.851 225.528 105.904C225.421 105.957 225.282 106 225.112 106.032C224.952 106.064 224.84 106.091 224.776 106.112C224.722 106.123 224.584 106.144 224.36 106.176C224.136 106.197 224.018 106.208 224.008 106.208C223.677 106.251 223.458 106.283 223.352 106.304C223.256 106.315 223.064 106.357 222.776 106.432C222.498 106.507 222.301 106.592 222.184 106.688C222.066 106.784 221.949 106.928 221.832 107.12C221.725 107.301 221.672 107.52 221.672 107.776C221.672 108.203 221.816 108.539 222.104 108.784C222.402 109.029 222.808 109.152 223.32 109.152C223.97 109.152 224.552 108.96 225.064 108.576C225.576 108.192 225.832 107.739 225.832 107.216V105.712ZM233.294 104.128C233.358 103.189 233.716 102.517 234.366 102.112C235.017 101.707 235.822 101.504 236.782 101.504C237.689 101.504 238.43 101.691 239.006 102.064C239.593 102.437 239.886 102.992 239.886 103.728C239.886 104.176 239.753 104.56 239.486 104.88C239.23 105.2 238.921 105.397 238.558 105.472V105.504C238.996 105.589 239.369 105.808 239.678 106.16C239.998 106.501 240.158 106.965 240.158 107.552C240.158 108.405 239.822 109.072 239.15 109.552C238.478 110.021 237.673 110.256 236.734 110.256C235.657 110.256 234.798 110.011 234.158 109.52C233.529 109.019 233.193 108.32 233.15 107.424H234.526C234.569 108 234.788 108.432 235.182 108.72C235.577 109.008 236.089 109.152 236.718 109.152C237.348 109.152 237.844 109.003 238.206 108.704C238.569 108.395 238.75 108.021 238.75 107.584C238.75 106.688 238.164 106.24 236.99 106.24H235.854V105.136H236.766C237.289 105.136 237.71 105.029 238.03 104.816C238.35 104.592 238.51 104.251 238.51 103.792C238.51 103.472 238.35 103.195 238.03 102.96C237.721 102.725 237.3 102.608 236.766 102.608C236.222 102.608 235.748 102.731 235.342 102.976C234.948 103.221 234.724 103.605 234.67 104.128H233.294ZM249.07 108.912V109.968C248.793 110.075 248.484 110.128 248.142 110.128C247.364 110.128 246.964 109.723 246.942 108.912C246.164 109.787 245.166 110.224 243.95 110.224C243.14 110.224 242.494 110.016 242.014 109.6C241.545 109.184 241.31 108.613 241.31 107.888C241.31 106.416 242.286 105.557 244.238 105.312C245.39 105.173 246.057 105.072 246.238 105.008C246.622 104.88 246.83 104.613 246.862 104.208C246.873 104.144 246.878 104.075 246.878 104C246.878 103.093 246.254 102.64 245.006 102.64C244.366 102.64 243.881 102.773 243.55 103.04C243.22 103.296 243.022 103.723 242.958 104.32H241.63C241.652 103.435 241.966 102.747 242.574 102.256C243.182 101.765 244.02 101.52 245.086 101.52C246.249 101.52 247.113 101.787 247.678 102.32C247.86 102.491 247.993 102.715 248.078 102.992C248.164 103.269 248.212 103.499 248.222 103.68C248.233 103.851 248.238 104.112 248.238 104.464C248.238 104.88 248.228 105.499 248.206 106.32C248.185 107.131 248.174 107.739 248.174 108.144C248.174 108.443 248.212 108.656 248.286 108.784C248.372 108.901 248.521 108.96 248.734 108.96C248.82 108.96 248.932 108.944 249.07 108.912ZM246.878 105.712C246.782 105.787 246.681 105.851 246.574 105.904C246.468 105.957 246.329 106 246.158 106.032C245.998 106.064 245.886 106.091 245.822 106.112C245.769 106.123 245.63 106.144 245.406 106.176C245.182 106.197 245.065 106.208 245.054 106.208C244.724 106.251 244.505 106.283 244.398 106.304C244.302 106.315 244.11 106.357 243.822 106.432C243.545 106.507 243.348 106.592 243.23 106.688C243.113 106.784 242.996 106.928 242.878 107.12C242.772 107.301 242.718 107.52 242.718 107.776C242.718 108.203 242.862 108.539 243.15 108.784C243.449 109.029 243.854 109.152 244.366 109.152C245.017 109.152 245.598 108.96 246.11 108.576C246.622 108.192 246.878 107.739 246.878 107.216V105.712ZM250.32 110V101.744H254.144C254.688 101.744 255.152 101.792 255.536 101.888C255.92 101.973 256.256 102.171 256.544 102.48C256.832 102.789 256.976 103.211 256.976 103.744C256.976 104.555 256.571 105.147 255.76 105.52V105.536C256.251 105.632 256.635 105.861 256.912 106.224C257.189 106.576 257.328 107.024 257.328 107.568C257.328 108.272 257.093 108.853 256.624 109.312C256.155 109.771 255.552 110 254.816 110H250.32ZM254 105.072C254.565 105.072 254.965 104.981 255.2 104.8C255.445 104.608 255.568 104.331 255.568 103.968C255.568 103.605 255.451 103.339 255.216 103.168C254.981 102.997 254.576 102.912 254 102.912H251.648V105.072H254ZM251.648 106.224V108.832H254.56C254.987 108.832 255.317 108.704 255.552 108.448C255.797 108.192 255.92 107.861 255.92 107.456C255.92 106.635 255.387 106.224 254.32 106.224H251.648ZM259.602 102.688C260.327 101.899 261.314 101.504 262.562 101.504C263.81 101.504 264.781 101.883 265.474 102.64C266.167 103.397 266.514 104.459 266.514 105.824C266.514 107.221 266.167 108.309 265.474 109.088C264.781 109.867 263.805 110.256 262.546 110.256C261.287 110.256 260.301 109.872 259.586 109.104C258.871 108.336 258.514 107.269 258.514 105.904C258.514 104.549 258.877 103.477 259.602 102.688ZM264.418 103.52C263.959 102.933 263.33 102.64 262.53 102.64C261.73 102.64 261.095 102.933 260.626 103.52C260.157 104.107 259.922 104.891 259.922 105.872C259.922 106.885 260.151 107.68 260.61 108.256C261.079 108.821 261.73 109.104 262.562 109.104C263.362 109.104 263.986 108.816 264.434 108.24C264.893 107.664 265.122 106.869 265.122 105.856C265.122 104.875 264.887 104.096 264.418 103.52ZM275.852 112.624H274.556V110H268.252V112.624H266.956V108.8H267.852C268.108 108.309 268.343 107.552 268.556 106.528C268.78 105.493 268.892 104.485 268.892 103.504V101.744H274.78V108.8H275.852V112.624ZM273.42 108.8V102.944H270.22V103.632C270.22 104.603 270.119 105.589 269.916 106.592C269.724 107.584 269.505 108.32 269.26 108.8H273.42ZM284.352 108.912V109.968C284.074 110.075 283.765 110.128 283.424 110.128C282.645 110.128 282.245 109.723 282.224 108.912C281.445 109.787 280.448 110.224 279.232 110.224C278.421 110.224 277.776 110.016 277.296 109.6C276.826 109.184 276.592 108.613 276.592 107.888C276.592 106.416 277.568 105.557 279.52 105.312C280.672 105.173 281.338 105.072 281.52 105.008C281.904 104.88 282.112 104.613 282.144 104.208C282.154 104.144 282.16 104.075 282.16 104C282.16 103.093 281.536 102.64 280.288 102.64C279.648 102.64 279.162 102.773 278.832 103.04C278.501 103.296 278.304 103.723 278.24 104.32H276.912C276.933 103.435 277.248 102.747 277.856 102.256C278.464 101.765 279.301 101.52 280.368 101.52C281.53 101.52 282.394 101.787 282.96 102.32C283.141 102.491 283.274 102.715 283.36 102.992C283.445 103.269 283.493 103.499 283.504 103.68C283.514 103.851 283.52 104.112 283.52 104.464C283.52 104.88 283.509 105.499 283.488 106.32C283.466 107.131 283.456 107.739 283.456 108.144C283.456 108.443 283.493 108.656 283.568 108.784C283.653 108.901 283.802 108.96 284.016 108.96C284.101 108.96 284.213 108.944 284.352 108.912ZM282.16 105.712C282.064 105.787 281.962 105.851 281.856 105.904C281.749 105.957 281.61 106 281.44 106.032C281.28 106.064 281.168 106.091 281.104 106.112C281.05 106.123 280.912 106.144 280.688 106.176C280.464 106.197 280.346 106.208 280.336 106.208C280.005 106.251 279.786 106.283 279.68 106.304C279.584 106.315 279.392 106.357 279.104 106.432C278.826 106.507 278.629 106.592 278.512 106.688C278.394 106.784 278.277 106.928 278.16 107.12C278.053 107.301 278 107.52 278 107.776C278 108.203 278.144 108.539 278.432 108.784C278.73 109.029 279.136 109.152 279.648 109.152C280.298 109.152 280.88 108.96 281.392 108.576C281.904 108.192 282.16 107.739 282.16 107.216V105.712ZM292.417 101.744L289.537 105.552L292.753 110H291.009L288.689 106.608L286.401 110H284.753L287.857 105.648L284.993 101.744H286.721L288.721 104.576L290.769 101.744H292.417ZM111.968 131H110.608V124.488H110.56L108.112 131H106.864L104.416 124.488H104.368V131H103.008V122.744H104.96L107.472 129.432H107.504L110.016 122.744H111.968V131ZM115.721 131H113.977V122.744H115.337V129.48H115.369L119.081 122.744H120.825V131H119.465V124.264H119.433L115.721 131ZM124.148 122.744V123.912C124.745 122.963 125.673 122.488 126.932 122.488C128.084 122.488 128.996 122.877 129.668 123.656C130.35 124.435 130.692 125.491 130.692 126.824C130.692 128.157 130.356 129.224 129.684 130.024C129.022 130.813 128.126 131.208 126.996 131.208C125.812 131.208 124.889 130.755 124.228 129.848V134.184H122.868V122.744H124.148ZM126.724 123.624C125.934 123.624 125.31 123.912 124.852 124.488C124.404 125.053 124.18 125.837 124.18 126.84C124.18 127.843 124.409 128.632 124.868 129.208C125.337 129.773 125.972 130.056 126.772 130.056C127.55 130.056 128.164 129.768 128.612 129.192C129.06 128.616 129.284 127.832 129.284 126.84C129.284 125.837 129.054 125.053 128.596 124.488C128.148 123.912 127.524 123.624 126.724 123.624ZM133.008 123.688C133.733 122.899 134.72 122.504 135.968 122.504C137.216 122.504 138.187 122.883 138.88 123.64C139.573 124.397 139.92 125.459 139.92 126.824C139.92 128.221 139.573 129.309 138.88 130.088C138.187 130.867 137.211 131.256 135.952 131.256C134.693 131.256 133.707 130.872 132.992 130.104C132.277 129.336 131.92 128.269 131.92 126.904C131.92 125.549 132.283 124.477 133.008 123.688ZM137.824 124.52C137.365 123.933 136.736 123.64 135.936 123.64C135.136 123.64 134.501 123.933 134.032 124.52C133.563 125.107 133.328 125.891 133.328 126.872C133.328 127.885 133.557 128.68 134.016 129.256C134.485 129.821 135.136 130.104 135.968 130.104C136.768 130.104 137.392 129.816 137.84 129.24C138.299 128.664 138.528 127.869 138.528 126.856C138.528 125.875 138.293 125.096 137.824 124.52ZM141.508 131V122.744H145.332C145.876 122.744 146.34 122.792 146.724 122.888C147.108 122.973 147.444 123.171 147.732 123.48C148.02 123.789 148.164 124.211 148.164 124.744C148.164 125.555 147.758 126.147 146.948 126.52V126.536C147.438 126.632 147.822 126.861 148.1 127.224C148.377 127.576 148.516 128.024 148.516 128.568C148.516 129.272 148.281 129.853 147.812 130.312C147.342 130.771 146.74 131 146.004 131H141.508ZM145.188 126.072C145.753 126.072 146.153 125.981 146.388 125.8C146.633 125.608 146.756 125.331 146.756 124.968C146.756 124.605 146.638 124.339 146.404 124.168C146.169 123.997 145.764 123.912 145.188 123.912H142.836V126.072H145.188ZM142.836 127.224V129.832H145.748C146.174 129.832 146.505 129.704 146.74 129.448C146.985 129.192 147.108 128.861 147.108 128.456C147.108 127.635 146.574 127.224 145.508 127.224H142.836ZM158.005 122.744H159.365V131H158.005V122.744ZM155.957 126.584C156.448 127.032 156.693 127.645 156.693 128.424C156.693 129.203 156.453 129.827 155.973 130.296C155.504 130.765 154.869 131 154.069 131H150.085V122.744H151.445V125.896H154.005C154.816 125.896 155.467 126.125 155.957 126.584ZM153.573 127.064H151.445V129.8H153.573C154.128 129.8 154.549 129.683 154.837 129.448C155.136 129.203 155.285 128.861 155.285 128.424C155.285 127.517 154.715 127.064 153.573 127.064ZM168.183 122.744L165.303 126.552L168.519 131H166.775L164.455 127.608L162.167 131H160.519L163.623 126.648L160.759 122.744H162.487L164.487 125.576L166.535 122.744H168.183ZM174.901 121.592C175.264 121.027 175.701 120.611 176.213 120.344C176.725 120.067 177.376 119.901 178.165 119.848C179.051 119.784 179.589 119.699 179.781 119.592C179.909 119.528 180.005 119.443 180.069 119.336H181.429C181.397 119.507 181.349 119.661 181.285 119.8C181.232 119.939 181.168 120.061 181.093 120.168C181.029 120.264 180.933 120.355 180.805 120.44C180.688 120.525 180.587 120.6 180.501 120.664C180.416 120.717 180.288 120.771 180.117 120.824C179.957 120.867 179.829 120.904 179.733 120.936C179.637 120.957 179.488 120.979 179.285 121C179.093 121.021 178.955 121.037 178.869 121.048C178.784 121.059 178.629 121.069 178.405 121.08C178.181 121.091 178.037 121.101 177.973 121.112C177.099 121.176 176.416 121.517 175.925 122.136C175.435 122.744 175.125 123.56 174.997 124.584H175.045C175.28 124.019 175.653 123.565 176.165 123.224C176.677 122.883 177.269 122.712 177.941 122.712C179.115 122.712 180.032 123.085 180.693 123.832C181.365 124.568 181.701 125.603 181.701 126.936C181.701 128.312 181.36 129.379 180.677 130.136C180.005 130.893 179.056 131.272 177.829 131.272C176.827 131.272 175.979 130.979 175.285 130.392C174.592 129.795 174.165 128.941 174.005 127.832C173.941 127.384 173.909 126.883 173.909 126.328C173.909 124.184 174.24 122.605 174.901 121.592ZM175.301 126.984C175.301 127.923 175.525 128.68 175.973 129.256C176.432 129.832 177.056 130.12 177.845 130.12C178.613 130.12 179.216 129.843 179.653 129.288C180.091 128.733 180.309 127.96 180.309 126.968C180.309 125.997 180.085 125.235 179.637 124.68C179.189 124.125 178.581 123.848 177.813 123.848C177.045 123.848 176.432 124.131 175.973 124.696C175.525 125.251 175.301 126.013 175.301 126.984ZM184.601 122.744V123.912C185.198 122.963 186.126 122.488 187.385 122.488C188.537 122.488 189.449 122.877 190.121 123.656C190.804 124.435 191.145 125.491 191.145 126.824C191.145 128.157 190.809 129.224 190.137 130.024C189.476 130.813 188.58 131.208 187.449 131.208C186.265 131.208 185.342 130.755 184.681 129.848V134.184H183.321V122.744H184.601ZM187.177 123.624C186.388 123.624 185.764 123.912 185.305 124.488C184.857 125.053 184.633 125.837 184.633 126.84C184.633 127.843 184.862 128.632 185.321 129.208C185.79 129.773 186.425 130.056 187.225 130.056C188.004 130.056 188.617 129.768 189.065 129.192C189.513 128.616 189.737 127.832 189.737 126.84C189.737 125.837 189.508 125.053 189.049 124.488C188.601 123.912 187.977 123.624 187.177 123.624ZM199.861 128.392C199.445 130.312 198.245 131.272 196.261 131.272C195.045 131.272 194.091 130.893 193.397 130.136C192.715 129.379 192.373 128.328 192.373 126.984C192.373 125.651 192.725 124.573 193.429 123.752C194.144 122.92 195.072 122.504 196.213 122.504C197.483 122.504 198.421 122.936 199.029 123.8C199.648 124.653 199.957 125.736 199.957 127.048V127.24H193.749L193.733 127.336C193.733 128.211 193.963 128.899 194.421 129.4C194.88 129.901 195.509 130.152 196.309 130.152C196.907 130.152 197.376 130.013 197.717 129.736C198.069 129.459 198.341 129.011 198.533 128.392H199.861ZM198.549 126.136C198.485 125.347 198.245 124.733 197.829 124.296C197.413 123.848 196.864 123.624 196.181 123.624C195.52 123.624 194.971 123.848 194.533 124.296C194.096 124.744 193.835 125.357 193.749 126.136H198.549ZM202.759 131H201.399V122.744H202.759V126.024H206.887V122.744H208.247V131H206.887V127.224H202.759V131ZM218.29 133.624H216.994V131H210.69V133.624H209.394V129.8H210.29C210.546 129.309 210.78 128.552 210.994 127.528C211.218 126.493 211.33 125.485 211.33 124.504V122.744H217.218V129.8H218.29V133.624ZM215.858 129.8V123.944H212.658V124.632C212.658 125.603 212.556 126.589 212.354 127.592C212.162 128.584 211.943 129.32 211.698 129.8H215.858ZM220.133 123.688C220.858 122.899 221.845 122.504 223.093 122.504C224.341 122.504 225.312 122.883 226.005 123.64C226.698 124.397 227.045 125.459 227.045 126.824C227.045 128.221 226.698 129.309 226.005 130.088C225.312 130.867 224.336 131.256 223.077 131.256C221.818 131.256 220.832 130.872 220.117 130.104C219.402 129.336 219.045 128.269 219.045 126.904C219.045 125.549 219.408 124.477 220.133 123.688ZM224.949 124.52C224.49 123.933 223.861 123.64 223.061 123.64C222.261 123.64 221.626 123.933 221.157 124.52C220.688 125.107 220.453 125.891 220.453 126.872C220.453 127.885 220.682 128.68 221.141 129.256C221.61 129.821 222.261 130.104 223.093 130.104C223.893 130.104 224.517 129.816 224.965 129.24C225.424 128.664 225.653 127.869 225.653 126.856C225.653 125.875 225.418 125.096 224.949 124.52ZM228.633 131V122.744H232.457C233.001 122.744 233.465 122.792 233.849 122.888C234.233 122.973 234.569 123.171 234.857 123.48C235.145 123.789 235.289 124.211 235.289 124.744C235.289 125.555 234.883 126.147 234.073 126.52V126.536C234.563 126.632 234.947 126.861 235.225 127.224C235.502 127.576 235.641 128.024 235.641 128.568C235.641 129.272 235.406 129.853 234.937 130.312C234.467 130.771 233.865 131 233.129 131H228.633ZM232.313 126.072C232.878 126.072 233.278 125.981 233.513 125.8C233.758 125.608 233.881 125.331 233.881 124.968C233.881 124.605 233.763 124.339 233.529 124.168C233.294 123.997 232.889 123.912 232.313 123.912H229.961V126.072H232.313ZM229.961 127.224V129.832H232.873C233.299 129.832 233.63 129.704 233.865 129.448C234.11 129.192 234.233 128.861 234.233 128.456C234.233 127.635 233.699 127.224 232.633 127.224H229.961Z" fill="#777777"/>
</svg>
