<svg width="345" height="140" viewBox="0 0 345 140" fill="none" xmlns="http://www.w3.org/2000/svg">
<path d="M-2.62268e-06 60L-8.74228e-07 20L34.9988 1.52985e-06L70 20L70 60L34.9988 80L-2.62268e-06 60Z" fill="#E31F23"/>
<path d="M41.6307 35.2404C42.0885 35.6982 42.0885 36.4402 41.6307 36.8977L33.7691 44.7596C33.3113 45.2171 32.5695 45.2171 32.1117 44.7596L28.3693 41.0169C27.9115 40.5594 27.9115 39.8174 28.3693 39.3598C28.8268 38.9021 29.5689 38.9021 30.0264 39.3598L32.9403 42.2737L39.9734 35.2404C40.4311 34.7829 41.1732 34.7829 41.6307 35.2404ZM50 40C50 48.2912 43.2901 55 35 55C26.7088 55 20 48.2901 20 40C20 31.7088 26.7099 25 35 25C43.2912 25 50 31.7099 50 40ZM47.6562 40C47.6562 33.0042 41.9949 27.3438 35 27.3438C28.0042 27.3438 22.3438 33.0051 22.3438 40C22.3438 46.9958 28.0051 52.6562 35 52.6562C41.9958 52.6562 47.6562 46.9949 47.6562 40Z" fill="white" stroke="white"/>
<path d="M114.096 31.184V44H111.288V33.578H106.05V44H103.242V31.184H114.096ZM125.638 39.356C125.638 40.844 125.2 42.038 124.324 42.938C123.46 43.838 122.302 44.288 120.85 44.288C119.398 44.288 118.234 43.838 117.358 42.938C116.482 42.038 116.044 40.844 116.044 39.356C116.044 37.88 116.488 36.692 117.376 35.792C118.264 34.892 119.434 34.442 120.886 34.442C122.314 34.442 123.46 34.892 124.324 35.792C125.2 36.692 125.638 37.88 125.638 39.356ZM123.082 39.338C123.082 38.414 122.878 37.694 122.47 37.178C122.074 36.65 121.522 36.386 120.814 36.386C120.13 36.386 119.59 36.65 119.194 37.178C118.798 37.706 118.6 38.432 118.6 39.356C118.6 40.304 118.798 41.042 119.194 41.57C119.59 42.098 120.142 42.362 120.85 42.362C121.558 42.362 122.104 42.098 122.488 41.57C122.884 41.03 123.082 40.286 123.082 39.338ZM137.063 46.736H134.669V44H128.549V46.736H126.155V42.038H127.271C127.571 41.462 127.841 40.622 128.081 39.518C128.321 38.414 128.441 37.352 128.441 36.332V34.712H135.857V42.038H137.063V46.736ZM133.319 42.038V36.602H130.817V36.836C130.817 37.736 130.703 38.69 130.475 39.698C130.259 40.694 130.025 41.474 129.773 42.038H133.319ZM147.628 39.356C147.628 40.844 147.19 42.038 146.314 42.938C145.45 43.838 144.292 44.288 142.84 44.288C141.388 44.288 140.224 43.838 139.348 42.938C138.472 42.038 138.034 40.844 138.034 39.356C138.034 37.88 138.478 36.692 139.366 35.792C140.254 34.892 141.424 34.442 142.876 34.442C144.304 34.442 145.45 34.892 146.314 35.792C147.19 36.692 147.628 37.88 147.628 39.356ZM145.072 39.338C145.072 38.414 144.868 37.694 144.46 37.178C144.064 36.65 143.512 36.386 142.804 36.386C142.12 36.386 141.58 36.65 141.184 37.178C140.788 37.706 140.59 38.432 140.59 39.356C140.59 40.304 140.788 41.042 141.184 41.57C141.58 42.098 142.132 42.362 142.84 42.362C143.548 42.362 144.094 42.098 144.478 41.57C144.874 41.03 145.072 40.286 145.072 39.338ZM155.59 31.184H156.598C156.598 32.912 155.62 33.776 153.664 33.776C151.708 33.776 150.73 32.912 150.73 31.184H151.738C151.894 31.976 152.536 32.372 153.664 32.372C154.792 32.372 155.434 31.976 155.59 31.184ZM158.002 44H155.554V37.718L152.242 44H149.344V34.712H151.792V40.994L155.104 34.712H158.002V44ZM170.04 46.736H167.646V44H161.526V46.736H159.132V42.038H160.248C160.548 41.462 160.818 40.622 161.058 39.518C161.298 38.414 161.418 37.352 161.418 36.332V34.712H168.834V42.038H170.04V46.736ZM166.296 42.038V36.602H163.794V36.836C163.794 37.736 163.68 38.69 163.452 39.698C163.236 40.694 163.002 41.474 162.75 42.038H166.296ZM180.011 41.12C179.723 42.116 179.189 42.89 178.409 43.442C177.641 43.994 176.723 44.27 175.655 44.27C174.227 44.27 173.075 43.826 172.199 42.938C171.335 42.05 170.903 40.874 170.903 39.41C170.903 37.97 171.341 36.782 172.217 35.846C173.093 34.91 174.209 34.442 175.565 34.442C176.969 34.442 178.085 34.922 178.913 35.882C179.741 36.83 180.155 38.12 180.155 39.752V40.004H173.495C173.507 40.808 173.699 41.42 174.071 41.84C174.455 42.26 174.989 42.47 175.673 42.47C176.573 42.47 177.203 42.02 177.563 41.12H180.011ZM177.563 38.384C177.503 37.772 177.305 37.274 176.969 36.89C176.633 36.494 176.165 36.296 175.565 36.296C175.001 36.296 174.533 36.482 174.161 36.854C173.789 37.226 173.567 37.736 173.495 38.384H177.563ZM189.166 36.674H186.106V44H183.568V36.674H180.508V34.712H189.166V36.674ZM205.372 46.736H202.978V44H196.858V46.736H194.464V42.038H195.58C195.88 41.462 196.15 40.622 196.39 39.518C196.63 38.414 196.75 37.352 196.75 36.332V34.712H204.166V42.038H205.372V46.736ZM201.628 42.038V36.602H199.126V36.836C199.126 37.736 199.012 38.69 198.784 39.698C198.568 40.694 198.334 41.474 198.082 42.038H201.628ZM215.253 44H212.715V36.674H210.267L210.159 39.95C210.147 40.31 210.135 40.598 210.123 40.814C210.111 41.018 210.075 41.294 210.015 41.642C209.967 41.99 209.907 42.272 209.835 42.488C209.763 42.692 209.649 42.926 209.493 43.19C209.349 43.442 209.175 43.64 208.971 43.784C208.779 43.916 208.527 44.03 208.215 44.126C207.903 44.234 207.555 44.288 207.171 44.288C206.547 44.288 206.085 44.228 205.785 44.108V42.074C206.085 42.134 206.325 42.164 206.505 42.164C207.237 42.164 207.621 41.522 207.657 40.238L207.801 34.712H215.253V44ZM225.617 44H223.079V40.562H221.999L219.335 44H216.203L219.281 40.346C218.597 40.238 218.033 39.932 217.589 39.428C217.145 38.912 216.923 38.282 216.923 37.538C216.923 36.722 217.211 36.05 217.787 35.522C218.363 34.982 219.101 34.712 220.001 34.712H225.617V44ZM223.079 38.726V36.548H221.045C220.481 36.548 220.085 36.638 219.857 36.818C219.629 36.986 219.515 37.256 219.515 37.628C219.515 38.012 219.623 38.294 219.839 38.474C220.067 38.642 220.469 38.726 221.045 38.726H223.079ZM232.88 31.184H238.946C240.146 31.184 241.124 31.454 241.88 31.994C242.648 32.522 243.032 33.326 243.032 34.406C243.032 35.006 242.876 35.54 242.564 36.008C242.252 36.464 241.826 36.812 241.286 37.052C242.846 37.496 243.626 38.54 243.626 40.184C243.626 41.396 243.218 42.338 242.402 43.01C241.586 43.67 240.548 44 239.288 44H232.88V31.184ZM235.616 33.362V36.368H238.172C239.588 36.368 240.296 35.87 240.296 34.874C240.296 34.286 240.104 33.89 239.72 33.686C239.336 33.47 238.82 33.362 238.172 33.362H235.616ZM235.616 38.276V41.768H238.442C239.174 41.768 239.75 41.648 240.17 41.408C240.602 41.168 240.818 40.706 240.818 40.022C240.818 39.326 240.59 38.864 240.134 38.636C239.69 38.396 239.078 38.276 238.298 38.276H235.616ZM253.942 44H251.35C251.266 43.76 251.206 43.46 251.17 43.1C250.39 43.88 249.388 44.27 248.164 44.27C247.132 44.27 246.322 44.024 245.734 43.532C245.146 43.028 244.852 42.338 244.852 41.462C244.852 41.066 244.9 40.718 244.996 40.418C245.104 40.118 245.272 39.866 245.5 39.662C245.74 39.458 245.962 39.29 246.166 39.158C246.382 39.026 246.676 38.918 247.048 38.834C247.42 38.75 247.72 38.69 247.948 38.654C248.176 38.606 248.494 38.558 248.902 38.51C249.802 38.39 250.402 38.264 250.702 38.132C251.014 38 251.17 37.754 251.17 37.394C251.17 36.566 250.612 36.152 249.496 36.152C248.908 36.152 248.476 36.26 248.2 36.476C247.924 36.68 247.744 37.046 247.66 37.574H245.266C245.41 35.486 246.844 34.442 249.568 34.442C252.268 34.442 253.618 35.45 253.618 37.466V41.48C253.618 42.656 253.726 43.496 253.942 44ZM251.152 39.482C250.852 39.662 250.252 39.824 249.352 39.968C248.596 40.088 248.104 40.238 247.876 40.418C247.612 40.634 247.48 40.946 247.48 41.354C247.48 41.738 247.6 42.044 247.84 42.272C248.092 42.488 248.44 42.596 248.884 42.596C249.568 42.596 250.114 42.416 250.522 42.056C250.942 41.684 251.152 41.174 251.152 40.526V39.482ZM264.494 40.418C264.338 41.618 263.864 42.554 263.072 43.226C262.292 43.898 261.284 44.234 260.048 44.234C258.62 44.234 257.474 43.796 256.61 42.92C255.746 42.044 255.314 40.88 255.314 39.428C255.314 37.928 255.746 36.722 256.61 35.81C257.486 34.898 258.644 34.442 260.084 34.442C261.32 34.442 262.328 34.76 263.108 35.396C263.888 36.02 264.332 36.872 264.44 37.952H261.938C261.746 36.884 261.134 36.35 260.102 36.35C259.406 36.35 258.86 36.62 258.464 37.16C258.08 37.688 257.888 38.426 257.888 39.374C257.888 40.298 258.074 41.018 258.446 41.534C258.83 42.038 259.364 42.29 260.048 42.29C261.164 42.29 261.824 41.666 262.028 40.418H264.494Z" fill="#222222"/>
<path d="M112.288 77.608V89H110.784V78.92H104.768V89H103.264V77.608H112.288ZM115.227 81.688C115.952 80.8987 116.939 80.504 118.187 80.504C119.435 80.504 120.406 80.8827 121.099 81.64C121.792 82.3973 122.139 83.4587 122.139 84.824C122.139 86.2213 121.792 87.3093 121.099 88.088C120.406 88.8667 119.43 89.256 118.171 89.256C116.912 89.256 115.926 88.872 115.211 88.104C114.496 87.336 114.139 86.2693 114.139 84.904C114.139 83.5493 114.502 82.4773 115.227 81.688ZM120.043 82.52C119.584 81.9333 118.955 81.64 118.155 81.64C117.355 81.64 116.72 81.9333 116.251 82.52C115.782 83.1067 115.547 83.8907 115.547 84.872C115.547 85.8853 115.776 86.68 116.235 87.256C116.704 87.8213 117.355 88.104 118.187 88.104C118.987 88.104 119.611 87.816 120.059 87.24C120.518 86.664 120.747 85.8693 120.747 84.856C120.747 83.8747 120.512 83.096 120.043 82.52ZM131.477 91.624H130.181V89H123.877V91.624H122.581V87.8H123.477C123.733 87.3093 123.968 86.552 124.181 85.528C124.405 84.4933 124.517 83.4853 124.517 82.504V80.744H130.405V87.8H131.477V91.624ZM129.045 87.8V81.944H125.845V82.632C125.845 83.6027 125.744 84.5893 125.541 85.592C125.349 86.584 125.13 87.32 124.885 87.8H129.045ZM139.449 80.744L136.569 84.552L139.785 89H138.041L135.721 85.608L133.433 89H131.785L134.889 84.648L132.025 80.744H133.753L135.753 83.576L137.801 80.744H139.449ZM141.321 81.688C142.046 80.8987 143.033 80.504 144.281 80.504C145.529 80.504 146.499 80.8827 147.193 81.64C147.886 82.3973 148.233 83.4587 148.233 84.824C148.233 86.2213 147.886 87.3093 147.193 88.088C146.499 88.8667 145.523 89.256 144.265 89.256C143.006 89.256 142.019 88.872 141.305 88.104C140.59 87.336 140.233 86.2693 140.233 84.904C140.233 83.5493 140.595 82.4773 141.321 81.688ZM146.137 82.52C145.678 81.9333 145.049 81.64 144.249 81.64C143.449 81.64 142.814 81.9333 142.345 82.52C141.875 83.1067 141.641 83.8907 141.641 84.872C141.641 85.8853 141.87 86.68 142.329 87.256C142.798 87.8213 143.449 88.104 144.281 88.104C145.081 88.104 145.705 87.816 146.153 87.24C146.611 86.664 146.841 85.8693 146.841 84.856C146.841 83.8747 146.606 83.096 146.137 82.52ZM157.571 91.624H156.275V89H149.971V91.624H148.675V87.8H149.571C149.827 87.3093 150.062 86.552 150.275 85.528C150.499 84.4933 150.611 83.4853 150.611 82.504V80.744H156.499V87.8H157.571V91.624ZM155.139 87.8V81.944H151.939V82.632C151.939 83.6027 151.838 84.5893 151.635 85.592C151.443 86.584 151.224 87.32 150.979 87.8H155.139ZM160.502 89H158.758V80.744H160.118V87.48H160.15L163.862 80.744H165.606V89H164.246V82.264H164.214L160.502 89ZM173.969 81.944H171.009V89H169.649V81.944H166.689V80.744H173.969V81.944ZM187.508 91.624H186.212V89H179.908V91.624H178.612V87.8H179.508C179.764 87.3093 179.999 86.552 180.212 85.528C180.436 84.4933 180.548 83.4853 180.548 82.504V80.744H186.436V87.8H187.508V91.624ZM185.076 87.8V81.944H181.876V82.632C181.876 83.6027 181.775 84.5893 181.572 85.592C181.38 86.584 181.162 87.32 180.916 87.8H185.076ZM195.576 80.744V89H194.216V81.944H191.272L191.16 85.592C191.128 86.8507 190.899 87.7627 190.472 88.328C190.045 88.8933 189.512 89.176 188.872 89.176C188.477 89.176 188.152 89.1173 187.896 89V87.896C188.035 87.9707 188.275 88.008 188.616 88.008C188.936 88.008 189.208 87.8373 189.432 87.496C189.667 87.144 189.795 86.5573 189.816 85.736L189.96 80.744H195.576ZM204.115 89H202.755V85.624H200.947L198.339 89H196.53L199.379 85.576C198.771 85.48 198.275 85.224 197.891 84.808C197.517 84.3813 197.331 83.8373 197.331 83.176C197.331 82.408 197.56 81.8107 198.019 81.384C198.477 80.9573 199.112 80.744 199.923 80.744H204.115V89ZM202.755 81.944H200.355C199.267 81.944 198.723 82.3547 198.723 83.176C198.723 84.008 199.267 84.424 200.355 84.424H202.755V81.944ZM211.993 89H210.633V80.744H217.481V89H216.121V81.944H211.993V89ZM220.804 80.744V81.912C221.401 80.9627 222.329 80.488 223.588 80.488C224.74 80.488 225.652 80.8773 226.324 81.656C227.007 82.4347 227.348 83.4907 227.348 84.824C227.348 86.1573 227.012 87.224 226.34 88.024C225.679 88.8133 224.783 89.208 223.652 89.208C222.468 89.208 221.545 88.7547 220.884 87.848V92.184H219.524V80.744H220.804ZM223.38 81.624C222.591 81.624 221.967 81.912 221.508 82.488C221.06 83.0533 220.836 83.8373 220.836 84.84C220.836 85.8427 221.065 86.632 221.524 87.208C221.993 87.7733 222.628 88.056 223.428 88.056C224.207 88.056 224.82 87.768 225.268 87.192C225.716 86.616 225.94 85.832 225.94 84.84C225.94 83.8373 225.711 83.0533 225.252 82.488C224.804 81.912 224.18 81.624 223.38 81.624ZM229.664 81.688C230.39 80.8987 231.376 80.504 232.624 80.504C233.872 80.504 234.843 80.8827 235.536 81.64C236.23 82.3973 236.576 83.4587 236.576 84.824C236.576 86.2213 236.23 87.3093 235.536 88.088C234.843 88.8667 233.867 89.256 232.608 89.256C231.35 89.256 230.363 88.872 229.648 88.104C228.934 87.336 228.576 86.2693 228.576 84.904C228.576 83.5493 228.939 82.4773 229.664 81.688ZM234.48 82.52C234.022 81.9333 233.392 81.64 232.592 81.64C231.792 81.64 231.158 81.9333 230.688 82.52C230.219 83.1067 229.984 83.8907 229.984 84.872C229.984 85.8853 230.214 86.68 230.672 87.256C231.142 87.8213 231.792 88.104 232.624 88.104C233.424 88.104 234.048 87.816 234.496 87.24C234.955 86.664 235.184 85.8693 235.184 84.856C235.184 83.8747 234.95 83.096 234.48 82.52ZM249.332 84.744C249.332 85.5653 249.231 86.296 249.028 86.936C248.825 87.576 248.463 88.1147 247.94 88.552C247.428 88.9787 246.783 89.192 246.004 89.192C245.705 89.192 245.385 89.1067 245.044 88.936C244.703 88.7653 244.447 88.5787 244.276 88.376H244.244V92.184H242.9V88.376H242.868C242.697 88.5787 242.441 88.7653 242.1 88.936C241.759 89.1067 241.439 89.192 241.14 89.192C240.361 89.192 239.711 88.9787 239.188 88.552C238.676 88.1147 238.319 87.576 238.116 86.936C237.913 86.296 237.812 85.5653 237.812 84.744C237.812 83.4427 238.1 82.4187 238.676 81.672C239.252 80.9147 240.036 80.536 241.028 80.536C241.369 80.536 241.716 80.632 242.068 80.824C242.431 81.0053 242.692 81.208 242.852 81.432H242.9V77.608H244.244V81.432H244.292C244.452 81.208 244.708 81.0053 245.06 80.824C245.423 80.632 245.775 80.536 246.116 80.536C247.108 80.536 247.892 80.9147 248.468 81.672C249.044 82.4187 249.332 83.4427 249.332 84.744ZM247.924 84.776C247.924 83.8267 247.759 83.0747 247.428 82.52C247.097 81.9547 246.596 81.672 245.924 81.672C245.572 81.672 245.231 81.7627 244.9 81.944C244.58 82.1253 244.361 82.4187 244.244 82.824V86.984C244.297 87.2827 244.473 87.5387 244.772 87.752C245.081 87.9547 245.439 88.056 245.844 88.056C246.239 88.056 246.575 87.96 246.852 87.768C247.14 87.576 247.359 87.3147 247.508 86.984C247.657 86.6427 247.764 86.296 247.828 85.944C247.892 85.5813 247.924 85.192 247.924 84.776ZM242.9 86.984V82.824C242.783 82.4187 242.559 82.1253 242.228 81.944C241.908 81.7627 241.572 81.672 241.22 81.672C240.548 81.672 240.047 81.9547 239.716 82.52C239.385 83.0747 239.22 83.8267 239.22 84.776C239.22 85.192 239.252 85.5813 239.316 85.944C239.38 86.296 239.487 86.6427 239.636 86.984C239.785 87.3147 239.999 87.576 240.276 87.768C240.564 87.96 240.905 88.056 241.3 88.056C241.705 88.056 242.057 87.9547 242.356 87.752C242.665 87.5387 242.847 87.2827 242.9 86.984ZM258.049 86.392C257.633 88.312 256.433 89.272 254.449 89.272C253.233 89.272 252.278 88.8933 251.585 88.136C250.902 87.3787 250.561 86.328 250.561 84.984C250.561 83.6507 250.913 82.5733 251.617 81.752C252.331 80.92 253.259 80.504 254.401 80.504C255.67 80.504 256.609 80.936 257.217 81.8C257.835 82.6533 258.145 83.736 258.145 85.048V85.24H251.937L251.921 85.336C251.921 86.2107 252.15 86.8987 252.609 87.4C253.067 87.9013 253.697 88.152 254.497 88.152C255.094 88.152 255.563 88.0133 255.905 87.736C256.257 87.4587 256.529 87.0107 256.721 86.392H258.049ZM256.737 84.136C256.673 83.3467 256.433 82.7333 256.017 82.296C255.601 81.848 255.051 81.624 254.369 81.624C253.707 81.624 253.158 81.848 252.721 82.296C252.283 82.744 252.022 83.3573 251.937 84.136H256.737ZM266.691 85.992C266.573 86.984 266.195 87.7733 265.555 88.36C264.925 88.9467 264.104 89.24 263.091 89.24C261.843 89.24 260.877 88.856 260.195 88.088C259.512 87.3093 259.171 86.2747 259.171 84.984C259.171 83.608 259.528 82.52 260.243 81.72C260.957 80.9093 261.923 80.504 263.139 80.504C264.152 80.504 264.963 80.76 265.571 81.272C266.179 81.7733 266.536 82.4933 266.642 83.432H265.235C264.989 82.2373 264.296 81.64 263.155 81.64C262.365 81.64 261.741 81.9333 261.283 82.52C260.824 83.096 260.595 83.88 260.595 84.872C260.595 85.8747 260.813 86.664 261.251 87.24C261.688 87.816 262.291 88.104 263.059 88.104C263.677 88.104 264.179 87.9227 264.563 87.56C264.957 87.1973 265.208 86.6747 265.315 85.992H266.691ZM275.284 85.992C275.167 86.984 274.788 87.7733 274.148 88.36C273.519 88.9467 272.698 89.24 271.684 89.24C270.436 89.24 269.471 88.856 268.788 88.088C268.106 87.3093 267.764 86.2747 267.764 84.984C267.764 83.608 268.122 82.52 268.836 81.72C269.551 80.9093 270.516 80.504 271.732 80.504C272.746 80.504 273.556 80.76 274.164 81.272C274.772 81.7733 275.13 82.4933 275.236 83.432H273.828C273.583 82.2373 272.89 81.64 271.748 81.64C270.959 81.64 270.335 81.9333 269.876 82.52C269.418 83.096 269.188 83.88 269.188 84.872C269.188 85.8747 269.407 86.664 269.844 87.24C270.282 87.816 270.884 88.104 271.652 88.104C272.271 88.104 272.772 87.9227 273.156 87.56C273.551 87.1973 273.802 86.6747 273.908 85.992H275.284ZM278.518 89H276.774V80.744H278.134V87.48H278.166L281.878 80.744H283.622V89H282.262V82.264H282.23L278.518 89ZM286.321 81.688C287.046 80.8987 288.033 80.504 289.281 80.504C290.529 80.504 291.499 80.8827 292.193 81.64C292.886 82.3973 293.233 83.4587 293.233 84.824C293.233 86.2213 292.886 87.3093 292.193 88.088C291.499 88.8667 290.523 89.256 289.265 89.256C288.006 89.256 287.019 88.872 286.305 88.104C285.59 87.336 285.233 86.2693 285.233 84.904C285.233 83.5493 285.595 82.4773 286.321 81.688ZM291.137 82.52C290.678 81.9333 290.049 81.64 289.249 81.64C288.449 81.64 287.814 81.9333 287.345 82.52C286.875 83.1067 286.641 83.8907 286.641 84.872C286.641 85.8853 286.87 86.68 287.329 87.256C287.798 87.8213 288.449 88.104 289.281 88.104C290.081 88.104 290.705 87.816 291.153 87.24C291.611 86.664 291.841 85.8693 291.841 84.856C291.841 83.8747 291.606 83.096 291.137 82.52ZM296.212 89H294.852V80.744H296.212V84.024H300.34V80.744H301.7V89H300.34V85.224H296.212V89ZM311.055 87.912V88.968C310.777 89.0747 310.468 89.128 310.127 89.128C309.348 89.128 308.948 88.7227 308.927 87.912C308.148 88.7867 307.151 89.224 305.935 89.224C305.124 89.224 304.479 89.016 303.999 88.6C303.529 88.184 303.295 87.6133 303.295 86.888C303.295 85.416 304.271 84.5573 306.223 84.312C307.375 84.1733 308.041 84.072 308.223 84.008C308.607 83.88 308.815 83.6133 308.847 83.208C308.857 83.144 308.863 83.0747 308.863 83C308.863 82.0933 308.239 81.64 306.991 81.64C306.351 81.64 305.865 81.7733 305.535 82.04C305.204 82.296 305.007 82.7227 304.943 83.32H303.615C303.636 82.4347 303.951 81.7467 304.559 81.256C305.167 80.7653 306.004 80.52 307.071 80.52C308.233 80.52 309.097 80.7867 309.663 81.32C309.844 81.4907 309.977 81.7147 310.063 81.992C310.148 82.2693 310.196 82.4987 310.207 82.68C310.217 82.8507 310.223 83.112 310.223 83.464C310.223 83.88 310.212 84.4987 310.191 85.32C310.169 86.1307 310.159 86.7387 310.159 87.144C310.159 87.4427 310.196 87.656 310.271 87.784C310.356 87.9013 310.505 87.96 310.719 87.96C310.804 87.96 310.916 87.944 311.055 87.912ZM308.863 84.712C308.767 84.7867 308.665 84.8507 308.559 84.904C308.452 84.9573 308.313 85 308.143 85.032C307.983 85.064 307.871 85.0907 307.807 85.112C307.753 85.1227 307.615 85.144 307.391 85.176C307.167 85.1973 307.049 85.208 307.039 85.208C306.708 85.2507 306.489 85.2827 306.383 85.304C306.287 85.3147 306.095 85.3573 305.807 85.432C305.529 85.5067 305.332 85.592 305.215 85.688C305.097 85.784 304.98 85.928 304.863 86.12C304.756 86.3013 304.703 86.52 304.703 86.776C304.703 87.2027 304.847 87.5387 305.135 87.784C305.433 88.0293 305.839 88.152 306.351 88.152C307.001 88.152 307.583 87.96 308.095 87.576C308.607 87.192 308.863 86.7387 308.863 86.216V84.712ZM319.217 80.744V89H317.857V81.944H314.913L314.801 85.592C314.769 86.8507 314.539 87.7627 314.113 88.328C313.686 88.8933 313.153 89.176 312.513 89.176C312.118 89.176 311.793 89.1173 311.537 89V87.896C311.675 87.9707 311.915 88.008 312.257 88.008C312.577 88.008 312.849 87.8373 313.073 87.496C313.307 87.144 313.435 86.5573 313.457 85.736L313.601 80.744H319.217ZM321.883 81.688C322.608 80.8987 323.595 80.504 324.843 80.504C326.091 80.504 327.062 80.8827 327.755 81.64C328.448 82.3973 328.795 83.4587 328.795 84.824C328.795 86.2213 328.448 87.3093 327.755 88.088C327.062 88.8667 326.086 89.256 324.827 89.256C323.568 89.256 322.582 88.872 321.867 88.104C321.152 87.336 320.795 86.2693 320.795 84.904C320.795 83.5493 321.158 82.4773 321.883 81.688ZM326.699 82.52C326.24 81.9333 325.611 81.64 324.811 81.64C324.011 81.64 323.376 81.9333 322.907 82.52C322.438 83.1067 322.203 83.8907 322.203 84.872C322.203 85.8853 322.432 86.68 322.891 87.256C323.36 87.8213 324.011 88.104 324.843 88.104C325.643 88.104 326.267 87.816 326.715 87.24C327.174 86.664 327.403 85.8693 327.403 84.856C327.403 83.8747 327.168 83.096 326.699 82.52ZM330.383 89V80.744H334.207C334.751 80.744 335.215 80.792 335.599 80.888C335.983 80.9733 336.319 81.1707 336.607 81.48C336.895 81.7893 337.039 82.2107 337.039 82.744C337.039 83.5547 336.633 84.1467 335.823 84.52V84.536C336.313 84.632 336.697 84.8613 336.975 85.224C337.252 85.576 337.391 86.024 337.391 86.568C337.391 87.272 337.156 87.8533 336.687 88.312C336.217 88.7707 335.615 89 334.879 89H330.383ZM334.063 84.072C334.628 84.072 335.028 83.9813 335.263 83.8C335.508 83.608 335.631 83.3307 335.631 82.968C335.631 82.6053 335.513 82.3387 335.279 82.168C335.044 81.9973 334.639 81.912 334.063 81.912H331.711V84.072H334.063ZM331.711 85.224V87.832H334.623C335.049 87.832 335.38 87.704 335.615 87.448C335.86 87.192 335.983 86.8613 335.983 86.456C335.983 85.6347 335.449 85.224 334.383 85.224H331.711ZM104.768 110H103.024V101.744H104.384V108.48H104.416L108.128 101.744H109.872V110H108.512V103.264H108.48L104.768 110ZM124.368 112.624H123.072V110H116.768V112.624H115.472V108.8H116.368C116.624 108.309 116.858 107.552 117.072 106.528C117.296 105.493 117.408 104.485 117.408 103.504V101.744H123.296V108.8H124.368V112.624ZM121.936 108.8V102.944H118.736V103.632C118.736 104.603 118.634 105.589 118.432 106.592C118.24 107.584 118.021 108.32 117.776 108.8H121.936ZM126.211 102.688C126.937 101.899 127.923 101.504 129.171 101.504C130.419 101.504 131.39 101.883 132.083 102.64C132.777 103.397 133.123 104.459 133.123 105.824C133.123 107.221 132.777 108.309 132.083 109.088C131.39 109.867 130.414 110.256 129.155 110.256C127.897 110.256 126.91 109.872 126.195 109.104C125.481 108.336 125.123 107.269 125.123 105.904C125.123 104.549 125.486 103.477 126.211 102.688ZM131.027 103.52C130.569 102.933 129.939 102.64 129.139 102.64C128.339 102.64 127.705 102.933 127.235 103.52C126.766 104.107 126.531 104.891 126.531 105.872C126.531 106.885 126.761 107.68 127.219 108.256C127.689 108.821 128.339 109.104 129.171 109.104C129.971 109.104 130.595 108.816 131.043 108.24C131.502 107.664 131.731 106.869 131.731 105.856C131.731 104.875 131.497 104.096 131.027 103.52ZM143.687 110H142.327V103.488H142.279L139.831 110H138.583L136.135 103.488H136.087V110H134.727V101.744H136.679L139.191 108.432H139.223L141.735 101.744H143.687V110ZM153.008 108.912V109.968C152.731 110.075 152.421 110.128 152.08 110.128C151.301 110.128 150.901 109.723 150.88 108.912C150.101 109.787 149.104 110.224 147.888 110.224C147.077 110.224 146.432 110.016 145.952 109.6C145.483 109.184 145.248 108.613 145.248 107.888C145.248 106.416 146.224 105.557 148.176 105.312C149.328 105.173 149.995 105.072 150.176 105.008C150.56 104.88 150.768 104.613 150.8 104.208C150.811 104.144 150.816 104.075 150.816 104C150.816 103.093 150.192 102.64 148.944 102.64C148.304 102.64 147.819 102.773 147.488 103.04C147.157 103.296 146.96 103.723 146.896 104.32H145.568C145.589 103.435 145.904 102.747 146.512 102.256C147.12 101.765 147.957 101.52 149.024 101.52C150.187 101.52 151.051 101.787 151.616 102.32C151.797 102.491 151.931 102.715 152.016 102.992C152.101 103.269 152.149 103.499 152.16 103.68C152.171 103.851 152.176 104.112 152.176 104.464C152.176 104.88 152.165 105.499 152.144 106.32C152.123 107.131 152.112 107.739 152.112 108.144C152.112 108.443 152.149 108.656 152.224 108.784C152.309 108.901 152.459 108.96 152.672 108.96C152.757 108.96 152.869 108.944 153.008 108.912ZM150.816 105.712C150.72 105.787 150.619 105.851 150.512 105.904C150.405 105.957 150.267 106 150.096 106.032C149.936 106.064 149.824 106.091 149.76 106.112C149.707 106.123 149.568 106.144 149.344 106.176C149.12 106.197 149.003 106.208 148.992 106.208C148.661 106.251 148.443 106.283 148.336 106.304C148.24 106.315 148.048 106.357 147.76 106.432C147.483 106.507 147.285 106.592 147.168 106.688C147.051 106.784 146.933 106.928 146.816 107.12C146.709 107.301 146.656 107.52 146.656 107.776C146.656 108.203 146.8 108.539 147.088 108.784C147.387 109.029 147.792 109.152 148.304 109.152C148.955 109.152 149.536 108.96 150.048 108.576C150.56 108.192 150.816 107.739 150.816 107.216V105.712ZM154.29 110V101.744H155.65V108.8H159.058V101.744H160.418V108.8H163.826V101.744H165.186V110H154.29ZM168.587 110H167.227V101.744H168.587V105.024H172.715V101.744H174.075V110H172.715V106.224H168.587V110ZM183.174 107.392C182.758 109.312 181.558 110.272 179.574 110.272C178.358 110.272 177.403 109.893 176.71 109.136C176.027 108.379 175.686 107.328 175.686 105.984C175.686 104.651 176.038 103.573 176.742 102.752C177.456 101.92 178.384 101.504 179.526 101.504C180.795 101.504 181.734 101.936 182.342 102.8C182.96 103.653 183.27 104.736 183.27 106.048V106.24H177.062L177.046 106.336C177.046 107.211 177.275 107.899 177.734 108.4C178.192 108.901 178.822 109.152 179.622 109.152C180.219 109.152 180.688 109.013 181.03 108.736C181.382 108.459 181.654 108.011 181.846 107.392H183.174ZM181.862 105.136C181.798 104.347 181.558 103.733 181.142 103.296C180.726 102.848 180.176 102.624 179.494 102.624C178.832 102.624 178.283 102.848 177.846 103.296C177.408 103.744 177.147 104.357 177.062 105.136H181.862ZM190.408 102.944H186.104V110H184.743V101.744H190.408V102.944ZM191.696 102.688C192.421 101.899 193.408 101.504 194.656 101.504C195.904 101.504 196.874 101.883 197.568 102.64C198.261 103.397 198.608 104.459 198.608 105.824C198.608 107.221 198.261 108.309 197.568 109.088C196.874 109.867 195.898 110.256 194.64 110.256C193.381 110.256 192.394 109.872 191.68 109.104C190.965 108.336 190.608 107.269 190.608 105.904C190.608 104.549 190.97 103.477 191.696 102.688ZM196.512 103.52C196.053 102.933 195.424 102.64 194.624 102.64C193.824 102.64 193.189 102.933 192.72 103.52C192.25 104.107 192.016 104.891 192.016 105.872C192.016 106.885 192.245 107.68 192.704 108.256C193.173 108.821 193.824 109.104 194.656 109.104C195.456 109.104 196.08 108.816 196.528 108.24C196.986 107.664 197.216 106.869 197.216 105.856C197.216 104.875 196.981 104.096 196.512 103.52ZM206.424 110H204.68V101.744H206.04V108.48H206.072L209.784 101.744H211.528V110H210.168V103.264H210.136L206.424 110ZM220.675 106.992C220.558 107.984 220.179 108.773 219.539 109.36C218.91 109.947 218.088 110.24 217.075 110.24C215.827 110.24 214.862 109.856 214.179 109.088C213.496 108.309 213.155 107.275 213.155 105.984C213.155 104.608 213.512 103.52 214.227 102.72C214.942 101.909 215.907 101.504 217.123 101.504C218.136 101.504 218.947 101.76 219.555 102.272C220.163 102.773 220.52 103.493 220.627 104.432H219.219C218.974 103.237 218.28 102.64 217.139 102.64C216.35 102.64 215.726 102.933 215.267 103.52C214.808 104.096 214.579 104.88 214.579 105.872C214.579 106.875 214.798 107.664 215.235 108.24C215.672 108.816 216.275 109.104 217.043 109.104C217.662 109.104 218.163 108.923 218.547 108.56C218.942 108.197 219.192 107.675 219.299 106.992H220.675ZM223.525 110H222.165V101.744H229.013V110H227.653V102.944H223.525V110ZM231.711 102.688C232.437 101.899 233.423 101.504 234.671 101.504C235.919 101.504 236.89 101.883 237.583 102.64C238.277 103.397 238.623 104.459 238.623 105.824C238.623 107.221 238.277 108.309 237.583 109.088C236.89 109.867 235.914 110.256 234.655 110.256C233.397 110.256 232.41 109.872 231.695 109.104C230.981 108.336 230.623 107.269 230.623 105.904C230.623 104.549 230.986 103.477 231.711 102.688ZM236.527 103.52C236.069 102.933 235.439 102.64 234.639 102.64C233.839 102.64 233.205 102.933 232.735 103.52C232.266 104.107 232.031 104.891 232.031 105.872C232.031 106.885 232.261 107.68 232.719 108.256C233.189 108.821 233.839 109.104 234.671 109.104C235.471 109.104 236.095 108.816 236.543 108.24C237.002 107.664 237.231 106.869 237.231 105.856C237.231 104.875 236.997 104.096 236.527 103.52ZM246.732 101.744V110H245.372V102.944H242.428L242.316 106.592C242.284 107.851 242.055 108.763 241.628 109.328C241.201 109.893 240.668 110.176 240.028 110.176C239.633 110.176 239.308 110.117 239.052 110V108.896C239.191 108.971 239.431 109.008 239.772 109.008C240.092 109.008 240.364 108.837 240.588 108.496C240.823 108.144 240.951 107.557 240.972 106.736L241.116 101.744H246.732ZM254.951 105.584C255.441 106.032 255.687 106.645 255.687 107.424C255.687 108.203 255.447 108.827 254.967 109.296C254.497 109.765 253.863 110 253.063 110H248.695V101.744H250.055V104.896H252.999C253.809 104.896 254.46 105.125 254.951 105.584ZM252.567 106.064H250.055V108.8H252.567C253.121 108.8 253.543 108.683 253.831 108.448C254.129 108.203 254.279 107.861 254.279 107.424C254.279 106.517 253.708 106.064 252.567 106.064ZM256.576 104.128C256.64 103.189 256.997 102.517 257.648 102.112C258.298 101.707 259.104 101.504 260.064 101.504C260.97 101.504 261.712 101.691 262.288 102.064C262.874 102.437 263.168 102.992 263.168 103.728C263.168 104.176 263.034 104.56 262.768 104.88C262.512 105.2 262.202 105.397 261.84 105.472V105.504C262.277 105.589 262.65 105.808 262.96 106.16C263.28 106.501 263.44 106.965 263.44 107.552C263.44 108.405 263.104 109.072 262.432 109.552C261.76 110.021 260.954 110.256 260.016 110.256C258.938 110.256 258.08 110.011 257.44 109.52C256.81 109.019 256.474 108.32 256.432 107.424H257.808C257.85 108 258.069 108.432 258.464 108.72C258.858 109.008 259.37 109.152 260 109.152C260.629 109.152 261.125 109.003 261.488 108.704C261.85 108.395 262.032 108.021 262.032 107.584C262.032 106.688 261.445 106.24 260.272 106.24H259.136V105.136H260.048C260.57 105.136 260.992 105.029 261.312 104.816C261.632 104.592 261.792 104.251 261.792 103.792C261.792 103.472 261.632 103.195 261.312 102.96C261.002 102.725 260.581 102.608 260.048 102.608C259.504 102.608 259.029 102.731 258.624 102.976C258.229 103.221 258.005 103.605 257.952 104.128H256.576ZM265.696 102.688C266.421 101.899 267.408 101.504 268.656 101.504C269.904 101.504 270.874 101.883 271.568 102.64C272.261 103.397 272.608 104.459 272.608 105.824C272.608 107.221 272.261 108.309 271.568 109.088C270.874 109.867 269.898 110.256 268.64 110.256C267.381 110.256 266.394 109.872 265.68 109.104C264.965 108.336 264.608 107.269 264.608 105.904C264.608 104.549 264.97 103.477 265.696 102.688ZM270.512 103.52C270.053 102.933 269.424 102.64 268.624 102.64C267.824 102.64 267.189 102.933 266.72 103.52C266.25 104.107 266.016 104.891 266.016 105.872C266.016 106.885 266.245 107.68 266.704 108.256C267.173 108.821 267.824 109.104 268.656 109.104C269.456 109.104 270.08 108.816 270.528 108.24C270.986 107.664 271.216 106.869 271.216 105.856C271.216 104.875 270.981 104.096 270.512 103.52ZM274.195 110V101.744H278.019C278.563 101.744 279.027 101.792 279.411 101.888C279.795 101.973 280.131 102.171 280.419 102.48C280.707 102.789 280.851 103.211 280.851 103.744C280.851 104.555 280.446 105.147 279.635 105.52V105.536C280.126 105.632 280.51 105.861 280.787 106.224C281.064 106.576 281.203 107.024 281.203 107.568C281.203 108.272 280.968 108.853 280.499 109.312C280.03 109.771 279.427 110 278.691 110H274.195ZM277.875 105.072C278.44 105.072 278.84 104.981 279.075 104.8C279.32 104.608 279.443 104.331 279.443 103.968C279.443 103.605 279.326 103.339 279.091 103.168C278.856 102.997 278.451 102.912 277.875 102.912H275.523V105.072H277.875ZM275.523 106.224V108.832H278.435C278.862 108.832 279.192 108.704 279.427 108.448C279.672 108.192 279.795 107.861 279.795 107.456C279.795 106.635 279.262 106.224 278.195 106.224H275.523ZM290.133 108.912V109.968C289.856 110.075 289.546 110.128 289.205 110.128C288.426 110.128 288.026 109.723 288.005 108.912C287.226 109.787 286.229 110.224 285.013 110.224C284.202 110.224 283.557 110.016 283.077 109.6C282.608 109.184 282.373 108.613 282.373 107.888C282.373 106.416 283.349 105.557 285.301 105.312C286.453 105.173 287.12 105.072 287.301 105.008C287.685 104.88 287.893 104.613 287.925 104.208C287.936 104.144 287.941 104.075 287.941 104C287.941 103.093 287.317 102.64 286.069 102.64C285.429 102.64 284.944 102.773 284.613 103.04C284.282 103.296 284.085 103.723 284.021 104.32H282.693C282.714 103.435 283.029 102.747 283.637 102.256C284.245 101.765 285.082 101.52 286.149 101.52C287.312 101.52 288.176 101.787 288.741 102.32C288.922 102.491 289.056 102.715 289.141 102.992C289.226 103.269 289.274 103.499 289.285 103.68C289.296 103.851 289.301 104.112 289.301 104.464C289.301 104.88 289.29 105.499 289.269 106.32C289.248 107.131 289.237 107.739 289.237 108.144C289.237 108.443 289.274 108.656 289.349 108.784C289.434 108.901 289.584 108.96 289.797 108.96C289.882 108.96 289.994 108.944 290.133 108.912ZM287.941 105.712C287.845 105.787 287.744 105.851 287.637 105.904C287.53 105.957 287.392 106 287.221 106.032C287.061 106.064 286.949 106.091 286.885 106.112C286.832 106.123 286.693 106.144 286.469 106.176C286.245 106.197 286.128 106.208 286.117 106.208C285.786 106.251 285.568 106.283 285.461 106.304C285.365 106.315 285.173 106.357 284.885 106.432C284.608 106.507 284.41 106.592 284.293 106.688C284.176 106.784 284.058 106.928 283.941 107.12C283.834 107.301 283.781 107.52 283.781 107.776C283.781 108.203 283.925 108.539 284.213 108.784C284.512 109.029 284.917 109.152 285.429 109.152C286.08 109.152 286.661 108.96 287.173 108.576C287.685 108.192 287.941 107.739 287.941 107.216V105.712ZM292.775 110H291.415V101.744H292.775V105.024H296.903V101.744H298.263V110H296.903V106.224H292.775V110ZM302.049 110H300.305V101.744H301.665V108.48H301.697L305.409 101.744H307.153V110H305.793V103.264H305.761L302.049 110ZM315.724 110H314.364V106.624H312.556L309.948 110H308.14L310.988 106.576C310.38 106.48 309.884 106.224 309.5 105.808C309.127 105.381 308.94 104.837 308.94 104.176C308.94 103.408 309.169 102.811 309.628 102.384C310.087 101.957 310.721 101.744 311.532 101.744H315.724V110ZM314.364 102.944H311.964C310.876 102.944 310.332 103.355 310.332 104.176C310.332 105.008 310.876 105.424 311.964 105.424H314.364V102.944ZM319.87 108.224V110H318.094V108.224H319.87ZM112.288 119.608V131H110.784V120.92H104.768V131H103.264V119.608H112.288ZM115.851 122.744V123.912C116.448 122.963 117.376 122.488 118.635 122.488C119.787 122.488 120.699 122.877 121.371 123.656C122.054 124.435 122.395 125.491 122.395 126.824C122.395 128.157 122.059 129.224 121.387 130.024C120.726 130.813 119.83 131.208 118.699 131.208C117.515 131.208 116.592 130.755 115.931 129.848V134.184H114.571V122.744H115.851ZM118.427 123.624C117.638 123.624 117.014 123.912 116.555 124.488C116.107 125.053 115.883 125.837 115.883 126.84C115.883 127.843 116.112 128.632 116.571 129.208C117.04 129.773 117.675 130.056 118.475 130.056C119.254 130.056 119.867 129.768 120.315 129.192C120.763 128.616 120.987 127.832 120.987 126.84C120.987 125.837 120.758 125.053 120.299 124.488C119.851 123.912 119.227 123.624 118.427 123.624ZM124.711 123.688C125.437 122.899 126.423 122.504 127.671 122.504C128.919 122.504 129.89 122.883 130.583 123.64C131.277 124.397 131.623 125.459 131.623 126.824C131.623 128.221 131.277 129.309 130.583 130.088C129.89 130.867 128.914 131.256 127.655 131.256C126.397 131.256 125.41 130.872 124.695 130.104C123.981 129.336 123.623 128.269 123.623 126.904C123.623 125.549 123.986 124.477 124.711 123.688ZM129.527 124.52C129.069 123.933 128.439 123.64 127.639 123.64C126.839 123.64 126.205 123.933 125.735 124.52C125.266 125.107 125.031 125.891 125.031 126.872C125.031 127.885 125.261 128.68 125.719 129.256C126.189 129.821 126.839 130.104 127.671 130.104C128.471 130.104 129.095 129.816 129.543 129.24C130.002 128.664 130.231 127.869 130.231 126.856C130.231 125.875 129.997 125.096 129.527 124.52ZM140.347 127.992C140.229 128.984 139.851 129.773 139.211 130.36C138.581 130.947 137.76 131.24 136.747 131.24C135.499 131.24 134.533 130.856 133.851 130.088C133.168 129.309 132.827 128.275 132.827 126.984C132.827 125.608 133.184 124.52 133.899 123.72C134.613 122.909 135.579 122.504 136.795 122.504C137.808 122.504 138.619 122.76 139.227 123.272C139.835 123.773 140.192 124.493 140.299 125.432H138.891C138.645 124.237 137.952 123.64 136.811 123.64C136.021 123.64 135.397 123.933 134.939 124.52C134.48 125.096 134.251 125.88 134.251 126.872C134.251 127.875 134.469 128.664 134.907 129.24C135.344 129.816 135.947 130.104 136.715 130.104C137.333 130.104 137.835 129.923 138.219 129.56C138.613 129.197 138.864 128.675 138.971 127.992H140.347ZM148.157 123.944H145.197V131H143.837V123.944H140.877V122.744H148.157V123.944ZM157.115 122.744H158.475V131H157.115V122.744ZM155.067 126.584C155.557 127.032 155.803 127.645 155.803 128.424C155.803 129.203 155.563 129.827 155.083 130.296C154.613 130.765 153.979 131 153.179 131H149.195V122.744H150.555V125.896H153.115C153.925 125.896 154.576 126.125 155.067 126.584ZM152.683 127.064H150.555V129.8H152.683C153.237 129.8 153.659 129.683 153.947 129.448C154.245 129.203 154.395 128.861 154.395 128.424C154.395 127.517 153.824 127.064 152.683 127.064ZM164.93 131V122.744H168.754C169.298 122.744 169.762 122.792 170.146 122.888C170.53 122.973 170.866 123.171 171.154 123.48C171.442 123.789 171.586 124.211 171.586 124.744C171.586 125.555 171.18 126.147 170.37 126.52V126.536C170.86 126.632 171.244 126.861 171.522 127.224C171.799 127.576 171.938 128.024 171.938 128.568C171.938 129.272 171.703 129.853 171.234 130.312C170.764 130.771 170.162 131 169.426 131H164.93ZM168.61 126.072C169.175 126.072 169.575 125.981 169.81 125.8C170.055 125.608 170.178 125.331 170.178 124.968C170.178 124.605 170.06 124.339 169.826 124.168C169.591 123.997 169.186 123.912 168.61 123.912H166.258V126.072H168.61ZM166.258 127.224V129.832H169.17C169.596 129.832 169.927 129.704 170.162 129.448C170.407 129.192 170.53 128.861 170.53 128.456C170.53 127.635 169.996 127.224 168.93 127.224H166.258ZM184.968 126.984C184.968 128.275 184.627 129.309 183.944 130.088C183.262 130.856 182.296 131.24 181.048 131.24C180.067 131.24 179.262 130.968 178.632 130.424C178.014 129.869 177.63 129.123 177.48 128.184H178.856C178.984 128.803 179.24 129.277 179.624 129.608C180.008 129.939 180.494 130.104 181.08 130.104C181.795 130.104 182.366 129.853 182.792 129.352C183.23 128.84 183.475 128.136 183.528 127.24H180.072V126.136H183.496C183.379 125.357 183.102 124.749 182.664 124.312C182.227 123.864 181.667 123.64 180.984 123.64C179.95 123.64 179.283 124.141 178.984 125.144H177.544C177.694 124.301 178.067 123.651 178.664 123.192C179.272 122.733 180.051 122.504 181 122.504C182.216 122.504 183.182 122.909 183.896 123.72C184.611 124.52 184.968 125.608 184.968 126.984ZM193.994 131H192.266L189.258 126.936L187.962 128.2V131H186.602V122.744H187.962V126.68L191.738 122.744H193.562L190.234 125.992L193.994 131ZM202.003 127.992C201.886 128.984 201.507 129.773 200.867 130.36C200.238 130.947 199.416 131.24 198.403 131.24C197.155 131.24 196.19 130.856 195.507 130.088C194.824 129.309 194.483 128.275 194.483 126.984C194.483 125.608 194.84 124.52 195.555 123.72C196.27 122.909 197.235 122.504 198.451 122.504C199.464 122.504 200.275 122.76 200.883 123.272C201.491 123.773 201.848 124.493 201.955 125.432H200.547C200.302 124.237 199.608 123.64 198.467 123.64C197.678 123.64 197.054 123.933 196.595 124.52C196.136 125.096 195.907 125.88 195.907 126.872C195.907 127.875 196.126 128.664 196.563 129.24C197 129.816 197.603 130.104 198.371 130.104C198.99 130.104 199.491 129.923 199.875 129.56C200.27 129.197 200.52 128.675 200.627 127.992H202.003ZM204.853 131H203.493V122.744H210.341V131H208.981V123.944H204.853V131ZM219.263 122.744V131H217.903V123.944H214.959L214.847 127.592C214.815 128.851 214.586 129.763 214.159 130.328C213.733 130.893 213.199 131.176 212.559 131.176C212.165 131.176 211.839 131.117 211.583 131V129.896C211.722 129.971 211.962 130.008 212.303 130.008C212.623 130.008 212.895 129.837 213.119 129.496C213.354 129.144 213.482 128.557 213.503 127.736L213.647 122.744H219.263ZM228.106 122.744L224.57 132.056C224.431 132.429 224.309 132.717 224.202 132.92C224.106 133.133 223.962 133.363 223.77 133.608C223.589 133.864 223.365 134.045 223.098 134.152C222.842 134.269 222.538 134.328 222.186 134.328C221.919 134.328 221.583 134.28 221.178 134.184V132.968C221.573 133.085 221.866 133.144 222.058 133.144C222.506 133.144 222.826 132.915 223.018 132.456L223.658 130.952L220.378 122.744H221.914L224.362 129.32L226.682 122.744H228.106ZM236.399 129.912V130.968C236.121 131.075 235.812 131.128 235.471 131.128C234.692 131.128 234.292 130.723 234.271 129.912C233.492 130.787 232.495 131.224 231.279 131.224C230.468 131.224 229.823 131.016 229.343 130.6C228.873 130.184 228.639 129.613 228.639 128.888C228.639 127.416 229.615 126.557 231.567 126.312C232.719 126.173 233.385 126.072 233.567 126.008C233.951 125.88 234.159 125.613 234.191 125.208C234.201 125.144 234.207 125.075 234.207 125C234.207 124.093 233.583 123.64 232.335 123.64C231.695 123.64 231.209 123.773 230.879 124.04C230.548 124.296 230.351 124.723 230.287 125.32H228.959C228.98 124.435 229.295 123.747 229.903 123.256C230.511 122.765 231.348 122.52 232.415 122.52C233.577 122.52 234.441 122.787 235.007 123.32C235.188 123.491 235.321 123.715 235.407 123.992C235.492 124.269 235.54 124.499 235.551 124.68C235.561 124.851 235.567 125.112 235.567 125.464C235.567 125.88 235.556 126.499 235.535 127.32C235.513 128.131 235.503 128.739 235.503 129.144C235.503 129.443 235.54 129.656 235.615 129.784C235.7 129.901 235.849 129.96 236.062 129.96C236.148 129.96 236.26 129.944 236.399 129.912ZM234.207 126.712C234.111 126.787 234.009 126.851 233.903 126.904C233.796 126.957 233.657 127 233.487 127.032C233.327 127.064 233.215 127.091 233.151 127.112C233.097 127.123 232.959 127.144 232.735 127.176C232.511 127.197 232.393 127.208 232.383 127.208C232.052 127.251 231.833 127.283 231.727 127.304C231.631 127.315 231.439 127.357 231.151 127.432C230.873 127.507 230.676 127.592 230.559 127.688C230.441 127.784 230.324 127.928 230.207 128.12C230.1 128.301 230.047 128.52 230.047 128.776C230.047 129.203 230.191 129.539 230.479 129.784C230.777 130.029 231.183 130.152 231.695 130.152C232.345 130.152 232.927 129.96 233.439 129.576C233.951 129.192 234.207 128.739 234.207 128.216V126.712ZM244 123.944H241.04V131H239.68V123.944H236.72V122.744H244V123.944ZM252.117 129.912V130.968C251.84 131.075 251.531 131.128 251.189 131.128C250.411 131.128 250.011 130.723 249.989 129.912C249.211 130.787 248.213 131.224 246.997 131.224C246.187 131.224 245.541 131.016 245.061 130.6C244.592 130.184 244.357 129.613 244.357 128.888C244.357 127.416 245.333 126.557 247.285 126.312C248.437 126.173 249.104 126.072 249.285 126.008C249.669 125.88 249.877 125.613 249.909 125.208C249.92 125.144 249.925 125.075 249.925 125C249.925 124.093 249.301 123.64 248.053 123.64C247.413 123.64 246.928 123.773 246.597 124.04C246.267 124.296 246.069 124.723 246.005 125.32H244.677C244.699 124.435 245.013 123.747 245.621 123.256C246.229 122.765 247.067 122.52 248.133 122.52C249.296 122.52 250.16 122.787 250.725 123.32C250.907 123.491 251.04 123.715 251.125 123.992C251.211 124.269 251.259 124.499 251.269 124.68C251.28 124.851 251.285 125.112 251.285 125.464C251.285 125.88 251.275 126.499 251.253 127.32C251.232 128.131 251.221 128.739 251.221 129.144C251.221 129.443 251.259 129.656 251.333 129.784C251.419 129.901 251.568 129.96 251.781 129.96C251.867 129.96 251.979 129.944 252.117 129.912ZM249.925 126.712C249.829 126.787 249.728 126.851 249.621 126.904C249.515 126.957 249.376 127 249.205 127.032C249.045 127.064 248.933 127.091 248.869 127.112C248.816 127.123 248.677 127.144 248.453 127.176C248.229 127.197 248.112 127.208 248.101 127.208C247.771 127.251 247.552 127.283 247.445 127.304C247.349 127.315 247.157 127.357 246.869 127.432C246.592 127.507 246.395 127.592 246.277 127.688C246.16 127.784 246.043 127.928 245.925 128.12C245.819 128.301 245.765 128.52 245.765 128.776C245.765 129.203 245.909 129.539 246.197 129.784C246.496 130.029 246.901 130.152 247.413 130.152C248.064 130.152 248.645 129.96 249.157 129.576C249.669 129.192 249.925 128.739 249.925 128.216V126.712ZM259.959 133.624V131H253.399V122.744H254.759V129.8H258.823V122.744H260.183V129.8H261.255V133.624H259.959ZM264.268 131H262.524V122.744H263.884V129.48H263.916L267.628 122.744H269.372V131H268.012V124.264H267.98L264.268 131ZM273.159 131H271.415V122.744H272.775V129.48H272.807L276.519 122.744H278.263V131H276.903V124.264H276.871L273.159 131Z" fill="#777777"/>
</svg>
