<svg width="32" height="32" viewBox="0 0 32 32" fill="none" xmlns="http://www.w3.org/2000/svg">
<path d="M22.6307 11.2404C23.0885 11.6982 23.0885 12.4402 22.6307 12.8977L14.7691 20.7596C14.3113 21.2171 13.5695 21.2171 13.1117 20.7596L9.36929 17.0169C8.91153 16.5594 8.91153 15.8174 9.36929 15.3598C9.82683 14.9021 10.5689 14.9021 11.0264 15.3598L13.9403 18.2737L20.9734 11.2404C21.4311 10.7829 22.1732 10.7829 22.6307 11.2404ZM31 16C31 24.2912 24.2901 31 16 31C7.70876 31 1 24.2901 1 16C1 7.70876 7.7099 1 16 1C24.2912 1 31 7.7099 31 16ZM28.6562 16C28.6562 9.00423 22.9949 3.34375 16 3.34375C9.00423 3.34375 3.34375 9.00514 3.34375 16C3.34375 22.9958 9.00514 28.6562 16 28.6562C22.9958 28.6562 28.6562 22.9949 28.6562 16Z" fill="white" stroke="white"/>
</svg>
