<svg width="36" height="30" viewBox="0 0 36 30" fill="none" xmlns="http://www.w3.org/2000/svg">
<path d="M9.37472 10.8367C9.25327 11.2106 9.35455 11.621 9.63615 11.8954L12.882 15.0596L12.1158 19.5272C12.0493 19.9146 12.2087 20.3062 12.5268 20.5373C12.7067 20.668 12.9197 20.7345 13.1339 20.7345C13.2982 20.7345 13.4632 20.6953 13.6143 20.6159L17.6267 18.5066L21.6391 20.6159C21.7901 20.6953 21.9551 20.7345 22.1196 20.7345H22.1231C22.6925 20.7334 23.1539 20.2714 23.1539 19.7018C23.1539 19.6225 23.1448 19.5453 23.1279 19.471L22.3712 15.0596L25.6173 11.8954C25.8988 11.621 26.0002 11.2106 25.8786 10.8367C25.7571 10.4628 25.434 10.1903 25.045 10.1338L20.5591 9.4821L18.553 5.4171C18.379 5.06458 18.0199 4.84143 17.6269 4.84143C17.2338 4.84143 16.8747 5.06465 16.7007 5.4171L14.6945 9.4821L10.2087 10.1338C9.81944 10.1904 9.49631 10.4629 9.37472 10.8367V10.8367Z" fill="white"/>
<path d="M34.5386 12.8359C34.4339 12.8018 33.4847 12.5032 32.4007 12.5032C31.7222 12.5032 31.1271 12.6224 30.6261 12.8566C30.6161 12.6834 30.6036 12.5106 30.5868 12.3382C31.4373 12.0977 32.5962 11.6131 33.255 10.6726C34.3185 9.1539 33.8186 6.81508 33.7582 6.55338C33.6392 6.03864 33.1505 5.69672 32.6264 5.76089C32.3726 5.79195 30.2161 6.0931 29.0916 7.43123C29.0145 7.28857 28.9354 7.14681 28.8529 7.00683C28.8473 6.9974 28.8414 6.98831 28.8359 6.97902C29.5048 6.40149 30.3496 5.47302 30.5489 4.34289C30.8708 2.51667 29.4294 0.608518 29.264 0.396937C28.9385 -0.0192709 28.3515 -0.122686 27.9033 0.157058C27.6866 0.292558 25.8578 1.47805 25.405 3.16739C25.0003 2.86527 24.5784 2.58497 24.1396 2.33112C23.6458 2.04552 23.0142 2.214 22.7284 2.70774C22.4428 3.2014 22.6115 3.83325 23.1051 4.11885C24.0326 4.65562 24.863 5.31962 25.5805 6.08064C27.4713 8.0571 28.6329 10.7369 28.6329 13.6881C28.6329 19.7671 23.7049 24.695 17.626 24.695C11.5471 24.695 6.61915 19.7671 6.61915 13.6882C6.61915 10.7392 7.77895 8.06123 9.66721 6.08518C10.3857 5.32224 11.2175 4.65665 12.147 4.11892C12.6408 3.83332 12.8095 3.20147 12.5239 2.70774C12.2383 2.214 11.6065 2.04552 11.1128 2.33091C10.6739 2.58484 10.2519 2.8652 9.84698 3.16725C9.39449 1.47791 7.56544 0.29242 7.34856 0.156989C6.90048 -0.122893 6.31338 -0.0194085 5.98805 0.396869C5.82267 0.608381 4.38106 2.5166 4.70301 4.34303C4.9024 5.47309 5.74707 6.40142 6.4161 6.97895C6.4106 6.98824 6.40467 6.99726 6.39917 7.00656C6.31661 7.1466 6.2375 7.28844 6.16046 7.43123C5.0357 6.09303 2.87926 5.79195 2.62548 5.76082C2.10117 5.69666 1.61274 6.03857 1.49383 6.55338C1.43331 6.81508 0.933586 9.1539 1.99707 10.6724C2.6557 11.6131 3.81475 12.0976 4.66521 12.3382C4.64841 12.5105 4.63588 12.6834 4.62582 12.8565C4.12507 12.6224 3.52984 12.5031 2.85131 12.5031C1.76745 12.5031 0.818053 12.8017 0.713398 12.8357C0.210988 12.9992 -0.0871398 13.5155 0.0226097 14.0324C0.0783795 14.2951 0.613908 16.6257 2.2198 17.553C2.76552 17.868 3.44178 18.0278 4.22979 18.0278C4.63078 18.0278 5.01311 17.9869 5.34126 17.9337C5.39896 18.0975 5.45948 18.2599 5.52344 18.4206C5.52289 18.4206 5.52234 18.4205 5.52186 18.4205C3.77392 18.4205 2.14999 19.8884 1.97049 20.0559C1.58416 20.4163 1.53225 21.0102 1.85014 21.4323C2.01166 21.6468 3.48199 23.5332 5.32914 23.6947C5.41679 23.7023 5.50678 23.7062 5.59677 23.7062H5.59705C6.64689 23.7062 7.65158 23.1767 8.32584 22.7174C8.44743 22.8416 8.57123 22.9634 8.69764 23.0827C7.10896 23.8195 6.25706 25.8311 6.16115 26.0686C5.96334 26.5586 6.16734 27.1188 6.63395 27.367C6.78363 27.4465 8.13753 28.145 9.54576 28.1451H9.54603C9.97876 28.1451 10.3815 28.0784 10.7432 27.9469C11.8221 27.554 12.5899 26.5598 13.0425 25.8006C13.4135 25.9406 13.7926 26.064 14.1788 26.1701C13.5777 26.7812 13.0271 27.5593 12.5441 28.4925C12.2819 28.9989 12.4799 29.6222 12.9865 29.8844C13.4931 30.1464 14.1163 29.9485 14.3785 29.4419C15.3021 27.6575 16.4859 26.6342 17.6263 26.6342C18.7668 26.6342 19.9505 27.6575 20.8741 29.4419C21.0578 29.7967 21.4185 30.0001 21.7922 30.0001C21.9521 30.0001 22.1144 29.9629 22.2661 29.8843C22.7726 29.6221 22.9707 28.9989 22.7085 28.4923C22.2255 27.5591 21.6749 26.781 21.0739 26.17C21.4601 26.0639 21.839 25.9404 22.2101 25.8004C22.6625 26.5597 23.4306 27.554 24.5097 27.9469C24.871 28.0783 25.2738 28.145 25.7067 28.145C27.1149 28.145 28.4688 27.4464 28.6186 27.3667C29.0851 27.1186 29.2891 26.5584 29.0913 26.0683C28.9954 25.8309 28.1433 23.8194 26.5548 23.0825C26.6812 22.9633 26.8051 22.8415 26.9266 22.7173C27.6009 23.1766 28.6057 23.706 29.6555 23.706C29.7455 23.706 29.8354 23.7022 29.9233 23.6945C31.7703 23.533 33.2407 21.6467 33.4023 21.4322C33.72 21.0101 33.6681 20.4162 33.2818 20.0557C33.1024 19.8883 31.4785 18.4204 29.7306 18.4204C29.73 18.4204 29.7295 18.4204 29.7289 18.4204C29.793 18.2597 29.8535 18.0973 29.9112 17.9336C30.2393 17.9867 30.6217 18.0276 31.0226 18.0276C31.8105 18.0276 32.4868 17.8679 33.0329 17.5528C34.6384 16.6255 35.1741 14.295 35.2297 14.0322C35.339 13.5156 35.041 12.9993 34.5386 12.8359V12.8359Z" fill="white"/>
</svg>
