<svg width="39" height="36" viewBox="0 0 39 36" fill="none" xmlns="http://www.w3.org/2000/svg">
<path d="M25.7267 31.1966C26.1432 31.1966 26.4808 30.859 26.4808 30.4426C26.4808 30.0261 26.1432 29.6885 25.7267 29.6885C25.3103 29.6885 24.9727 30.0261 24.9727 30.4426C24.9727 30.859 25.3103 31.1966 25.7267 31.1966Z" fill="white"/>
<path d="M19.6955 18.7538C20.1119 18.7538 20.4496 18.4161 20.4496 17.9997C20.4496 17.5832 20.1119 17.2456 19.6955 17.2456C19.279 17.2456 18.9414 17.5832 18.9414 17.9997C18.9414 18.4161 19.279 18.7538 19.6955 18.7538Z" fill="white"/>
<path d="M18.1877 15.7381C18.6041 15.7381 18.9417 15.4005 18.9417 14.9841C18.9417 14.5676 18.6041 14.23 18.1877 14.23C17.7712 14.23 17.4336 14.5676 17.4336 14.9841C17.4336 15.4005 17.7712 15.7381 18.1877 15.7381Z" fill="white"/>
<path d="M21.2033 15.7381C21.6198 15.7381 21.9574 15.4005 21.9574 14.9841C21.9574 14.5676 21.6198 14.23 21.2033 14.23C20.7868 14.23 20.4492 14.5676 20.4492 14.9841C20.4492 15.4005 20.7868 15.7381 21.2033 15.7381Z" fill="white"/>
<path d="M18.1877 12.7215C18.6041 12.7215 18.9417 12.3839 18.9417 11.9675C18.9417 11.551 18.6041 11.2134 18.1877 11.2134C17.7712 11.2134 17.4336 11.551 17.4336 11.9675C17.4336 12.3839 17.7712 12.7215 18.1877 12.7215Z" fill="white"/>
<path d="M6.80095 8.64976C7.21742 8.64976 7.55503 8.31214 7.55503 7.89568C7.55503 7.47921 7.21742 7.1416 6.80095 7.1416C6.38449 7.1416 6.04688 7.47921 6.04688 7.89568C6.04688 8.31214 6.38449 8.64976 6.80095 8.64976Z" fill="white"/>
<path d="M5.8947 22.2225C6.31117 22.2225 6.64878 21.8849 6.64878 21.4684C6.64878 21.052 6.31117 20.7144 5.8947 20.7144C5.47824 20.7144 5.14062 21.052 5.14062 21.4684C5.14062 21.8849 5.47824 22.2225 5.8947 22.2225Z" fill="white"/>
<path d="M8.9865 22.6756C9.40296 22.6756 9.74058 22.338 9.74058 21.9216C9.74058 21.5051 9.40296 21.1675 8.9865 21.1675C8.57003 21.1675 8.23242 21.5051 8.23242 21.9216C8.23242 22.338 8.57003 22.6756 8.9865 22.6756Z" fill="white"/>
<path d="M3.78337 7.89536C4.19984 7.89536 4.53745 7.55775 4.53745 7.14128C4.53745 6.72482 4.19984 6.38721 3.78337 6.38721C3.36691 6.38721 3.0293 6.72482 3.0293 7.14128C3.0293 7.55775 3.36691 7.89536 3.78337 7.89536Z" fill="white"/>
<path d="M9.81658 7.89536C10.233 7.89536 10.5707 7.55775 10.5707 7.14128C10.5707 6.72482 10.233 6.38721 9.81658 6.38721C9.40011 6.38721 9.0625 6.72482 9.0625 7.14128C9.0625 7.55775 9.40011 7.89536 9.81658 7.89536Z" fill="white"/>
<path d="M2.72869 21.5438C3.14515 21.5438 3.48276 21.2062 3.48276 20.7897C3.48276 20.3733 3.14515 20.0356 2.72869 20.0356C2.31222 20.0356 1.97461 20.3733 1.97461 20.7897C1.97461 21.2062 2.31222 21.5438 2.72869 21.5438Z" fill="white"/>
<path d="M4.91423 28.1043C5.3307 28.1043 5.66831 27.7667 5.66831 27.3503C5.66831 26.9338 5.3307 26.5962 4.91423 26.5962C4.49777 26.5962 4.16016 26.9338 4.16016 27.3503C4.16016 27.7667 4.49777 28.1043 4.91423 28.1043Z" fill="white"/>
<path d="M7.93181 29.6131C8.34828 29.6131 8.68589 29.2755 8.68589 28.8591C8.68589 28.4426 8.34828 28.105 7.93181 28.105C7.51535 28.105 7.17773 28.4426 7.17773 28.8591C7.17773 29.2755 7.51535 29.6131 7.93181 29.6131Z" fill="white"/>
<path d="M1.89861 28.7835C2.31507 28.7835 2.65268 28.4459 2.65268 28.0295C2.65268 27.613 2.31507 27.2754 1.89861 27.2754C1.48214 27.2754 1.14453 27.613 1.14453 28.0295C1.14453 28.4459 1.48214 28.7835 1.89861 28.7835Z" fill="white"/>
<path d="M1.89861 15.2098C2.31507 15.2098 2.65268 14.8722 2.65268 14.4557C2.65268 14.0393 2.31507 13.7017 1.89861 13.7017C1.48214 13.7017 1.14453 14.0393 1.14453 14.4557C1.14453 14.8722 1.48214 15.2098 1.89861 15.2098Z" fill="white"/>
<path d="M7.93181 15.5116C8.34828 15.5116 8.68589 15.174 8.68589 14.7575C8.68589 14.341 8.34828 14.0034 7.93181 14.0034C7.51535 14.0034 7.17773 14.341 7.17773 14.7575C7.17773 15.174 7.51535 15.5116 7.93181 15.5116Z" fill="white"/>
<path d="M4.9904 14.6063C5.40687 14.6063 5.74448 14.2687 5.74448 13.8522C5.74448 13.4358 5.40687 13.0981 4.9904 13.0981C4.57394 13.0981 4.23633 13.4358 4.23633 13.8522C4.23633 14.2687 4.57394 14.6063 4.9904 14.6063Z" fill="white"/>
<path d="M21.2033 12.7215C21.6198 12.7215 21.9574 12.3839 21.9574 11.9675C21.9574 11.551 21.6198 11.2134 21.2033 11.2134C20.7868 11.2134 20.4492 11.551 20.4492 11.9675C20.4492 12.3839 20.7868 12.7215 21.2033 12.7215Z" fill="white"/>
<path d="M19.6955 24.787C20.1119 24.787 20.4496 24.4494 20.4496 24.0329C20.4496 23.6164 20.1119 23.2788 19.6955 23.2788C19.279 23.2788 18.9414 23.6164 18.9414 24.0329C18.9414 24.4494 19.279 24.787 19.6955 24.787Z" fill="white"/>
<path d="M18.1877 21.7704C18.6041 21.7704 18.9417 21.4327 18.9417 21.0163C18.9417 20.5998 18.6041 20.2622 18.1877 20.2622C17.7712 20.2622 17.4336 20.5998 17.4336 21.0163C17.4336 21.4327 17.7712 21.7704 18.1877 21.7704Z" fill="white"/>
<path d="M21.2033 21.7704C21.6198 21.7704 21.9574 21.4327 21.9574 21.0163C21.9574 20.5998 21.6198 20.2622 21.2033 20.2622C20.7868 20.2622 20.4492 20.5998 20.4492 21.0163C20.4492 21.4327 20.7868 21.7704 21.2033 21.7704Z" fill="white"/>
<path d="M35.8269 21.0971C35.9741 21.2444 36.167 21.318 36.3601 21.318C36.5531 21.318 36.746 21.2444 36.8933 21.0971L38.7785 19.2119C39.073 18.9174 39.073 18.4399 38.7785 18.1454L36.8933 16.2602C36.5988 15.9657 36.1214 15.9657 35.8268 16.2602C35.5323 16.5547 35.5323 17.0322 35.8268 17.3267L36.4247 17.9246H35.4928C34.1982 17.9246 33.1128 17.3442 33.1041 17.3394C33.0468 17.3079 31.6822 16.5673 29.9881 16.5673C29.2252 16.5673 28.5298 16.7175 27.9898 16.8855V11.698C28.4205 11.5254 29.1614 11.2887 29.9881 11.2887C31.2827 11.2887 32.3681 11.8691 32.3768 11.8739C32.4341 11.9054 33.7987 12.6461 35.4928 12.6461H36.4246L35.8267 13.244C35.5323 13.5384 35.5323 14.0159 35.8267 14.3105C35.9742 14.4577 36.167 14.5313 36.3601 14.5313C36.5531 14.5313 36.746 14.4577 36.8933 14.3104L38.7785 12.4252C39.073 12.1307 39.073 11.6533 38.7785 11.3587L36.8933 9.47352C36.5988 9.17905 36.1214 9.17905 35.8268 9.47352C35.5323 9.76799 35.5323 10.2455 35.8268 10.54L36.4247 11.1379H35.4929C34.1983 11.1379 33.1129 10.5575 33.1042 10.5528C33.0469 10.5212 31.6822 9.78058 29.9881 9.78058C29.2253 9.78058 28.5298 9.93079 27.9898 10.0988V9.70517C27.9898 9.28892 27.652 8.95109 27.2358 8.95109H26.4817V1.41033C26.4817 1.212 26.401 1.01745 26.2607 0.877195C26.1205 0.736936 25.9259 0.65625 25.7276 0.65625H13.6624C13.4641 0.65625 13.2695 0.736936 13.1292 0.877195C12.989 1.01745 12.9083 1.212 12.9083 1.41033V8.95109H12.1542C11.738 8.95109 11.4001 9.28892 11.4001 9.70517V10.7287C10.9694 10.9013 10.2285 11.1379 9.40184 11.1379C8.10724 11.1379 7.02183 10.5575 7.01315 10.5528C6.95584 10.5212 5.59119 9.78058 3.89708 9.78058C2.20297 9.78058 0.838321 10.5212 0.781011 10.5528C0.531638 10.6901 0.390399 10.9475 0.390625 11.2133C0.390776 11.3355 0.421316 11.4595 0.484055 11.5743C0.683282 11.939 1.14116 12.0732 1.50636 11.875C1.51707 11.8691 2.60248 11.2887 3.89708 11.2887C5.19168 11.2887 6.2771 11.8691 6.28577 11.8739C6.34308 11.9054 7.70773 12.6461 9.40184 12.6461C10.1647 12.6461 10.8602 12.4959 11.4001 12.3279V17.5154C10.9694 17.688 10.2285 17.9246 9.40184 17.9246C8.10724 17.9246 7.02183 17.3442 7.01315 17.3394C6.95584 17.3079 5.59119 16.5673 3.89708 16.5673C2.20297 16.5673 0.838321 17.3079 0.781011 17.3394C0.531638 17.4768 0.390399 17.7342 0.390625 18C0.390776 18.1222 0.421316 18.2461 0.484055 18.361C0.683282 18.7257 1.14116 18.8599 1.50636 18.6617C1.51707 18.6558 2.60248 18.0754 3.89708 18.0754C5.19168 18.0754 6.2771 18.6558 6.28577 18.6606C6.34308 18.6921 7.70773 19.4328 9.40184 19.4328C10.1647 19.4328 10.8602 19.2825 11.4001 19.1145V24.3021C10.9694 24.4747 10.2285 24.7113 9.40184 24.7113C8.10724 24.7113 7.02183 24.1309 7.01315 24.1261C6.95584 24.0946 5.59119 23.354 3.89708 23.354C2.20297 23.354 0.838321 24.0946 0.781011 24.1261C0.533824 24.2622 0.390625 24.5055 0.390625 24.7796C0.390625 24.9041 0.42011 25.0306 0.484055 25.1478C0.683282 25.5124 1.14116 25.6466 1.50636 25.4485C1.51707 25.4425 2.60248 24.8621 3.89708 24.8621C5.19168 24.8621 6.2771 25.4425 6.28577 25.4473C6.34308 25.4788 7.70773 26.2195 9.40184 26.2195C10.1647 26.2195 10.8602 26.0692 11.4001 25.9012V26.2949C11.4001 26.7111 11.738 27.0489 12.1542 27.0489H12.9083V34.5897C12.9083 34.788 12.989 34.9826 13.1292 35.1228C13.2695 35.2631 13.4641 35.3438 13.6624 35.3438H25.7276C25.9259 35.3438 26.1205 35.2631 26.2607 35.1228C26.401 34.9826 26.4817 34.788 26.4817 34.5897V33.8356C26.4817 33.4201 26.1431 33.0816 25.7276 33.0816C25.3121 33.0816 24.9735 33.4201 24.9735 33.8356H14.4165V27.0489H15.1705C15.5868 27.0489 15.9246 26.7111 15.9246 26.2949V9.70517C15.9246 9.28892 15.5868 8.95109 15.1705 8.95109H14.4165V2.1644H24.9735V8.95109H24.2194C23.8032 8.95109 23.4654 9.28892 23.4654 9.70517V26.2949C23.4654 26.7111 23.8032 27.0489 24.2194 27.0489H24.9735C24.9735 27.4644 25.3121 27.803 25.7276 27.803C26.1439 27.803 26.4817 27.4644 26.4817 27.0489H27.2358C27.652 27.0489 27.9898 26.7111 27.9898 26.2949V25.2714C28.4206 25.0987 29.1614 24.8621 29.9881 24.8621C31.2827 24.8621 32.3682 25.4425 32.3768 25.4473C32.4341 25.4788 33.7988 26.2195 35.4929 26.2195H36.4247L35.8269 26.8174C35.5324 27.1118 35.5324 27.5893 35.8269 27.8839C35.9741 28.031 36.167 28.1046 36.3601 28.1046C36.5531 28.1046 36.746 28.031 36.8933 27.8838L38.7785 25.9986C39.073 25.7041 39.073 25.2266 38.7785 24.9321L36.8933 23.0469C36.5988 22.7524 36.1214 22.7524 35.8268 23.0469C35.5323 23.3414 35.5323 23.8188 35.8268 24.1134L36.4247 24.7113H35.4928C34.1982 24.7113 33.1128 24.1309 33.1041 24.1261C33.0468 24.0946 31.6822 23.354 29.9881 23.354C29.2252 23.354 28.5298 23.5042 27.9898 23.6722V18.4847C28.4205 18.3121 29.1614 18.0754 29.9881 18.0754C31.2827 18.0754 32.3681 18.6558 32.3768 18.6606C32.4341 18.6921 33.7987 19.4328 35.4928 19.4328H36.4246L35.8268 20.0307C35.5323 20.3251 35.5323 20.8026 35.8269 21.0971Z" fill="white"/>
</svg>
