<svg width="30" height="30" viewBox="0 0 30 30" fill="none" xmlns="http://www.w3.org/2000/svg">
<path d="M1.75781 1.75781H3.23496V0H0V3.23502H1.75781V1.75781Z" fill="white"/>
<path d="M0 5.35291H1.75781V8.58792H0V5.35291Z" fill="white"/>
<path d="M0 10.7061H1.75781V13.9411H0V10.7061Z" fill="white"/>
<path d="M21.412 0H24.6469V1.75781H21.412V0Z" fill="white"/>
<path d="M16.0586 0H19.2936V1.75781H16.0586V0Z" fill="white"/>
<path d="M10.7051 0H13.94V1.75781H10.7051V0Z" fill="white"/>
<path d="M5.35352 0H8.58848V1.75781H5.35352V0Z" fill="white"/>
<path d="M26.7656 0V1.75781H28.2428V3.23502H30.0006V0H26.7656Z" fill="white"/>
<path d="M28.2422 5.35291H30V8.58792H28.2422V5.35291Z" fill="white"/>
<path d="M28.2422 10.7061H30V13.9411H28.2422V10.7061Z" fill="white"/>
<path d="M28.2422 16.0591H30V19.2941H28.2422V16.0591Z" fill="white"/>
<path d="M28.2422 21.412H30V24.647H28.2422V21.412Z" fill="white"/>
<path d="M28.2428 28.2423H26.7656V30.0002H30.0006V26.7651H28.2428V28.2423Z" fill="white"/>
<path d="M21.412 28.2422H24.6469V30H21.412V28.2422Z" fill="white"/>
<path d="M16.0586 28.2422H19.2936V30H16.0586V28.2422Z" fill="white"/>
<path d="M0 16.0591H13.941V30.0001H0V16.0591Z" fill="white"/>
<path d="M21.0921 6.79297H21.9645L17.2461 11.5114V10.6389H15.4883V14.5122H19.3615V12.7544H18.489L23.2075 8.03586V8.90838H24.9653V5.03516H21.0921V6.79297Z" fill="white"/>
</svg>
