<svg width="35" height="30" viewBox="0 0 35 30" fill="none" xmlns="http://www.w3.org/2000/svg">
<path d="M33.5643 23.9047H18.302V17.1467L20.6102 14.3769C20.7622 14.1951 20.8453 13.9655 20.8453 13.7284V11.1817H23.3919C23.9519 11.1817 24.4051 10.7278 24.4051 10.1685V8.1258C24.4051 7.56621 23.9515 7.11255 23.3919 7.11255H11.1856C10.6261 7.11255 10.1724 7.56621 10.1724 8.1258V10.1685C10.1724 10.7278 10.6256 11.1817 11.1856 11.1817H13.7323V13.7284C13.7323 13.9655 13.8153 14.1951 13.9673 14.3769L16.2755 17.1467V23.9047H1.01325C0.453664 23.9047 0 24.3583 0 24.9179V28.9868C0 29.5464 0.453664 30 1.01325 30H33.5643C34.1239 30 34.5776 29.5464 34.5776 28.9868V24.9179C34.5776 24.3583 34.1239 23.9047 33.5643 23.9047Z" fill="white"/>
<path d="M22.6756 16.0893L20.1581 18.6068C19.7624 19.0025 19.7624 19.6441 20.1581 20.0398C20.5537 20.4355 21.1953 20.4355 21.591 20.0398L24.1086 17.5222C24.5043 17.1265 24.5043 16.485 24.1086 16.0893C23.7128 15.6935 23.0713 15.6935 22.6756 16.0893Z" fill="white"/>
<path d="M27.2275 18.0982L24.71 20.6157C24.3143 21.0114 24.3143 21.6529 24.71 22.0486C25.1056 22.4443 25.7472 22.4444 26.1429 22.0486L28.6604 19.5311C29.0561 19.1354 29.0561 18.4939 28.6604 18.0982C28.2648 17.7025 27.6232 17.7025 27.2275 18.0982Z" fill="white"/>
<path d="M13.7029 20.3365C14.5975 20.3365 15.0594 19.2469 14.4193 18.6068L11.9018 16.0893C11.5062 15.6936 10.8646 15.6936 10.4689 16.0893C10.0732 16.485 10.0732 17.1265 10.4689 17.5222L12.9864 20.0397C13.1843 20.2375 13.4436 20.3365 13.7029 20.3365Z" fill="white"/>
<path d="M5.91702 18.0982C5.52131 18.4939 5.52131 19.1354 5.91702 19.5311L8.43453 22.0486C8.83017 22.4443 9.47176 22.4444 9.86747 22.0486C10.2632 21.6529 10.2632 21.0114 9.86747 20.6157L7.34995 18.0982C6.95425 17.7025 6.31266 17.7025 5.91702 18.0982Z" fill="white"/>
<path d="M2.03046 2.02649H7.12047V4.07285C7.12047 4.63243 7.57413 5.08609 8.13372 5.08609H26.4438C27.0033 5.08609 27.457 4.63243 27.457 4.07285V2.02649H32.547C33.1066 2.02649 33.5603 1.57283 33.5603 1.01325C33.5603 0.453664 33.1066 0 32.547 0H2.03046C1.47088 0 1.01721 0.453664 1.01721 1.01325C1.01721 1.57283 1.47088 2.02649 2.03046 2.02649Z" fill="white"/>
</svg>
